%TF.GenerationSoftware,KiCad,Pcbnew,5.1.8-db9833491~88~ubuntu18.04.1*%
%TF.CreationDate,2020-12-01T05:37:15+01:00*%
%TF.ProjectId,esp32_gateway,65737033-325f-4676-9174-657761792e6b,rev?*%
%TF.SameCoordinates,Original*%
%TF.FileFunction,Soldermask,Bot*%
%TF.FilePolarity,Negative*%
%FSLAX46Y46*%
G04 Gerber Fmt 4.6, Leading zero omitted, Abs format (unit mm)*
G04 Created by KiCad (PCBNEW 5.1.8-db9833491~88~ubuntu18.04.1) date 2020-12-01 05:37:15*
%MOMM*%
%LPD*%
G01*
G04 APERTURE LIST*
%ADD10C,1.310000*%
%ADD11O,1.700000X1.700000*%
%ADD12R,1.700000X1.700000*%
%ADD13C,3.200000*%
%ADD14C,2.700000*%
%ADD15C,1.800000*%
%ADD16C,0.100000*%
%ADD17R,1.800000X1.800000*%
G04 APERTURE END LIST*
D10*
%TO.C,J21*%
X134800000Y-85460000D03*
X137340000Y-85460000D03*
X139880000Y-85460000D03*
X142420000Y-85460000D03*
X144960000Y-85460000D03*
X147500000Y-85460000D03*
X134800000Y-88000000D03*
X137340000Y-88000000D03*
X139880000Y-88000000D03*
X142420000Y-88000000D03*
X144960000Y-88000000D03*
G36*
G01*
X148155000Y-87595000D02*
X148155000Y-88405000D01*
G75*
G02*
X147905000Y-88655000I-250000J0D01*
G01*
X147095000Y-88655000D01*
G75*
G02*
X146845000Y-88405000I0J250000D01*
G01*
X146845000Y-87595000D01*
G75*
G02*
X147095000Y-87345000I250000J0D01*
G01*
X147905000Y-87345000D01*
G75*
G02*
X148155000Y-87595000I0J-250000D01*
G01*
G37*
%TD*%
%TO.C,J20*%
X134800000Y-106210000D03*
X137340000Y-106210000D03*
X139880000Y-106210000D03*
X142420000Y-106210000D03*
X144960000Y-106210000D03*
X147500000Y-106210000D03*
X134800000Y-108750000D03*
X137340000Y-108750000D03*
X139880000Y-108750000D03*
X142420000Y-108750000D03*
X144960000Y-108750000D03*
G36*
G01*
X148155000Y-108345000D02*
X148155000Y-109155000D01*
G75*
G02*
X147905000Y-109405000I-250000J0D01*
G01*
X147095000Y-109405000D01*
G75*
G02*
X146845000Y-109155000I0J250000D01*
G01*
X146845000Y-108345000D01*
G75*
G02*
X147095000Y-108095000I250000J0D01*
G01*
X147905000Y-108095000D01*
G75*
G02*
X148155000Y-108345000I0J-250000D01*
G01*
G37*
%TD*%
D11*
%TO.C,J6*%
X101710000Y-96250000D03*
D12*
X104250000Y-96250000D03*
%TD*%
D13*
%TO.C,REF\u002A\u002A*%
X78500000Y-74000000D03*
%TD*%
%TO.C,REF\u002A\u002A*%
X78750000Y-109000000D03*
%TD*%
%TO.C,REF\u002A\u002A*%
X150500000Y-92500000D03*
%TD*%
D11*
%TO.C,J8*%
X116306600Y-107579160D03*
X113766600Y-107579160D03*
X111226600Y-107579160D03*
D12*
X108686600Y-107579160D03*
%TD*%
D11*
%TO.C,J10*%
X88000000Y-83170000D03*
X88000000Y-85710000D03*
D12*
X88000000Y-88250000D03*
%TD*%
D14*
%TO.C,J2*%
X148250000Y-79250000D03*
G36*
G01*
X147150001Y-72900000D02*
X149349999Y-72900000D01*
G75*
G02*
X149600000Y-73150001I0J-250001D01*
G01*
X149600000Y-75349999D01*
G75*
G02*
X149349999Y-75600000I-250001J0D01*
G01*
X147150001Y-75600000D01*
G75*
G02*
X146900000Y-75349999I0J250001D01*
G01*
X146900000Y-73150001D01*
G75*
G02*
X147150001Y-72900000I250001J0D01*
G01*
G37*
%TD*%
%TO.C,J1*%
X82000000Y-98500000D03*
G36*
G01*
X80900001Y-92150000D02*
X83099999Y-92150000D01*
G75*
G02*
X83350000Y-92400001I0J-250001D01*
G01*
X83350000Y-94599999D01*
G75*
G02*
X83099999Y-94850000I-250001J0D01*
G01*
X80900001Y-94850000D01*
G75*
G02*
X80650000Y-94599999I0J250001D01*
G01*
X80650000Y-92400001D01*
G75*
G02*
X80900001Y-92150000I250001J0D01*
G01*
G37*
%TD*%
D12*
%TO.C,J23*%
X124250000Y-74250000D03*
%TD*%
%TO.C,J22*%
X127005080Y-74250000D03*
%TD*%
%TO.C,J19*%
X88000000Y-95000000D03*
%TD*%
%TO.C,J18*%
X126750000Y-83250000D03*
%TD*%
%TO.C,J17*%
X91500000Y-88250000D03*
%TD*%
%TO.C,J16*%
X88000000Y-92500000D03*
%TD*%
%TO.C,J15*%
X91500000Y-85750000D03*
%TD*%
%TO.C,J14*%
X91500000Y-83250000D03*
%TD*%
%TO.C,J13*%
X91500000Y-80750000D03*
%TD*%
%TO.C,J12*%
X91500000Y-78250000D03*
%TD*%
%TO.C,J11*%
X88000000Y-97500000D03*
%TD*%
%TO.C,J9*%
X129250000Y-83250000D03*
%TD*%
D11*
%TO.C,J5*%
X126903480Y-79166720D03*
D12*
X124363480Y-79166720D03*
%TD*%
%TO.C,J4*%
X121750000Y-83250000D03*
%TD*%
%TO.C,J3*%
X124250000Y-83250000D03*
%TD*%
D15*
%TO.C,D8*%
X118480000Y-96800295D03*
D16*
G36*
X120979423Y-99329423D02*
G01*
X119420577Y-100229423D01*
X118520577Y-98670577D01*
X120079423Y-97770577D01*
X120979423Y-99329423D01*
G37*
%TD*%
D15*
%TO.C,D7*%
X123710000Y-101000000D03*
D17*
X126250000Y-101000000D03*
%TD*%
D15*
%TO.C,D6*%
X126250000Y-88750000D03*
D17*
X123710000Y-88750000D03*
%TD*%
D15*
%TO.C,D5*%
X119770000Y-90800295D03*
D16*
G36*
X118829423Y-94229423D02*
G01*
X117270577Y-93329423D01*
X118170577Y-91770577D01*
X119729423Y-92670577D01*
X118829423Y-94229423D01*
G37*
%TD*%
D15*
%TO.C,D4*%
X131270000Y-93199705D03*
D16*
G36*
X128770577Y-90670577D02*
G01*
X130329423Y-89770577D01*
X131229423Y-91329423D01*
X129670577Y-92229423D01*
X128770577Y-90670577D01*
G37*
%TD*%
D15*
%TO.C,D3*%
X129980000Y-99199705D03*
D16*
G36*
X130920577Y-95770577D02*
G01*
X132479423Y-96670577D01*
X131579423Y-98229423D01*
X130020577Y-97329423D01*
X130920577Y-95770577D01*
G37*
%TD*%
D12*
%TO.C,J7*%
X133920000Y-74000000D03*
D11*
X136460000Y-74000000D03*
X139000000Y-74000000D03*
%TD*%
M02*
