%TF.GenerationSoftware,KiCad,Pcbnew,5.1.8-db9833491~87~ubuntu18.04.1*%
%TF.CreationDate,2020-11-20T12:07:17+01:00*%
%TF.ProjectId,esp32_gateway,65737033-325f-4676-9174-657761792e6b,rev?*%
%TF.SameCoordinates,Original*%
%TF.FileFunction,Copper,L2,Bot*%
%TF.FilePolarity,Positive*%
%FSLAX46Y46*%
G04 Gerber Fmt 4.6, Leading zero omitted, Abs format (unit mm)*
G04 Created by KiCad (PCBNEW 5.1.8-db9833491~87~ubuntu18.04.1) date 2020-11-20 12:07:17*
%MOMM*%
%LPD*%
G01*
G04 APERTURE LIST*
%TA.AperFunction,ComponentPad*%
%ADD10C,1.310000*%
%TD*%
%TA.AperFunction,ComponentPad*%
%ADD11O,1.700000X1.700000*%
%TD*%
%TA.AperFunction,ComponentPad*%
%ADD12R,1.700000X1.700000*%
%TD*%
%TA.AperFunction,ComponentPad*%
%ADD13C,2.700000*%
%TD*%
%TA.AperFunction,ComponentPad*%
%ADD14C,1.800000*%
%TD*%
%TA.AperFunction,ComponentPad*%
%ADD15C,0.100000*%
%TD*%
%TA.AperFunction,ComponentPad*%
%ADD16R,1.800000X1.800000*%
%TD*%
%TA.AperFunction,ViaPad*%
%ADD17C,1.000000*%
%TD*%
%TA.AperFunction,ViaPad*%
%ADD18C,0.800000*%
%TD*%
%TA.AperFunction,Conductor*%
%ADD19C,0.500000*%
%TD*%
%TA.AperFunction,Conductor*%
%ADD20C,0.750000*%
%TD*%
%TA.AperFunction,Conductor*%
%ADD21C,0.250000*%
%TD*%
%TA.AperFunction,Conductor*%
%ADD22C,0.450000*%
%TD*%
%TA.AperFunction,Conductor*%
%ADD23C,0.254000*%
%TD*%
%TA.AperFunction,Conductor*%
%ADD24C,0.100000*%
%TD*%
G04 APERTURE END LIST*
D10*
%TO.P,J21,12*%
%TO.N,Net-(J21-Pad12)*%
X134800000Y-85460000D03*
%TO.P,J21,10*%
%TO.N,Net-(J21-Pad10)*%
X137340000Y-85460000D03*
%TO.P,J21,8*%
%TO.N,Net-(J21-Pad8)*%
X139880000Y-85460000D03*
%TO.P,J21,6*%
%TO.N,Net-(J21-Pad6)*%
X142420000Y-85460000D03*
%TO.P,J21,4*%
%TO.N,Net-(J21-Pad4)*%
X144960000Y-85460000D03*
%TO.P,J21,2*%
%TO.N,Net-(J21-Pad2)*%
X147500000Y-85460000D03*
%TO.P,J21,11*%
%TO.N,Net-(J21-Pad11)*%
X134800000Y-88000000D03*
%TO.P,J21,9*%
%TO.N,Net-(J21-Pad9)*%
X137340000Y-88000000D03*
%TO.P,J21,7*%
%TO.N,Net-(J21-Pad7)*%
X139880000Y-88000000D03*
%TO.P,J21,5*%
%TO.N,Net-(J21-Pad5)*%
X142420000Y-88000000D03*
%TO.P,J21,3*%
%TO.N,Net-(J21-Pad3)*%
X144960000Y-88000000D03*
%TO.P,J21,1*%
%TO.N,Net-(J21-Pad1)*%
%TA.AperFunction,ComponentPad*%
G36*
G01*
X148155000Y-87595000D02*
X148155000Y-88405000D01*
G75*
G02*
X147905000Y-88655000I-250000J0D01*
G01*
X147095000Y-88655000D01*
G75*
G02*
X146845000Y-88405000I0J250000D01*
G01*
X146845000Y-87595000D01*
G75*
G02*
X147095000Y-87345000I250000J0D01*
G01*
X147905000Y-87345000D01*
G75*
G02*
X148155000Y-87595000I0J-250000D01*
G01*
G37*
%TD.AperFunction*%
%TD*%
%TO.P,J20,12*%
%TO.N,Net-(J20-Pad12)*%
X134800000Y-106210000D03*
%TO.P,J20,10*%
%TO.N,Net-(J20-Pad10)*%
X137340000Y-106210000D03*
%TO.P,J20,8*%
%TO.N,/RX_CC*%
X139880000Y-106210000D03*
%TO.P,J20,6*%
%TO.N,Net-(J20-Pad6)*%
X142420000Y-106210000D03*
%TO.P,J20,4*%
%TO.N,/RST_CC*%
X144960000Y-106210000D03*
%TO.P,J20,2*%
%TO.N,GND*%
X147500000Y-106210000D03*
%TO.P,J20,11*%
%TO.N,Net-(J20-Pad11)*%
X134800000Y-108750000D03*
%TO.P,J20,9*%
%TO.N,Net-(J20-Pad9)*%
X137340000Y-108750000D03*
%TO.P,J20,7*%
%TO.N,/TX_CC*%
X139880000Y-108750000D03*
%TO.P,J20,5*%
%TO.N,Net-(J20-Pad5)*%
X142420000Y-108750000D03*
%TO.P,J20,3*%
%TO.N,+3V3*%
X144960000Y-108750000D03*
%TO.P,J20,1*%
%TA.AperFunction,ComponentPad*%
G36*
G01*
X148155000Y-108345000D02*
X148155000Y-109155000D01*
G75*
G02*
X147905000Y-109405000I-250000J0D01*
G01*
X147095000Y-109405000D01*
G75*
G02*
X146845000Y-109155000I0J250000D01*
G01*
X146845000Y-108345000D01*
G75*
G02*
X147095000Y-108095000I250000J0D01*
G01*
X147905000Y-108095000D01*
G75*
G02*
X148155000Y-108345000I0J-250000D01*
G01*
G37*
%TD.AperFunction*%
%TD*%
D11*
%TO.P,J6,2*%
%TO.N,GND*%
X101710000Y-96250000D03*
D12*
%TO.P,J6,1*%
%TO.N,/LED_RX*%
X104250000Y-96250000D03*
%TD*%
D11*
%TO.P,J8,4*%
%TO.N,GND*%
X116306600Y-107579160D03*
%TO.P,J8,3*%
%TO.N,Net-(J8-Pad3)*%
X113766600Y-107579160D03*
%TO.P,J8,2*%
%TO.N,Net-(J8-Pad2)*%
X111226600Y-107579160D03*
D12*
%TO.P,J8,1*%
%TO.N,Net-(D1-Pad1)*%
X108686600Y-107579160D03*
%TD*%
D11*
%TO.P,J10,3*%
%TO.N,GND*%
X88000000Y-83170000D03*
%TO.P,J10,2*%
%TO.N,+3V3*%
X88000000Y-85710000D03*
D12*
%TO.P,J10,1*%
%TO.N,/RX_IR*%
X88000000Y-88250000D03*
%TD*%
D13*
%TO.P,J2,2*%
%TO.N,Net-(C3-Pad1)*%
X148250000Y-79250000D03*
%TO.P,J2,1*%
%TO.N,GND*%
%TA.AperFunction,ComponentPad*%
G36*
G01*
X147150001Y-72900000D02*
X149349999Y-72900000D01*
G75*
G02*
X149600000Y-73150001I0J-250001D01*
G01*
X149600000Y-75349999D01*
G75*
G02*
X149349999Y-75600000I-250001J0D01*
G01*
X147150001Y-75600000D01*
G75*
G02*
X146900000Y-75349999I0J250001D01*
G01*
X146900000Y-73150001D01*
G75*
G02*
X147150001Y-72900000I250001J0D01*
G01*
G37*
%TD.AperFunction*%
%TD*%
%TO.P,J1,2*%
%TO.N,+5V*%
X82000000Y-98500000D03*
%TO.P,J1,1*%
%TO.N,GND*%
%TA.AperFunction,ComponentPad*%
G36*
G01*
X80900001Y-92150000D02*
X83099999Y-92150000D01*
G75*
G02*
X83350000Y-92400001I0J-250001D01*
G01*
X83350000Y-94599999D01*
G75*
G02*
X83099999Y-94850000I-250001J0D01*
G01*
X80900001Y-94850000D01*
G75*
G02*
X80650000Y-94599999I0J250001D01*
G01*
X80650000Y-92400001D01*
G75*
G02*
X80900001Y-92150000I250001J0D01*
G01*
G37*
%TD.AperFunction*%
%TD*%
D12*
%TO.P,J23,1*%
%TO.N,Net-(J23-Pad1)*%
X124250000Y-74250000D03*
%TD*%
%TO.P,J22,1*%
%TO.N,Net-(J22-Pad1)*%
X127005080Y-74250000D03*
%TD*%
%TO.P,J19,1*%
%TO.N,GND*%
X88000000Y-95000000D03*
%TD*%
%TO.P,J18,1*%
%TO.N,GND*%
X126750000Y-83250000D03*
%TD*%
%TO.P,J17,1*%
%TO.N,/AUX5*%
X91500000Y-88250000D03*
%TD*%
%TO.P,J16,1*%
%TO.N,/HCSR501*%
X88000000Y-92500000D03*
%TD*%
%TO.P,J15,1*%
%TO.N,/AUX3*%
X91500000Y-85750000D03*
%TD*%
%TO.P,J14,1*%
%TO.N,/AUX2*%
X91500000Y-83250000D03*
%TD*%
%TO.P,J13,1*%
%TO.N,/AUX1*%
X91500000Y-80750000D03*
%TD*%
%TO.P,J12,1*%
%TO.N,/ADC1_0*%
X91500000Y-78250000D03*
%TD*%
%TO.P,J11,1*%
%TO.N,+3V3*%
X88000000Y-97500000D03*
%TD*%
%TO.P,J9,1*%
%TO.N,+3V3*%
X129250000Y-83250000D03*
%TD*%
D11*
%TO.P,J5,2*%
%TO.N,/RXD*%
X126903480Y-79166720D03*
D12*
%TO.P,J5,1*%
%TO.N,/TXD*%
X124363480Y-79166720D03*
%TD*%
%TO.P,J4,1*%
%TO.N,/SDA*%
X121750000Y-83250000D03*
%TD*%
%TO.P,J3,1*%
%TO.N,/SCL*%
X124250000Y-83250000D03*
%TD*%
D14*
%TO.P,D8,2*%
%TO.N,Net-(D8-Pad2)*%
X118480000Y-96800295D03*
%TA.AperFunction,ComponentPad*%
D15*
%TO.P,D8,1*%
%TO.N,Net-(D3-Pad1)*%
G36*
X120979423Y-99329423D02*
G01*
X119420577Y-100229423D01*
X118520577Y-98670577D01*
X120079423Y-97770577D01*
X120979423Y-99329423D01*
G37*
%TD.AperFunction*%
%TD*%
D14*
%TO.P,D7,2*%
%TO.N,Net-(D7-Pad2)*%
X123710000Y-101000000D03*
D16*
%TO.P,D7,1*%
%TO.N,Net-(D3-Pad1)*%
X126250000Y-101000000D03*
%TD*%
D14*
%TO.P,D6,2*%
%TO.N,Net-(D6-Pad2)*%
X126250000Y-88750000D03*
D16*
%TO.P,D6,1*%
%TO.N,Net-(D3-Pad1)*%
X123710000Y-88750000D03*
%TD*%
D14*
%TO.P,D5,2*%
%TO.N,Net-(D5-Pad2)*%
X119770000Y-90800295D03*
%TA.AperFunction,ComponentPad*%
D15*
%TO.P,D5,1*%
%TO.N,Net-(D3-Pad1)*%
G36*
X118829423Y-94229423D02*
G01*
X117270577Y-93329423D01*
X118170577Y-91770577D01*
X119729423Y-92670577D01*
X118829423Y-94229423D01*
G37*
%TD.AperFunction*%
%TD*%
D14*
%TO.P,D4,2*%
%TO.N,Net-(D4-Pad2)*%
X131270000Y-93199705D03*
%TA.AperFunction,ComponentPad*%
D15*
%TO.P,D4,1*%
%TO.N,Net-(D3-Pad1)*%
G36*
X128770577Y-90670577D02*
G01*
X130329423Y-89770577D01*
X131229423Y-91329423D01*
X129670577Y-92229423D01*
X128770577Y-90670577D01*
G37*
%TD.AperFunction*%
%TD*%
D14*
%TO.P,D3,2*%
%TO.N,Net-(D3-Pad2)*%
X129980000Y-99199705D03*
%TA.AperFunction,ComponentPad*%
D15*
%TO.P,D3,1*%
%TO.N,Net-(D3-Pad1)*%
G36*
X130920577Y-95770577D02*
G01*
X132479423Y-96670577D01*
X131579423Y-98229423D01*
X130020577Y-97329423D01*
X130920577Y-95770577D01*
G37*
%TD.AperFunction*%
%TD*%
D12*
%TO.P,J7,1*%
%TO.N,GND*%
X133920000Y-74000000D03*
D11*
%TO.P,J7,2*%
%TO.N,Net-(D1-Pad1)*%
X136460000Y-74000000D03*
%TO.P,J7,3*%
%TO.N,Net-(J7-Pad3)*%
X139000000Y-74000000D03*
%TD*%
D17*
%TO.N,GND*%
X123250000Y-104500000D03*
X120500000Y-104500000D03*
D18*
X104250000Y-106250000D03*
X101250000Y-106250000D03*
X91500000Y-108750000D03*
X82000000Y-108750000D03*
X91500000Y-111500000D03*
X82000000Y-111500000D03*
D17*
%TO.N,+5V*%
X131000000Y-72500000D03*
D18*
X132250000Y-83250000D03*
D17*
X78250000Y-89500000D03*
%TO.N,Net-(C3-Pad1)*%
X86000000Y-106500000D03*
X84000000Y-106500000D03*
X88250000Y-106500000D03*
X84750000Y-110100000D03*
X87250000Y-110100000D03*
X100250000Y-103500000D03*
D18*
%TO.N,+3V3*%
X94940000Y-76940000D03*
X93500000Y-99000000D03*
X93500000Y-100250000D03*
X93500000Y-101500000D03*
X120000000Y-87500000D03*
X115000000Y-99000000D03*
X118750000Y-78250000D03*
X116750000Y-95250000D03*
X98250000Y-101750000D03*
X106750000Y-95250000D03*
X108500000Y-99500000D03*
X84000000Y-88250000D03*
X89500000Y-75500000D03*
X132000000Y-108500000D03*
X82500000Y-75750000D03*
%TO.N,Net-(D1-Pad1)*%
X128750000Y-76000000D03*
X95500000Y-101750000D03*
%TO.N,/ON-OFF*%
X93000000Y-93000000D03*
X98024990Y-87125000D03*
X79750000Y-101250000D03*
%TO.N,Net-(D7-Pad2)*%
X122250000Y-98250000D03*
%TO.N,/LED_RX*%
X109250000Y-95250000D03*
X109250000Y-91000000D03*
X104250000Y-91000000D03*
%TO.N,/LED_INF*%
X111516160Y-95266160D03*
X111500000Y-91000000D03*
%TO.N,/LED_TX*%
X113750000Y-95250000D03*
X111750000Y-85250000D03*
%TO.N,/SCL*%
X111750000Y-82000000D03*
%TO.N,/HCSR501*%
X94750000Y-85000000D03*
%TO.N,/TX_CC*%
X115250000Y-88250000D03*
%TO.N,/RX_CC*%
X115250000Y-89500000D03*
X132000000Y-105500000D03*
%TO.N,/RST_CC*%
X115250000Y-87000000D03*
X132000000Y-103500000D03*
%TO.N,Net-(J22-Pad1)*%
X119000000Y-85750000D03*
%TO.N,Net-(Q1-Pad1)*%
X80000000Y-104000000D03*
X86750000Y-103500000D03*
%TO.N,/RX_RF*%
X98250000Y-89500000D03*
X129250000Y-77500000D03*
%TO.N,/TX_IR*%
X112250000Y-104500000D03*
X100250000Y-97000000D03*
%TO.N,Net-(J8-Pad3)*%
X108500000Y-101500000D03*
%TD*%
D19*
%TO.N,GND*%
X120500000Y-104500000D02*
X123250000Y-104500000D01*
X104250000Y-106250000D02*
X101250000Y-106250000D01*
X91500000Y-108750000D02*
X82000000Y-108750000D01*
X91500000Y-111500000D02*
X82000000Y-111500000D01*
D20*
%TO.N,+5V*%
X82000000Y-98500000D02*
X79250000Y-98500000D01*
X79250000Y-98500000D02*
X79000000Y-98250000D01*
X78250000Y-97500000D02*
X79250000Y-98500000D01*
X78250000Y-89500000D02*
X78250000Y-97500000D01*
D21*
X131000000Y-80500000D02*
X131000000Y-72500000D01*
X132250000Y-83250000D02*
X132250000Y-81500000D01*
X132250000Y-81500000D02*
X131000000Y-80500000D01*
%TO.N,Net-(C3-Pad1)*%
X108250000Y-100500000D02*
X109750000Y-100500000D01*
X105750000Y-95250000D02*
X105750000Y-98000000D01*
D22*
%TO.N,+3V3*%
X88000000Y-97500000D02*
X86500000Y-97500000D01*
X86500000Y-97500000D02*
X86000000Y-97000000D01*
X86000000Y-85750000D02*
X86000000Y-76750000D01*
X88000000Y-97500000D02*
X93000000Y-97500000D01*
X93500000Y-98000000D02*
X93500000Y-99000000D01*
X93000000Y-97500000D02*
X93500000Y-98000000D01*
D21*
X120000000Y-87500000D02*
X117250000Y-87500000D01*
X117250000Y-87500000D02*
X116945567Y-87804433D01*
X116945567Y-87804433D02*
X116750000Y-88000000D01*
X116750000Y-88000000D02*
X116750000Y-95250000D01*
X147000000Y-108750000D02*
X145000000Y-108750000D01*
X106750000Y-95250000D02*
X106750000Y-95750000D01*
D22*
X94940000Y-76940000D02*
X93440000Y-76940000D01*
X93440000Y-76940000D02*
X93000000Y-76500000D01*
D21*
X115000000Y-99000000D02*
X108750000Y-99000000D01*
X118250000Y-107000000D02*
X118250000Y-110000000D01*
X117000000Y-105750000D02*
X118250000Y-107000000D01*
X115000000Y-99000000D02*
X117000000Y-101000000D01*
X117000000Y-101000000D02*
X117000000Y-105750000D01*
X108500000Y-97500000D02*
X108125000Y-97125000D01*
X106750000Y-95750000D02*
X108125000Y-97125000D01*
X108500000Y-99500000D02*
X108500000Y-99000000D01*
X108750000Y-99000000D02*
X108500000Y-99000000D01*
X108500000Y-99000000D02*
X108500000Y-97500000D01*
X86040000Y-85710000D02*
X86000000Y-85750000D01*
X88000000Y-85710000D02*
X86040000Y-85710000D01*
X86000000Y-88250000D02*
X84000000Y-88250000D01*
D22*
X86000000Y-97000000D02*
X86000000Y-88250000D01*
X86000000Y-88250000D02*
X86000000Y-85750000D01*
D21*
X129250000Y-79000000D02*
X128375000Y-78125000D01*
X129250000Y-83250000D02*
X129250000Y-79000000D01*
X128500000Y-78250000D02*
X128375000Y-78125000D01*
X128375000Y-78125000D02*
X127750000Y-77500000D01*
D22*
X87500000Y-76500000D02*
X86000000Y-76500000D01*
X98250000Y-109250000D02*
X99000000Y-110000000D01*
X98250000Y-101750000D02*
X98250000Y-109250000D01*
X99000000Y-110000000D02*
X118250000Y-110000000D01*
X86000000Y-76750000D02*
X86000000Y-76500000D01*
X93000000Y-76500000D02*
X89500000Y-76500000D01*
X89500000Y-76500000D02*
X87500000Y-76500000D01*
D21*
X89500000Y-75500000D02*
X89500000Y-76500000D01*
D22*
X124500000Y-108500000D02*
X123000000Y-110000000D01*
X132000000Y-108500000D02*
X124500000Y-108500000D01*
X118250000Y-110000000D02*
X123000000Y-110000000D01*
D21*
X127750000Y-77500000D02*
X119500000Y-77500000D01*
X118750000Y-78250000D02*
X119500000Y-77500000D01*
D22*
X86000000Y-76250000D02*
X86000000Y-76500000D01*
X86000000Y-76000000D02*
X86000000Y-76250000D01*
X85750000Y-75750000D02*
X86000000Y-76000000D01*
X82500000Y-75750000D02*
X85750000Y-75750000D01*
D21*
%TO.N,Net-(D1-Pad1)*%
X95500000Y-94000000D02*
X95500000Y-101750000D01*
X96500000Y-93000000D02*
X95500000Y-94000000D01*
X96500000Y-89250000D02*
X96500000Y-93000000D01*
X99750000Y-76000000D02*
X99000000Y-76750000D01*
X128750000Y-76000000D02*
X99750000Y-76000000D01*
X99000000Y-76750000D02*
X99000000Y-87750000D01*
X99000000Y-87750000D02*
X98250000Y-88250000D01*
X98250000Y-88250000D02*
X97500000Y-88250000D01*
X97500000Y-88250000D02*
X96500000Y-89250000D01*
%TO.N,/ON-OFF*%
X95750000Y-88834305D02*
X97459305Y-87125000D01*
X97459305Y-87125000D02*
X98024990Y-87125000D01*
X98125000Y-87125000D02*
X98024990Y-87125000D01*
X98250000Y-87000000D02*
X98125000Y-87125000D01*
X95750000Y-90250000D02*
X95750000Y-88834305D01*
X93000000Y-93000000D02*
X94750000Y-93000000D01*
X95000000Y-93000000D02*
X95750000Y-92250000D01*
X95750000Y-90250000D02*
X95750000Y-92250000D01*
X94750000Y-93000000D02*
X95000000Y-93000000D01*
X94750000Y-93250000D02*
X94750000Y-93000000D01*
X79750000Y-101250000D02*
X88000000Y-101250000D01*
X94750000Y-102000000D02*
X94750000Y-93250000D01*
X89250000Y-102500000D02*
X94250000Y-102500000D01*
X88000000Y-101250000D02*
X89250000Y-102500000D01*
X94250000Y-102500000D02*
X94750000Y-102000000D01*
%TO.N,Net-(D3-Pad2)*%
X129750000Y-99000000D02*
X130000000Y-99250000D01*
%TO.N,Net-(D3-Pad1)*%
X118500000Y-93000000D02*
X120000000Y-93000000D01*
X120000000Y-93000000D02*
X120125000Y-93125000D01*
X130000000Y-91000000D02*
X129250000Y-91750000D01*
X121000000Y-94000000D02*
X120125000Y-93125000D01*
X123710000Y-90460000D02*
X124250000Y-91000000D01*
X123710000Y-88750000D02*
X123710000Y-90460000D01*
X130000000Y-91000000D02*
X124250000Y-91000000D01*
X121000000Y-97750000D02*
X121000000Y-97500000D01*
X121000000Y-97500000D02*
X121000000Y-96000000D01*
X121000000Y-96000000D02*
X121000000Y-94000000D01*
D19*
X131250000Y-97000000D02*
X129250000Y-97000000D01*
D21*
X129250000Y-91750000D02*
X129250000Y-97000000D01*
D19*
X129250000Y-97000000D02*
X126500000Y-97000000D01*
X126500000Y-97000000D02*
X121750000Y-97000000D01*
X121750000Y-97000000D02*
X120750000Y-98000000D01*
X119750000Y-99000000D02*
X120750000Y-98000000D01*
X120750000Y-98000000D02*
X121000000Y-97750000D01*
X126250000Y-99250000D02*
X126250000Y-97000000D01*
X126250000Y-101000000D02*
X126250000Y-99250000D01*
D21*
%TO.N,Net-(D7-Pad2)*%
X123710000Y-101000000D02*
X123710000Y-99710000D01*
X123710000Y-99710000D02*
X122250000Y-98250000D01*
%TO.N,/LED_RX*%
X109250000Y-92750000D02*
X109250000Y-91000000D01*
X109250000Y-92750000D02*
X109250000Y-94000000D01*
X109250000Y-94000000D02*
X109250000Y-95250000D01*
X104250000Y-94250000D02*
X104250000Y-96250000D01*
X104250000Y-94250000D02*
X104250000Y-91000000D01*
%TO.N,/LED_INF*%
X111500000Y-95250000D02*
X111516160Y-95266160D01*
X111500000Y-91000000D02*
X111500000Y-95250000D01*
%TO.N,/LED_TX*%
X113250000Y-85250000D02*
X113750000Y-85750000D01*
X111750000Y-85250000D02*
X113250000Y-85250000D01*
X113750000Y-85750000D02*
X113750000Y-95250000D01*
%TO.N,/SCL*%
X124250000Y-82500000D02*
X123750000Y-82000000D01*
X124250000Y-83250000D02*
X124250000Y-82500000D01*
X111750000Y-82000000D02*
X123750000Y-82000000D01*
%TO.N,/HCSR501*%
X88000000Y-90750000D02*
X88000000Y-92500000D01*
X88250000Y-90500000D02*
X88000000Y-90750000D01*
X94000000Y-90000000D02*
X93500000Y-90500000D01*
X94750000Y-85000000D02*
X94000000Y-85750000D01*
X93500000Y-90500000D02*
X88250000Y-90500000D01*
X94000000Y-85750000D02*
X94000000Y-90000000D01*
%TO.N,/TX_CC*%
X114750000Y-95000000D02*
X114250000Y-94500000D01*
X114750000Y-97500000D02*
X114750000Y-95000000D01*
X114750000Y-88250000D02*
X115250000Y-88250000D01*
X114250000Y-94500000D02*
X114250000Y-88750000D01*
X114250000Y-88750000D02*
X114750000Y-88250000D01*
X117750000Y-100500000D02*
X114750000Y-97500000D01*
X117750000Y-105500000D02*
X117750000Y-100500000D01*
X138630000Y-107500000D02*
X132500000Y-107500000D01*
X139880000Y-108750000D02*
X138630000Y-107500000D01*
X119750000Y-107500000D02*
X118500000Y-106250000D01*
X132500000Y-107500000D02*
X119750000Y-107500000D01*
X119000000Y-106750000D02*
X118500000Y-106250000D01*
X118500000Y-106250000D02*
X117750000Y-105500000D01*
%TO.N,/RX_CC*%
X115250000Y-97250000D02*
X115250000Y-89500000D01*
X118250000Y-100250000D02*
X115250000Y-97250000D01*
X118750000Y-105500000D02*
X118250000Y-105000000D01*
X132000000Y-105500000D02*
X118750000Y-105500000D01*
X118250000Y-105000000D02*
X118250000Y-100250000D01*
%TO.N,/RST_CC*%
X115250000Y-87000000D02*
X115750000Y-87000000D01*
X115750000Y-87000000D02*
X116000000Y-87250000D01*
X116000000Y-87250000D02*
X116000000Y-97000000D01*
X116000000Y-97000000D02*
X116000000Y-97250000D01*
X116000000Y-97250000D02*
X116750000Y-98000000D01*
X116750000Y-98000000D02*
X117750000Y-99000000D01*
X117750000Y-99000000D02*
X118750000Y-100000000D01*
X119250000Y-103500000D02*
X118750000Y-103000000D01*
X124000000Y-103500000D02*
X119250000Y-103500000D01*
X118750000Y-100000000D02*
X118750000Y-103000000D01*
X132000000Y-103500000D02*
X124000000Y-103500000D01*
%TO.N,Net-(J22-Pad1)*%
X119675000Y-85075000D02*
X119000000Y-85750000D01*
X120575000Y-85075000D02*
X119675000Y-85075000D01*
X120750000Y-85000000D02*
X120575000Y-85075000D01*
X130250000Y-85000000D02*
X120750000Y-85000000D01*
X130250000Y-81250000D02*
X131000000Y-82000000D01*
X127005080Y-74250000D02*
X129750000Y-74250000D01*
X129750000Y-74250000D02*
X130250000Y-74750000D01*
X131000000Y-82000000D02*
X131000000Y-84250000D01*
X130250000Y-74750000D02*
X130250000Y-81250000D01*
X131000000Y-84250000D02*
X130250000Y-85000000D01*
%TO.N,Net-(Q1-Pad1)*%
X80500000Y-103500000D02*
X80000000Y-104000000D01*
X86750000Y-103500000D02*
X80500000Y-103500000D01*
%TO.N,/RX_RF*%
X99500000Y-89250000D02*
X99250000Y-89500000D01*
X99500000Y-77500000D02*
X99500000Y-89250000D01*
X100250000Y-76750000D02*
X99500000Y-77500000D01*
X128750000Y-77500000D02*
X128000000Y-76750000D01*
X99250000Y-89500000D02*
X98250000Y-89500000D01*
X129250000Y-77500000D02*
X128750000Y-77500000D01*
X128000000Y-76750000D02*
X100250000Y-76750000D01*
%TO.N,/TX_IR*%
X100250000Y-100500000D02*
X100250000Y-97000000D01*
X102250000Y-102500000D02*
X100250000Y-100500000D01*
X112250000Y-103000000D02*
X111750000Y-102500000D01*
X111750000Y-102500000D02*
X102250000Y-102500000D01*
X112250000Y-104500000D02*
X112250000Y-103000000D01*
%TO.N,Net-(J8-Pad3)*%
X108500000Y-101500000D02*
X113000000Y-101500000D01*
X113766600Y-102266600D02*
X113766600Y-107579160D01*
X113000000Y-101500000D02*
X113766600Y-102266600D01*
%TD*%
D23*
%TO.N,Net-(C3-Pad1)*%
X153873000Y-112373000D02*
X92056414Y-112373000D01*
X92159774Y-112303937D01*
X92303937Y-112159774D01*
X92417205Y-111990256D01*
X92495226Y-111801898D01*
X92535000Y-111601939D01*
X92535000Y-111398061D01*
X92495226Y-111198102D01*
X92417205Y-111009744D01*
X92303937Y-110840226D01*
X92159774Y-110696063D01*
X91990256Y-110582795D01*
X91801898Y-110504774D01*
X91601939Y-110465000D01*
X91398061Y-110465000D01*
X91198102Y-110504774D01*
X91009744Y-110582795D01*
X90961546Y-110615000D01*
X82538454Y-110615000D01*
X82490256Y-110582795D01*
X82301898Y-110504774D01*
X82101939Y-110465000D01*
X81898061Y-110465000D01*
X81698102Y-110504774D01*
X81509744Y-110582795D01*
X81340226Y-110696063D01*
X81196063Y-110840226D01*
X81082795Y-111009744D01*
X81004774Y-111198102D01*
X80965000Y-111398061D01*
X80965000Y-111601939D01*
X81004774Y-111801898D01*
X81082795Y-111990256D01*
X81196063Y-112159774D01*
X81340226Y-112303937D01*
X81443586Y-112373000D01*
X75127000Y-112373000D01*
X75127000Y-108779872D01*
X76515000Y-108779872D01*
X76515000Y-109220128D01*
X76600890Y-109651925D01*
X76769369Y-110058669D01*
X77013962Y-110424729D01*
X77325271Y-110736038D01*
X77691331Y-110980631D01*
X78098075Y-111149110D01*
X78529872Y-111235000D01*
X78970128Y-111235000D01*
X79401925Y-111149110D01*
X79808669Y-110980631D01*
X80174729Y-110736038D01*
X80486038Y-110424729D01*
X80730631Y-110058669D01*
X80899110Y-109651925D01*
X80985000Y-109220128D01*
X80985000Y-108952487D01*
X81004774Y-109051898D01*
X81082795Y-109240256D01*
X81196063Y-109409774D01*
X81340226Y-109553937D01*
X81509744Y-109667205D01*
X81698102Y-109745226D01*
X81898061Y-109785000D01*
X82101939Y-109785000D01*
X82301898Y-109745226D01*
X82490256Y-109667205D01*
X82538454Y-109635000D01*
X90961546Y-109635000D01*
X91009744Y-109667205D01*
X91198102Y-109745226D01*
X91398061Y-109785000D01*
X91601939Y-109785000D01*
X91801898Y-109745226D01*
X91990256Y-109667205D01*
X92159774Y-109553937D01*
X92303937Y-109409774D01*
X92417205Y-109240256D01*
X92495226Y-109051898D01*
X92535000Y-108851939D01*
X92535000Y-108648061D01*
X92495226Y-108448102D01*
X92417205Y-108259744D01*
X92303937Y-108090226D01*
X92159774Y-107946063D01*
X91990256Y-107832795D01*
X91801898Y-107754774D01*
X91601939Y-107715000D01*
X91398061Y-107715000D01*
X91198102Y-107754774D01*
X91009744Y-107832795D01*
X90961546Y-107865000D01*
X82538454Y-107865000D01*
X82490256Y-107832795D01*
X82301898Y-107754774D01*
X82101939Y-107715000D01*
X81898061Y-107715000D01*
X81698102Y-107754774D01*
X81509744Y-107832795D01*
X81340226Y-107946063D01*
X81196063Y-108090226D01*
X81082795Y-108259744D01*
X81004774Y-108448102D01*
X80965000Y-108648061D01*
X80965000Y-108679325D01*
X80899110Y-108348075D01*
X80730631Y-107941331D01*
X80486038Y-107575271D01*
X80174729Y-107263962D01*
X79808669Y-107019369D01*
X79401925Y-106850890D01*
X78970128Y-106765000D01*
X78529872Y-106765000D01*
X78098075Y-106850890D01*
X77691331Y-107019369D01*
X77325271Y-107263962D01*
X77013962Y-107575271D01*
X76769369Y-107941331D01*
X76600890Y-108348075D01*
X76515000Y-108779872D01*
X75127000Y-108779872D01*
X75127000Y-103898061D01*
X78965000Y-103898061D01*
X78965000Y-104101939D01*
X79004774Y-104301898D01*
X79082795Y-104490256D01*
X79196063Y-104659774D01*
X79340226Y-104803937D01*
X79509744Y-104917205D01*
X79698102Y-104995226D01*
X79898061Y-105035000D01*
X80101939Y-105035000D01*
X80301898Y-104995226D01*
X80490256Y-104917205D01*
X80659774Y-104803937D01*
X80803937Y-104659774D01*
X80917205Y-104490256D01*
X80995226Y-104301898D01*
X81003560Y-104260000D01*
X86046289Y-104260000D01*
X86090226Y-104303937D01*
X86259744Y-104417205D01*
X86448102Y-104495226D01*
X86648061Y-104535000D01*
X86851939Y-104535000D01*
X87051898Y-104495226D01*
X87240256Y-104417205D01*
X87409774Y-104303937D01*
X87553937Y-104159774D01*
X87667205Y-103990256D01*
X87745226Y-103801898D01*
X87785000Y-103601939D01*
X87785000Y-103398061D01*
X87745226Y-103198102D01*
X87667205Y-103009744D01*
X87553937Y-102840226D01*
X87409774Y-102696063D01*
X87240256Y-102582795D01*
X87051898Y-102504774D01*
X86851939Y-102465000D01*
X86648061Y-102465000D01*
X86448102Y-102504774D01*
X86259744Y-102582795D01*
X86090226Y-102696063D01*
X86046289Y-102740000D01*
X80537325Y-102740000D01*
X80500000Y-102736324D01*
X80462675Y-102740000D01*
X80462667Y-102740000D01*
X80351014Y-102750997D01*
X80207753Y-102794454D01*
X80075724Y-102865026D01*
X79959999Y-102959999D01*
X79955895Y-102965000D01*
X79898061Y-102965000D01*
X79698102Y-103004774D01*
X79509744Y-103082795D01*
X79340226Y-103196063D01*
X79196063Y-103340226D01*
X79082795Y-103509744D01*
X79004774Y-103698102D01*
X78965000Y-103898061D01*
X75127000Y-103898061D01*
X75127000Y-101148061D01*
X78715000Y-101148061D01*
X78715000Y-101351939D01*
X78754774Y-101551898D01*
X78832795Y-101740256D01*
X78946063Y-101909774D01*
X79090226Y-102053937D01*
X79259744Y-102167205D01*
X79448102Y-102245226D01*
X79648061Y-102285000D01*
X79851939Y-102285000D01*
X80051898Y-102245226D01*
X80240256Y-102167205D01*
X80409774Y-102053937D01*
X80453711Y-102010000D01*
X87685199Y-102010000D01*
X88686200Y-103011002D01*
X88709999Y-103040001D01*
X88738997Y-103063799D01*
X88825723Y-103134974D01*
X88940012Y-103196063D01*
X88957753Y-103205546D01*
X89101014Y-103249003D01*
X89212667Y-103260000D01*
X89212677Y-103260000D01*
X89250000Y-103263676D01*
X89287323Y-103260000D01*
X94212678Y-103260000D01*
X94250000Y-103263676D01*
X94287322Y-103260000D01*
X94287333Y-103260000D01*
X94398986Y-103249003D01*
X94542247Y-103205546D01*
X94674276Y-103134974D01*
X94790001Y-103040001D01*
X94813804Y-103010997D01*
X95114291Y-102710510D01*
X95198102Y-102745226D01*
X95398061Y-102785000D01*
X95601939Y-102785000D01*
X95801898Y-102745226D01*
X95990256Y-102667205D01*
X96159774Y-102553937D01*
X96303937Y-102409774D01*
X96417205Y-102240256D01*
X96495226Y-102051898D01*
X96535000Y-101851939D01*
X96535000Y-101648061D01*
X96495226Y-101448102D01*
X96417205Y-101259744D01*
X96303937Y-101090226D01*
X96260000Y-101046289D01*
X96260000Y-94314801D01*
X97011003Y-93563799D01*
X97040001Y-93540001D01*
X97134974Y-93424276D01*
X97205546Y-93292247D01*
X97249003Y-93148986D01*
X97260000Y-93037333D01*
X97263677Y-93000000D01*
X97260000Y-92962667D01*
X97260000Y-89814515D01*
X97332795Y-89990256D01*
X97446063Y-90159774D01*
X97590226Y-90303937D01*
X97759744Y-90417205D01*
X97948102Y-90495226D01*
X98148061Y-90535000D01*
X98351939Y-90535000D01*
X98551898Y-90495226D01*
X98740256Y-90417205D01*
X98909774Y-90303937D01*
X98953711Y-90260000D01*
X99212678Y-90260000D01*
X99250000Y-90263676D01*
X99287322Y-90260000D01*
X99287333Y-90260000D01*
X99398986Y-90249003D01*
X99542247Y-90205546D01*
X99674276Y-90134974D01*
X99790001Y-90040001D01*
X99813803Y-90010998D01*
X100011003Y-89813799D01*
X100040001Y-89790001D01*
X100134974Y-89674276D01*
X100205546Y-89542247D01*
X100249003Y-89398986D01*
X100260000Y-89287333D01*
X100260000Y-89287324D01*
X100263676Y-89250001D01*
X100260000Y-89212678D01*
X100260000Y-77814801D01*
X100564802Y-77510000D01*
X118026289Y-77510000D01*
X117946063Y-77590226D01*
X117832795Y-77759744D01*
X117754774Y-77948102D01*
X117715000Y-78148061D01*
X117715000Y-78351939D01*
X117754774Y-78551898D01*
X117832795Y-78740256D01*
X117946063Y-78909774D01*
X118090226Y-79053937D01*
X118259744Y-79167205D01*
X118448102Y-79245226D01*
X118648061Y-79285000D01*
X118851939Y-79285000D01*
X119051898Y-79245226D01*
X119240256Y-79167205D01*
X119409774Y-79053937D01*
X119553937Y-78909774D01*
X119667205Y-78740256D01*
X119745226Y-78551898D01*
X119785000Y-78351939D01*
X119785000Y-78289802D01*
X119814802Y-78260000D01*
X122880994Y-78260000D01*
X122875408Y-78316720D01*
X122875408Y-80016720D01*
X122887668Y-80141202D01*
X122923978Y-80260900D01*
X122982943Y-80371214D01*
X123062295Y-80467905D01*
X123158986Y-80547257D01*
X123269300Y-80606222D01*
X123388998Y-80642532D01*
X123513480Y-80654792D01*
X125213480Y-80654792D01*
X125337962Y-80642532D01*
X125457660Y-80606222D01*
X125567974Y-80547257D01*
X125664665Y-80467905D01*
X125744017Y-80371214D01*
X125802982Y-80260900D01*
X125824993Y-80188340D01*
X125956848Y-80320195D01*
X126200069Y-80482710D01*
X126470322Y-80594652D01*
X126757220Y-80651720D01*
X127049740Y-80651720D01*
X127336638Y-80594652D01*
X127606891Y-80482710D01*
X127850112Y-80320195D01*
X128056955Y-80113352D01*
X128219470Y-79870131D01*
X128331412Y-79599878D01*
X128388480Y-79312980D01*
X128388480Y-79213282D01*
X128490001Y-79314803D01*
X128490000Y-81761928D01*
X128400000Y-81761928D01*
X128275518Y-81774188D01*
X128155820Y-81810498D01*
X128045506Y-81869463D01*
X128000000Y-81906809D01*
X127954494Y-81869463D01*
X127844180Y-81810498D01*
X127724482Y-81774188D01*
X127600000Y-81761928D01*
X125900000Y-81761928D01*
X125775518Y-81774188D01*
X125655820Y-81810498D01*
X125545506Y-81869463D01*
X125500000Y-81906809D01*
X125454494Y-81869463D01*
X125344180Y-81810498D01*
X125224482Y-81774188D01*
X125100000Y-81761928D01*
X124586729Y-81761928D01*
X124313804Y-81489003D01*
X124290001Y-81459999D01*
X124174276Y-81365026D01*
X124042247Y-81294454D01*
X123898986Y-81250997D01*
X123787333Y-81240000D01*
X123787322Y-81240000D01*
X123750000Y-81236324D01*
X123712678Y-81240000D01*
X112453711Y-81240000D01*
X112409774Y-81196063D01*
X112240256Y-81082795D01*
X112051898Y-81004774D01*
X111851939Y-80965000D01*
X111648061Y-80965000D01*
X111448102Y-81004774D01*
X111259744Y-81082795D01*
X111090226Y-81196063D01*
X110946063Y-81340226D01*
X110832795Y-81509744D01*
X110754774Y-81698102D01*
X110715000Y-81898061D01*
X110715000Y-82101939D01*
X110754774Y-82301898D01*
X110832795Y-82490256D01*
X110946063Y-82659774D01*
X111090226Y-82803937D01*
X111259744Y-82917205D01*
X111448102Y-82995226D01*
X111648061Y-83035000D01*
X111851939Y-83035000D01*
X112051898Y-82995226D01*
X112240256Y-82917205D01*
X112409774Y-82803937D01*
X112453711Y-82760000D01*
X120261928Y-82760000D01*
X120261928Y-84100000D01*
X120274188Y-84224482D01*
X120301646Y-84315000D01*
X119712322Y-84315000D01*
X119674999Y-84311324D01*
X119637676Y-84315000D01*
X119637667Y-84315000D01*
X119526014Y-84325997D01*
X119397347Y-84365027D01*
X119382753Y-84369454D01*
X119250723Y-84440026D01*
X119176429Y-84500998D01*
X119134999Y-84534999D01*
X119111200Y-84563998D01*
X118960198Y-84715000D01*
X118898061Y-84715000D01*
X118698102Y-84754774D01*
X118509744Y-84832795D01*
X118340226Y-84946063D01*
X118196063Y-85090226D01*
X118082795Y-85259744D01*
X118004774Y-85448102D01*
X117965000Y-85648061D01*
X117965000Y-85851939D01*
X118004774Y-86051898D01*
X118082795Y-86240256D01*
X118196063Y-86409774D01*
X118340226Y-86553937D01*
X118509744Y-86667205D01*
X118685485Y-86740000D01*
X117287322Y-86740000D01*
X117249999Y-86736324D01*
X117212676Y-86740000D01*
X117212667Y-86740000D01*
X117101014Y-86750997D01*
X116957753Y-86794454D01*
X116825724Y-86865026D01*
X116709999Y-86959999D01*
X116707245Y-86963355D01*
X116705546Y-86957753D01*
X116634974Y-86825724D01*
X116540001Y-86709999D01*
X116511003Y-86686201D01*
X116313803Y-86489002D01*
X116290001Y-86459999D01*
X116174276Y-86365026D01*
X116042247Y-86294454D01*
X115993325Y-86279614D01*
X115909774Y-86196063D01*
X115740256Y-86082795D01*
X115551898Y-86004774D01*
X115351939Y-85965000D01*
X115148061Y-85965000D01*
X114948102Y-86004774D01*
X114759744Y-86082795D01*
X114590226Y-86196063D01*
X114510000Y-86276289D01*
X114510000Y-85787325D01*
X114513676Y-85750000D01*
X114510000Y-85712675D01*
X114510000Y-85712667D01*
X114499003Y-85601014D01*
X114455546Y-85457753D01*
X114384974Y-85325724D01*
X114290001Y-85209999D01*
X114260998Y-85186197D01*
X113813804Y-84739003D01*
X113790001Y-84709999D01*
X113674276Y-84615026D01*
X113542247Y-84544454D01*
X113398986Y-84500997D01*
X113287333Y-84490000D01*
X113287322Y-84490000D01*
X113250000Y-84486324D01*
X113212678Y-84490000D01*
X112453711Y-84490000D01*
X112409774Y-84446063D01*
X112240256Y-84332795D01*
X112051898Y-84254774D01*
X111851939Y-84215000D01*
X111648061Y-84215000D01*
X111448102Y-84254774D01*
X111259744Y-84332795D01*
X111090226Y-84446063D01*
X110946063Y-84590226D01*
X110832795Y-84759744D01*
X110754774Y-84948102D01*
X110715000Y-85148061D01*
X110715000Y-85351939D01*
X110754774Y-85551898D01*
X110832795Y-85740256D01*
X110946063Y-85909774D01*
X111090226Y-86053937D01*
X111259744Y-86167205D01*
X111448102Y-86245226D01*
X111648061Y-86285000D01*
X111851939Y-86285000D01*
X112051898Y-86245226D01*
X112240256Y-86167205D01*
X112409774Y-86053937D01*
X112453711Y-86010000D01*
X112935199Y-86010000D01*
X112990000Y-86064801D01*
X112990001Y-94546288D01*
X112946063Y-94590226D01*
X112832795Y-94759744D01*
X112754774Y-94948102D01*
X112715000Y-95148061D01*
X112715000Y-95351939D01*
X112754774Y-95551898D01*
X112832795Y-95740256D01*
X112946063Y-95909774D01*
X113090226Y-96053937D01*
X113259744Y-96167205D01*
X113448102Y-96245226D01*
X113648061Y-96285000D01*
X113851939Y-96285000D01*
X113990000Y-96257538D01*
X113990000Y-97462677D01*
X113986324Y-97500000D01*
X113990000Y-97537322D01*
X113990000Y-97537332D01*
X114000997Y-97648985D01*
X114035788Y-97763677D01*
X114044454Y-97792246D01*
X114115026Y-97924276D01*
X114134580Y-97948102D01*
X114209999Y-98040001D01*
X114239003Y-98063804D01*
X114358831Y-98183632D01*
X114340226Y-98196063D01*
X114296289Y-98240000D01*
X109260000Y-98240000D01*
X109260000Y-97537322D01*
X109263676Y-97499999D01*
X109260000Y-97462676D01*
X109260000Y-97462667D01*
X109249003Y-97351014D01*
X109205546Y-97207753D01*
X109134974Y-97075724D01*
X109040001Y-96959999D01*
X109010997Y-96936196D01*
X108688804Y-96614003D01*
X108688799Y-96613997D01*
X107710510Y-95635709D01*
X107745226Y-95551898D01*
X107785000Y-95351939D01*
X107785000Y-95148061D01*
X107745226Y-94948102D01*
X107667205Y-94759744D01*
X107553937Y-94590226D01*
X107409774Y-94446063D01*
X107240256Y-94332795D01*
X107051898Y-94254774D01*
X106851939Y-94215000D01*
X106648061Y-94215000D01*
X106448102Y-94254774D01*
X106259744Y-94332795D01*
X106090226Y-94446063D01*
X105946063Y-94590226D01*
X105832795Y-94759744D01*
X105754774Y-94948102D01*
X105715000Y-95148061D01*
X105715000Y-95239876D01*
X105689502Y-95155820D01*
X105630537Y-95045506D01*
X105551185Y-94948815D01*
X105454494Y-94869463D01*
X105344180Y-94810498D01*
X105224482Y-94774188D01*
X105100000Y-94761928D01*
X105010000Y-94761928D01*
X105010000Y-91703711D01*
X105053937Y-91659774D01*
X105167205Y-91490256D01*
X105245226Y-91301898D01*
X105285000Y-91101939D01*
X105285000Y-90898061D01*
X108215000Y-90898061D01*
X108215000Y-91101939D01*
X108254774Y-91301898D01*
X108332795Y-91490256D01*
X108446063Y-91659774D01*
X108490001Y-91703712D01*
X108490000Y-92712667D01*
X108490000Y-92712668D01*
X108490001Y-93962658D01*
X108490000Y-93962668D01*
X108490000Y-94546289D01*
X108446063Y-94590226D01*
X108332795Y-94759744D01*
X108254774Y-94948102D01*
X108215000Y-95148061D01*
X108215000Y-95351939D01*
X108254774Y-95551898D01*
X108332795Y-95740256D01*
X108446063Y-95909774D01*
X108590226Y-96053937D01*
X108759744Y-96167205D01*
X108948102Y-96245226D01*
X109148061Y-96285000D01*
X109351939Y-96285000D01*
X109551898Y-96245226D01*
X109740256Y-96167205D01*
X109909774Y-96053937D01*
X110053937Y-95909774D01*
X110167205Y-95740256D01*
X110245226Y-95551898D01*
X110285000Y-95351939D01*
X110285000Y-95148061D01*
X110245226Y-94948102D01*
X110167205Y-94759744D01*
X110053937Y-94590226D01*
X110010000Y-94546289D01*
X110010000Y-91703711D01*
X110053937Y-91659774D01*
X110167205Y-91490256D01*
X110245226Y-91301898D01*
X110285000Y-91101939D01*
X110285000Y-90898061D01*
X110465000Y-90898061D01*
X110465000Y-91101939D01*
X110504774Y-91301898D01*
X110582795Y-91490256D01*
X110696063Y-91659774D01*
X110740000Y-91703711D01*
X110740001Y-94578608D01*
X110712223Y-94606386D01*
X110598955Y-94775904D01*
X110520934Y-94964262D01*
X110481160Y-95164221D01*
X110481160Y-95368099D01*
X110520934Y-95568058D01*
X110598955Y-95756416D01*
X110712223Y-95925934D01*
X110856386Y-96070097D01*
X111025904Y-96183365D01*
X111214262Y-96261386D01*
X111414221Y-96301160D01*
X111618099Y-96301160D01*
X111818058Y-96261386D01*
X112006416Y-96183365D01*
X112175934Y-96070097D01*
X112320097Y-95925934D01*
X112433365Y-95756416D01*
X112511386Y-95568058D01*
X112551160Y-95368099D01*
X112551160Y-95164221D01*
X112511386Y-94964262D01*
X112433365Y-94775904D01*
X112320097Y-94606386D01*
X112260000Y-94546289D01*
X112260000Y-91703711D01*
X112303937Y-91659774D01*
X112417205Y-91490256D01*
X112495226Y-91301898D01*
X112535000Y-91101939D01*
X112535000Y-90898061D01*
X112495226Y-90698102D01*
X112417205Y-90509744D01*
X112303937Y-90340226D01*
X112159774Y-90196063D01*
X111990256Y-90082795D01*
X111801898Y-90004774D01*
X111601939Y-89965000D01*
X111398061Y-89965000D01*
X111198102Y-90004774D01*
X111009744Y-90082795D01*
X110840226Y-90196063D01*
X110696063Y-90340226D01*
X110582795Y-90509744D01*
X110504774Y-90698102D01*
X110465000Y-90898061D01*
X110285000Y-90898061D01*
X110245226Y-90698102D01*
X110167205Y-90509744D01*
X110053937Y-90340226D01*
X109909774Y-90196063D01*
X109740256Y-90082795D01*
X109551898Y-90004774D01*
X109351939Y-89965000D01*
X109148061Y-89965000D01*
X108948102Y-90004774D01*
X108759744Y-90082795D01*
X108590226Y-90196063D01*
X108446063Y-90340226D01*
X108332795Y-90509744D01*
X108254774Y-90698102D01*
X108215000Y-90898061D01*
X105285000Y-90898061D01*
X105245226Y-90698102D01*
X105167205Y-90509744D01*
X105053937Y-90340226D01*
X104909774Y-90196063D01*
X104740256Y-90082795D01*
X104551898Y-90004774D01*
X104351939Y-89965000D01*
X104148061Y-89965000D01*
X103948102Y-90004774D01*
X103759744Y-90082795D01*
X103590226Y-90196063D01*
X103446063Y-90340226D01*
X103332795Y-90509744D01*
X103254774Y-90698102D01*
X103215000Y-90898061D01*
X103215000Y-91101939D01*
X103254774Y-91301898D01*
X103332795Y-91490256D01*
X103446063Y-91659774D01*
X103490001Y-91703712D01*
X103490000Y-94212667D01*
X103490000Y-94761928D01*
X103400000Y-94761928D01*
X103275518Y-94774188D01*
X103155820Y-94810498D01*
X103045506Y-94869463D01*
X102948815Y-94948815D01*
X102869463Y-95045506D01*
X102810498Y-95155820D01*
X102788487Y-95228380D01*
X102656632Y-95096525D01*
X102413411Y-94934010D01*
X102143158Y-94822068D01*
X101856260Y-94765000D01*
X101563740Y-94765000D01*
X101276842Y-94822068D01*
X101006589Y-94934010D01*
X100763368Y-95096525D01*
X100556525Y-95303368D01*
X100394010Y-95546589D01*
X100282068Y-95816842D01*
X100252597Y-95965000D01*
X100148061Y-95965000D01*
X99948102Y-96004774D01*
X99759744Y-96082795D01*
X99590226Y-96196063D01*
X99446063Y-96340226D01*
X99332795Y-96509744D01*
X99254774Y-96698102D01*
X99215000Y-96898061D01*
X99215000Y-97101939D01*
X99254774Y-97301898D01*
X99332795Y-97490256D01*
X99446063Y-97659774D01*
X99490001Y-97703712D01*
X99490000Y-100462677D01*
X99486324Y-100500000D01*
X99490000Y-100537322D01*
X99490000Y-100537332D01*
X99500997Y-100648985D01*
X99531942Y-100750998D01*
X99544454Y-100792246D01*
X99615026Y-100924276D01*
X99646533Y-100962667D01*
X99709999Y-101040001D01*
X99739003Y-101063804D01*
X101686200Y-103011002D01*
X101709999Y-103040001D01*
X101738997Y-103063799D01*
X101825723Y-103134974D01*
X101940012Y-103196063D01*
X101957753Y-103205546D01*
X102101014Y-103249003D01*
X102212667Y-103260000D01*
X102212676Y-103260000D01*
X102249999Y-103263676D01*
X102287322Y-103260000D01*
X111435199Y-103260000D01*
X111490001Y-103314802D01*
X111490000Y-103796289D01*
X111446063Y-103840226D01*
X111332795Y-104009744D01*
X111254774Y-104198102D01*
X111215000Y-104398061D01*
X111215000Y-104601939D01*
X111254774Y-104801898D01*
X111332795Y-104990256D01*
X111446063Y-105159774D01*
X111590226Y-105303937D01*
X111759744Y-105417205D01*
X111948102Y-105495226D01*
X112148061Y-105535000D01*
X112351939Y-105535000D01*
X112551898Y-105495226D01*
X112740256Y-105417205D01*
X112909774Y-105303937D01*
X113006601Y-105207110D01*
X113006601Y-106300981D01*
X112819968Y-106425685D01*
X112613125Y-106632528D01*
X112496600Y-106806920D01*
X112380075Y-106632528D01*
X112173232Y-106425685D01*
X111930011Y-106263170D01*
X111659758Y-106151228D01*
X111372860Y-106094160D01*
X111080340Y-106094160D01*
X110793442Y-106151228D01*
X110523189Y-106263170D01*
X110279968Y-106425685D01*
X110148113Y-106557540D01*
X110126102Y-106484980D01*
X110067137Y-106374666D01*
X109987785Y-106277975D01*
X109891094Y-106198623D01*
X109780780Y-106139658D01*
X109661082Y-106103348D01*
X109536600Y-106091088D01*
X107836600Y-106091088D01*
X107712118Y-106103348D01*
X107592420Y-106139658D01*
X107482106Y-106198623D01*
X107385415Y-106277975D01*
X107306063Y-106374666D01*
X107247098Y-106484980D01*
X107210788Y-106604678D01*
X107198528Y-106729160D01*
X107198528Y-108429160D01*
X107210788Y-108553642D01*
X107247098Y-108673340D01*
X107306063Y-108783654D01*
X107385415Y-108880345D01*
X107482106Y-108959697D01*
X107592420Y-109018662D01*
X107712118Y-109054972D01*
X107836600Y-109067232D01*
X109536600Y-109067232D01*
X109661082Y-109054972D01*
X109780780Y-109018662D01*
X109891094Y-108959697D01*
X109987785Y-108880345D01*
X110067137Y-108783654D01*
X110126102Y-108673340D01*
X110148113Y-108600780D01*
X110279968Y-108732635D01*
X110523189Y-108895150D01*
X110793442Y-109007092D01*
X111080340Y-109064160D01*
X111372860Y-109064160D01*
X111659758Y-109007092D01*
X111930011Y-108895150D01*
X112173232Y-108732635D01*
X112380075Y-108525792D01*
X112496600Y-108351400D01*
X112613125Y-108525792D01*
X112819968Y-108732635D01*
X113063189Y-108895150D01*
X113333442Y-109007092D01*
X113620340Y-109064160D01*
X113912860Y-109064160D01*
X114199758Y-109007092D01*
X114470011Y-108895150D01*
X114713232Y-108732635D01*
X114920075Y-108525792D01*
X115036600Y-108351400D01*
X115153125Y-108525792D01*
X115359968Y-108732635D01*
X115603189Y-108895150D01*
X115873442Y-109007092D01*
X116160340Y-109064160D01*
X116452860Y-109064160D01*
X116739758Y-109007092D01*
X117010011Y-108895150D01*
X117253232Y-108732635D01*
X117460075Y-108525792D01*
X117490000Y-108481005D01*
X117490001Y-109140000D01*
X99356224Y-109140000D01*
X99110000Y-108893777D01*
X99110000Y-106148061D01*
X100215000Y-106148061D01*
X100215000Y-106351939D01*
X100254774Y-106551898D01*
X100332795Y-106740256D01*
X100446063Y-106909774D01*
X100590226Y-107053937D01*
X100759744Y-107167205D01*
X100948102Y-107245226D01*
X101148061Y-107285000D01*
X101351939Y-107285000D01*
X101551898Y-107245226D01*
X101740256Y-107167205D01*
X101788454Y-107135000D01*
X103711546Y-107135000D01*
X103759744Y-107167205D01*
X103948102Y-107245226D01*
X104148061Y-107285000D01*
X104351939Y-107285000D01*
X104551898Y-107245226D01*
X104740256Y-107167205D01*
X104909774Y-107053937D01*
X105053937Y-106909774D01*
X105167205Y-106740256D01*
X105245226Y-106551898D01*
X105285000Y-106351939D01*
X105285000Y-106148061D01*
X105245226Y-105948102D01*
X105167205Y-105759744D01*
X105053937Y-105590226D01*
X104909774Y-105446063D01*
X104740256Y-105332795D01*
X104551898Y-105254774D01*
X104351939Y-105215000D01*
X104148061Y-105215000D01*
X103948102Y-105254774D01*
X103759744Y-105332795D01*
X103711546Y-105365000D01*
X101788454Y-105365000D01*
X101740256Y-105332795D01*
X101551898Y-105254774D01*
X101351939Y-105215000D01*
X101148061Y-105215000D01*
X100948102Y-105254774D01*
X100759744Y-105332795D01*
X100590226Y-105446063D01*
X100446063Y-105590226D01*
X100332795Y-105759744D01*
X100254774Y-105948102D01*
X100215000Y-106148061D01*
X99110000Y-106148061D01*
X99110000Y-102325870D01*
X99167205Y-102240256D01*
X99245226Y-102051898D01*
X99285000Y-101851939D01*
X99285000Y-101648061D01*
X99245226Y-101448102D01*
X99167205Y-101259744D01*
X99053937Y-101090226D01*
X98909774Y-100946063D01*
X98740256Y-100832795D01*
X98551898Y-100754774D01*
X98351939Y-100715000D01*
X98148061Y-100715000D01*
X97948102Y-100754774D01*
X97759744Y-100832795D01*
X97590226Y-100946063D01*
X97446063Y-101090226D01*
X97332795Y-101259744D01*
X97254774Y-101448102D01*
X97215000Y-101648061D01*
X97215000Y-101851939D01*
X97254774Y-102051898D01*
X97332795Y-102240256D01*
X97390000Y-102325870D01*
X97390001Y-109207751D01*
X97385840Y-109250000D01*
X97402444Y-109418589D01*
X97433176Y-109519897D01*
X97451620Y-109580700D01*
X97531477Y-109730102D01*
X97638947Y-109861054D01*
X97671760Y-109887983D01*
X98362016Y-110578240D01*
X98388946Y-110611054D01*
X98519898Y-110718524D01*
X98669300Y-110798381D01*
X98782235Y-110832639D01*
X98831410Y-110847556D01*
X98848558Y-110849245D01*
X98957754Y-110860000D01*
X98957760Y-110860000D01*
X98999999Y-110864160D01*
X99042238Y-110860000D01*
X122957761Y-110860000D01*
X123000000Y-110864160D01*
X123042239Y-110860000D01*
X123042246Y-110860000D01*
X123168589Y-110847556D01*
X123330700Y-110798381D01*
X123480102Y-110718524D01*
X123611054Y-110611054D01*
X123637988Y-110578235D01*
X124856224Y-109360000D01*
X131424130Y-109360000D01*
X131509744Y-109417205D01*
X131698102Y-109495226D01*
X131898061Y-109535000D01*
X132101939Y-109535000D01*
X132301898Y-109495226D01*
X132490256Y-109417205D01*
X132659774Y-109303937D01*
X132803937Y-109159774D01*
X132917205Y-108990256D01*
X132995226Y-108801898D01*
X133035000Y-108601939D01*
X133035000Y-108398061D01*
X133007538Y-108260000D01*
X133606679Y-108260000D01*
X133559574Y-108373721D01*
X133510000Y-108622946D01*
X133510000Y-108877054D01*
X133559574Y-109126279D01*
X133656817Y-109361044D01*
X133797991Y-109572327D01*
X133977673Y-109752009D01*
X134188956Y-109893183D01*
X134423721Y-109990426D01*
X134672946Y-110040000D01*
X134927054Y-110040000D01*
X135176279Y-109990426D01*
X135411044Y-109893183D01*
X135622327Y-109752009D01*
X135802009Y-109572327D01*
X135943183Y-109361044D01*
X136040426Y-109126279D01*
X136070000Y-108977601D01*
X136099574Y-109126279D01*
X136196817Y-109361044D01*
X136337991Y-109572327D01*
X136517673Y-109752009D01*
X136728956Y-109893183D01*
X136963721Y-109990426D01*
X137212946Y-110040000D01*
X137467054Y-110040000D01*
X137716279Y-109990426D01*
X137951044Y-109893183D01*
X138162327Y-109752009D01*
X138342009Y-109572327D01*
X138483183Y-109361044D01*
X138580426Y-109126279D01*
X138610000Y-108977601D01*
X138639574Y-109126279D01*
X138736817Y-109361044D01*
X138877991Y-109572327D01*
X139057673Y-109752009D01*
X139268956Y-109893183D01*
X139503721Y-109990426D01*
X139752946Y-110040000D01*
X140007054Y-110040000D01*
X140256279Y-109990426D01*
X140491044Y-109893183D01*
X140702327Y-109752009D01*
X140882009Y-109572327D01*
X141023183Y-109361044D01*
X141120426Y-109126279D01*
X141150000Y-108977601D01*
X141179574Y-109126279D01*
X141276817Y-109361044D01*
X141417991Y-109572327D01*
X141597673Y-109752009D01*
X141808956Y-109893183D01*
X142043721Y-109990426D01*
X142292946Y-110040000D01*
X142547054Y-110040000D01*
X142796279Y-109990426D01*
X143031044Y-109893183D01*
X143242327Y-109752009D01*
X143422009Y-109572327D01*
X143563183Y-109361044D01*
X143660426Y-109126279D01*
X143690000Y-108977601D01*
X143719574Y-109126279D01*
X143816817Y-109361044D01*
X143957991Y-109572327D01*
X144137673Y-109752009D01*
X144348956Y-109893183D01*
X144583721Y-109990426D01*
X144832946Y-110040000D01*
X145087054Y-110040000D01*
X145336279Y-109990426D01*
X145571044Y-109893183D01*
X145782327Y-109752009D01*
X145962009Y-109572327D01*
X146003654Y-109510000D01*
X146282626Y-109510000D01*
X146356595Y-109648386D01*
X146467038Y-109782962D01*
X146601614Y-109893405D01*
X146755150Y-109975472D01*
X146921746Y-110026008D01*
X147095000Y-110043072D01*
X147905000Y-110043072D01*
X148078254Y-110026008D01*
X148244850Y-109975472D01*
X148398386Y-109893405D01*
X148532962Y-109782962D01*
X148643405Y-109648386D01*
X148725472Y-109494850D01*
X148776008Y-109328254D01*
X148793072Y-109155000D01*
X148793072Y-108345000D01*
X148776008Y-108171746D01*
X148725472Y-108005150D01*
X148643405Y-107851614D01*
X148532962Y-107717038D01*
X148398386Y-107606595D01*
X148244850Y-107524528D01*
X148078254Y-107473992D01*
X147905000Y-107456928D01*
X147843591Y-107456928D01*
X147876279Y-107450426D01*
X148111044Y-107353183D01*
X148322327Y-107212009D01*
X148502009Y-107032327D01*
X148643183Y-106821044D01*
X148740426Y-106586279D01*
X148790000Y-106337054D01*
X148790000Y-106082946D01*
X148740426Y-105833721D01*
X148643183Y-105598956D01*
X148502009Y-105387673D01*
X148322327Y-105207991D01*
X148111044Y-105066817D01*
X147876279Y-104969574D01*
X147627054Y-104920000D01*
X147372946Y-104920000D01*
X147123721Y-104969574D01*
X146888956Y-105066817D01*
X146677673Y-105207991D01*
X146497991Y-105387673D01*
X146356817Y-105598956D01*
X146259574Y-105833721D01*
X146230000Y-105982399D01*
X146200426Y-105833721D01*
X146103183Y-105598956D01*
X145962009Y-105387673D01*
X145782327Y-105207991D01*
X145571044Y-105066817D01*
X145336279Y-104969574D01*
X145087054Y-104920000D01*
X144832946Y-104920000D01*
X144583721Y-104969574D01*
X144348956Y-105066817D01*
X144137673Y-105207991D01*
X143957991Y-105387673D01*
X143816817Y-105598956D01*
X143719574Y-105833721D01*
X143690000Y-105982399D01*
X143660426Y-105833721D01*
X143563183Y-105598956D01*
X143422009Y-105387673D01*
X143242327Y-105207991D01*
X143031044Y-105066817D01*
X142796279Y-104969574D01*
X142547054Y-104920000D01*
X142292946Y-104920000D01*
X142043721Y-104969574D01*
X141808956Y-105066817D01*
X141597673Y-105207991D01*
X141417991Y-105387673D01*
X141276817Y-105598956D01*
X141179574Y-105833721D01*
X141150000Y-105982399D01*
X141120426Y-105833721D01*
X141023183Y-105598956D01*
X140882009Y-105387673D01*
X140702327Y-105207991D01*
X140491044Y-105066817D01*
X140256279Y-104969574D01*
X140007054Y-104920000D01*
X139752946Y-104920000D01*
X139503721Y-104969574D01*
X139268956Y-105066817D01*
X139057673Y-105207991D01*
X138877991Y-105387673D01*
X138736817Y-105598956D01*
X138639574Y-105833721D01*
X138610000Y-105982399D01*
X138580426Y-105833721D01*
X138483183Y-105598956D01*
X138342009Y-105387673D01*
X138162327Y-105207991D01*
X137951044Y-105066817D01*
X137716279Y-104969574D01*
X137467054Y-104920000D01*
X137212946Y-104920000D01*
X136963721Y-104969574D01*
X136728956Y-105066817D01*
X136517673Y-105207991D01*
X136337991Y-105387673D01*
X136196817Y-105598956D01*
X136099574Y-105833721D01*
X136070000Y-105982399D01*
X136040426Y-105833721D01*
X135943183Y-105598956D01*
X135802009Y-105387673D01*
X135622327Y-105207991D01*
X135411044Y-105066817D01*
X135176279Y-104969574D01*
X134927054Y-104920000D01*
X134672946Y-104920000D01*
X134423721Y-104969574D01*
X134188956Y-105066817D01*
X133977673Y-105207991D01*
X133797991Y-105387673D01*
X133656817Y-105598956D01*
X133559574Y-105833721D01*
X133510000Y-106082946D01*
X133510000Y-106337054D01*
X133559574Y-106586279D01*
X133623247Y-106740000D01*
X120064802Y-106740000D01*
X119584801Y-106260000D01*
X131296289Y-106260000D01*
X131340226Y-106303937D01*
X131509744Y-106417205D01*
X131698102Y-106495226D01*
X131898061Y-106535000D01*
X132101939Y-106535000D01*
X132301898Y-106495226D01*
X132490256Y-106417205D01*
X132659774Y-106303937D01*
X132803937Y-106159774D01*
X132917205Y-105990256D01*
X132995226Y-105801898D01*
X133035000Y-105601939D01*
X133035000Y-105398061D01*
X132995226Y-105198102D01*
X132917205Y-105009744D01*
X132803937Y-104840226D01*
X132659774Y-104696063D01*
X132490256Y-104582795D01*
X132301898Y-104504774D01*
X132277897Y-104500000D01*
X132301898Y-104495226D01*
X132490256Y-104417205D01*
X132659774Y-104303937D01*
X132803937Y-104159774D01*
X132917205Y-103990256D01*
X132995226Y-103801898D01*
X133035000Y-103601939D01*
X133035000Y-103398061D01*
X132995226Y-103198102D01*
X132917205Y-103009744D01*
X132803937Y-102840226D01*
X132659774Y-102696063D01*
X132490256Y-102582795D01*
X132301898Y-102504774D01*
X132101939Y-102465000D01*
X131898061Y-102465000D01*
X131698102Y-102504774D01*
X131509744Y-102582795D01*
X131340226Y-102696063D01*
X131296289Y-102740000D01*
X119564801Y-102740000D01*
X119510000Y-102685199D01*
X119510000Y-100860605D01*
X119625678Y-100833633D01*
X119739613Y-100782010D01*
X121298459Y-99882010D01*
X121400133Y-99809151D01*
X121485640Y-99717857D01*
X121551692Y-99611635D01*
X121595753Y-99494568D01*
X121616129Y-99371155D01*
X121612036Y-99246138D01*
X121583633Y-99124322D01*
X121532010Y-99010387D01*
X121511976Y-98975687D01*
X121590226Y-99053937D01*
X121759744Y-99167205D01*
X121948102Y-99245226D01*
X122148061Y-99285000D01*
X122210199Y-99285000D01*
X122732329Y-99807131D01*
X122731495Y-99807688D01*
X122517688Y-100021495D01*
X122349701Y-100272905D01*
X122233989Y-100552257D01*
X122175000Y-100848816D01*
X122175000Y-101151184D01*
X122233989Y-101447743D01*
X122349701Y-101727095D01*
X122517688Y-101978505D01*
X122731495Y-102192312D01*
X122982905Y-102360299D01*
X123262257Y-102476011D01*
X123558816Y-102535000D01*
X123861184Y-102535000D01*
X124157743Y-102476011D01*
X124437095Y-102360299D01*
X124688505Y-102192312D01*
X124754944Y-102125873D01*
X124760498Y-102144180D01*
X124819463Y-102254494D01*
X124898815Y-102351185D01*
X124995506Y-102430537D01*
X125105820Y-102489502D01*
X125225518Y-102525812D01*
X125350000Y-102538072D01*
X127150000Y-102538072D01*
X127274482Y-102525812D01*
X127394180Y-102489502D01*
X127504494Y-102430537D01*
X127601185Y-102351185D01*
X127680537Y-102254494D01*
X127739502Y-102144180D01*
X127775812Y-102024482D01*
X127788072Y-101900000D01*
X127788072Y-100100000D01*
X127775812Y-99975518D01*
X127739502Y-99855820D01*
X127680537Y-99745506D01*
X127601185Y-99648815D01*
X127504494Y-99569463D01*
X127394180Y-99510498D01*
X127274482Y-99474188D01*
X127150000Y-99461928D01*
X127135000Y-99461928D01*
X127135000Y-97885000D01*
X129184669Y-97885000D01*
X129001495Y-98007393D01*
X128787688Y-98221200D01*
X128619701Y-98472610D01*
X128503989Y-98751962D01*
X128445000Y-99048521D01*
X128445000Y-99350889D01*
X128503989Y-99647448D01*
X128619701Y-99926800D01*
X128787688Y-100178210D01*
X129001495Y-100392017D01*
X129252905Y-100560004D01*
X129532257Y-100675716D01*
X129828816Y-100734705D01*
X130131184Y-100734705D01*
X130427743Y-100675716D01*
X130707095Y-100560004D01*
X130958505Y-100392017D01*
X131172312Y-100178210D01*
X131340299Y-99926800D01*
X131456011Y-99647448D01*
X131515000Y-99350889D01*
X131515000Y-99048521D01*
X131477019Y-98857578D01*
X131496138Y-98862036D01*
X131621155Y-98866129D01*
X131744568Y-98845753D01*
X131861635Y-98801692D01*
X131967857Y-98735640D01*
X132059151Y-98650133D01*
X132132010Y-98548459D01*
X133032010Y-96989613D01*
X133083633Y-96875678D01*
X133112036Y-96753862D01*
X133116129Y-96628845D01*
X133095753Y-96505432D01*
X133051692Y-96388365D01*
X132985640Y-96282143D01*
X132900133Y-96190849D01*
X132798459Y-96117990D01*
X131239613Y-95217990D01*
X131125678Y-95166367D01*
X131003862Y-95137964D01*
X130878845Y-95133871D01*
X130755432Y-95154247D01*
X130638365Y-95198308D01*
X130532143Y-95264360D01*
X130440849Y-95349867D01*
X130367990Y-95451541D01*
X130010000Y-96071598D01*
X130010000Y-94076908D01*
X130077688Y-94178210D01*
X130291495Y-94392017D01*
X130542905Y-94560004D01*
X130822257Y-94675716D01*
X131118816Y-94734705D01*
X131421184Y-94734705D01*
X131717743Y-94675716D01*
X131997095Y-94560004D01*
X132248505Y-94392017D01*
X132462312Y-94178210D01*
X132630299Y-93926800D01*
X132746011Y-93647448D01*
X132805000Y-93350889D01*
X132805000Y-93048521D01*
X132746011Y-92751962D01*
X132630299Y-92472610D01*
X132501516Y-92279872D01*
X148265000Y-92279872D01*
X148265000Y-92720128D01*
X148350890Y-93151925D01*
X148519369Y-93558669D01*
X148763962Y-93924729D01*
X149075271Y-94236038D01*
X149441331Y-94480631D01*
X149848075Y-94649110D01*
X150279872Y-94735000D01*
X150720128Y-94735000D01*
X151151925Y-94649110D01*
X151558669Y-94480631D01*
X151924729Y-94236038D01*
X152236038Y-93924729D01*
X152480631Y-93558669D01*
X152649110Y-93151925D01*
X152735000Y-92720128D01*
X152735000Y-92279872D01*
X152649110Y-91848075D01*
X152480631Y-91441331D01*
X152236038Y-91075271D01*
X151924729Y-90763962D01*
X151558669Y-90519369D01*
X151151925Y-90350890D01*
X150720128Y-90265000D01*
X150279872Y-90265000D01*
X149848075Y-90350890D01*
X149441331Y-90519369D01*
X149075271Y-90763962D01*
X148763962Y-91075271D01*
X148519369Y-91441331D01*
X148350890Y-91848075D01*
X148265000Y-92279872D01*
X132501516Y-92279872D01*
X132462312Y-92221200D01*
X132248505Y-92007393D01*
X131997095Y-91839406D01*
X131726699Y-91727404D01*
X131735640Y-91717857D01*
X131801692Y-91611635D01*
X131845753Y-91494568D01*
X131866129Y-91371155D01*
X131862036Y-91246138D01*
X131833633Y-91124322D01*
X131782010Y-91010387D01*
X130882010Y-89451541D01*
X130809151Y-89349867D01*
X130717857Y-89264360D01*
X130611635Y-89198308D01*
X130494568Y-89154247D01*
X130371155Y-89133871D01*
X130246138Y-89137964D01*
X130124322Y-89166367D01*
X130010387Y-89217990D01*
X128451541Y-90117990D01*
X128349867Y-90190849D01*
X128303832Y-90240000D01*
X126627415Y-90240000D01*
X126697743Y-90226011D01*
X126977095Y-90110299D01*
X127228505Y-89942312D01*
X127442312Y-89728505D01*
X127610299Y-89477095D01*
X127726011Y-89197743D01*
X127785000Y-88901184D01*
X127785000Y-88598816D01*
X127726011Y-88302257D01*
X127610299Y-88022905D01*
X127442312Y-87771495D01*
X127228505Y-87557688D01*
X126977095Y-87389701D01*
X126697743Y-87273989D01*
X126401184Y-87215000D01*
X126098816Y-87215000D01*
X125802257Y-87273989D01*
X125522905Y-87389701D01*
X125271495Y-87557688D01*
X125205056Y-87624127D01*
X125199502Y-87605820D01*
X125140537Y-87495506D01*
X125061185Y-87398815D01*
X124964494Y-87319463D01*
X124854180Y-87260498D01*
X124734482Y-87224188D01*
X124610000Y-87211928D01*
X122810000Y-87211928D01*
X122685518Y-87224188D01*
X122565820Y-87260498D01*
X122455506Y-87319463D01*
X122358815Y-87398815D01*
X122279463Y-87495506D01*
X122220498Y-87605820D01*
X122184188Y-87725518D01*
X122171928Y-87850000D01*
X122171928Y-89650000D01*
X122184188Y-89774482D01*
X122220498Y-89894180D01*
X122279463Y-90004494D01*
X122358815Y-90101185D01*
X122455506Y-90180537D01*
X122565820Y-90239502D01*
X122685518Y-90275812D01*
X122810000Y-90288072D01*
X122950001Y-90288072D01*
X122950001Y-90422668D01*
X122946324Y-90460000D01*
X122950001Y-90497333D01*
X122954204Y-90540001D01*
X122960998Y-90608985D01*
X123004454Y-90752246D01*
X123075026Y-90884276D01*
X123146201Y-90971002D01*
X123170000Y-91000001D01*
X123198998Y-91023799D01*
X123686200Y-91511002D01*
X123709999Y-91540001D01*
X123825724Y-91634974D01*
X123957753Y-91705546D01*
X124101014Y-91749003D01*
X124212667Y-91760000D01*
X124212676Y-91760000D01*
X124249999Y-91763676D01*
X124287322Y-91760000D01*
X128487309Y-91760000D01*
X128490000Y-91787323D01*
X128490001Y-96115000D01*
X126293477Y-96115000D01*
X126250000Y-96110718D01*
X126206524Y-96115000D01*
X121793469Y-96115000D01*
X121760000Y-96111704D01*
X121760000Y-94037323D01*
X121763676Y-94000000D01*
X121760000Y-93962677D01*
X121760000Y-93962667D01*
X121749003Y-93851014D01*
X121705546Y-93707753D01*
X121634974Y-93575724D01*
X121540001Y-93459999D01*
X121511003Y-93436201D01*
X120636002Y-92561201D01*
X120563804Y-92489003D01*
X120540001Y-92459999D01*
X120424276Y-92365026D01*
X120292247Y-92294454D01*
X120229281Y-92275354D01*
X120226699Y-92272596D01*
X120497095Y-92160594D01*
X120748505Y-91992607D01*
X120962312Y-91778800D01*
X121130299Y-91527390D01*
X121246011Y-91248038D01*
X121305000Y-90951479D01*
X121305000Y-90649111D01*
X121246011Y-90352552D01*
X121130299Y-90073200D01*
X120962312Y-89821790D01*
X120748505Y-89607983D01*
X120497095Y-89439996D01*
X120217743Y-89324284D01*
X119921184Y-89265295D01*
X119618816Y-89265295D01*
X119322257Y-89324284D01*
X119042905Y-89439996D01*
X118791495Y-89607983D01*
X118577688Y-89821790D01*
X118409701Y-90073200D01*
X118293989Y-90352552D01*
X118235000Y-90649111D01*
X118235000Y-90951479D01*
X118272981Y-91142422D01*
X118253862Y-91137964D01*
X118128845Y-91133871D01*
X118005432Y-91154247D01*
X117888365Y-91198308D01*
X117782143Y-91264360D01*
X117690849Y-91349867D01*
X117617990Y-91451541D01*
X117510000Y-91638585D01*
X117510000Y-88314801D01*
X117564801Y-88260000D01*
X119296289Y-88260000D01*
X119340226Y-88303937D01*
X119509744Y-88417205D01*
X119698102Y-88495226D01*
X119898061Y-88535000D01*
X120101939Y-88535000D01*
X120301898Y-88495226D01*
X120490256Y-88417205D01*
X120659774Y-88303937D01*
X120803937Y-88159774D01*
X120917205Y-87990256D01*
X120995226Y-87801898D01*
X121035000Y-87601939D01*
X121035000Y-87398061D01*
X120995226Y-87198102D01*
X120917205Y-87009744D01*
X120803937Y-86840226D01*
X120659774Y-86696063D01*
X120490256Y-86582795D01*
X120301898Y-86504774D01*
X120101939Y-86465000D01*
X119898061Y-86465000D01*
X119711627Y-86502084D01*
X119803937Y-86409774D01*
X119917205Y-86240256D01*
X119995226Y-86051898D01*
X120035000Y-85851939D01*
X120035000Y-85835000D01*
X120542315Y-85835000D01*
X120584310Y-85838620D01*
X120654053Y-85830891D01*
X120723986Y-85824003D01*
X120728465Y-85822644D01*
X120733106Y-85822130D01*
X120799971Y-85800954D01*
X120867247Y-85780546D01*
X120904434Y-85760669D01*
X120905995Y-85760000D01*
X130212678Y-85760000D01*
X130250000Y-85763676D01*
X130287322Y-85760000D01*
X130287333Y-85760000D01*
X130398986Y-85749003D01*
X130542247Y-85705546D01*
X130674276Y-85634974D01*
X130790001Y-85540001D01*
X130813803Y-85510998D01*
X130991855Y-85332946D01*
X133510000Y-85332946D01*
X133510000Y-85587054D01*
X133559574Y-85836279D01*
X133656817Y-86071044D01*
X133797991Y-86282327D01*
X133977673Y-86462009D01*
X134188956Y-86603183D01*
X134423721Y-86700426D01*
X134572399Y-86730000D01*
X134423721Y-86759574D01*
X134188956Y-86856817D01*
X133977673Y-86997991D01*
X133797991Y-87177673D01*
X133656817Y-87388956D01*
X133559574Y-87623721D01*
X133510000Y-87872946D01*
X133510000Y-88127054D01*
X133559574Y-88376279D01*
X133656817Y-88611044D01*
X133797991Y-88822327D01*
X133977673Y-89002009D01*
X134188956Y-89143183D01*
X134423721Y-89240426D01*
X134672946Y-89290000D01*
X134927054Y-89290000D01*
X135176279Y-89240426D01*
X135411044Y-89143183D01*
X135622327Y-89002009D01*
X135802009Y-88822327D01*
X135943183Y-88611044D01*
X136040426Y-88376279D01*
X136070000Y-88227601D01*
X136099574Y-88376279D01*
X136196817Y-88611044D01*
X136337991Y-88822327D01*
X136517673Y-89002009D01*
X136728956Y-89143183D01*
X136963721Y-89240426D01*
X137212946Y-89290000D01*
X137467054Y-89290000D01*
X137716279Y-89240426D01*
X137951044Y-89143183D01*
X138162327Y-89002009D01*
X138342009Y-88822327D01*
X138483183Y-88611044D01*
X138580426Y-88376279D01*
X138610000Y-88227601D01*
X138639574Y-88376279D01*
X138736817Y-88611044D01*
X138877991Y-88822327D01*
X139057673Y-89002009D01*
X139268956Y-89143183D01*
X139503721Y-89240426D01*
X139752946Y-89290000D01*
X140007054Y-89290000D01*
X140256279Y-89240426D01*
X140491044Y-89143183D01*
X140702327Y-89002009D01*
X140882009Y-88822327D01*
X141023183Y-88611044D01*
X141120426Y-88376279D01*
X141150000Y-88227601D01*
X141179574Y-88376279D01*
X141276817Y-88611044D01*
X141417991Y-88822327D01*
X141597673Y-89002009D01*
X141808956Y-89143183D01*
X142043721Y-89240426D01*
X142292946Y-89290000D01*
X142547054Y-89290000D01*
X142796279Y-89240426D01*
X143031044Y-89143183D01*
X143242327Y-89002009D01*
X143422009Y-88822327D01*
X143563183Y-88611044D01*
X143660426Y-88376279D01*
X143690000Y-88227601D01*
X143719574Y-88376279D01*
X143816817Y-88611044D01*
X143957991Y-88822327D01*
X144137673Y-89002009D01*
X144348956Y-89143183D01*
X144583721Y-89240426D01*
X144832946Y-89290000D01*
X145087054Y-89290000D01*
X145336279Y-89240426D01*
X145571044Y-89143183D01*
X145782327Y-89002009D01*
X145962009Y-88822327D01*
X146103183Y-88611044D01*
X146200426Y-88376279D01*
X146206928Y-88343591D01*
X146206928Y-88405000D01*
X146223992Y-88578254D01*
X146274528Y-88744850D01*
X146356595Y-88898386D01*
X146467038Y-89032962D01*
X146601614Y-89143405D01*
X146755150Y-89225472D01*
X146921746Y-89276008D01*
X147095000Y-89293072D01*
X147905000Y-89293072D01*
X148078254Y-89276008D01*
X148244850Y-89225472D01*
X148398386Y-89143405D01*
X148532962Y-89032962D01*
X148643405Y-88898386D01*
X148725472Y-88744850D01*
X148776008Y-88578254D01*
X148793072Y-88405000D01*
X148793072Y-87595000D01*
X148776008Y-87421746D01*
X148725472Y-87255150D01*
X148643405Y-87101614D01*
X148532962Y-86967038D01*
X148398386Y-86856595D01*
X148244850Y-86774528D01*
X148078254Y-86723992D01*
X147905000Y-86706928D01*
X147843591Y-86706928D01*
X147876279Y-86700426D01*
X148111044Y-86603183D01*
X148322327Y-86462009D01*
X148502009Y-86282327D01*
X148643183Y-86071044D01*
X148740426Y-85836279D01*
X148790000Y-85587054D01*
X148790000Y-85332946D01*
X148740426Y-85083721D01*
X148643183Y-84848956D01*
X148502009Y-84637673D01*
X148322327Y-84457991D01*
X148111044Y-84316817D01*
X147876279Y-84219574D01*
X147627054Y-84170000D01*
X147372946Y-84170000D01*
X147123721Y-84219574D01*
X146888956Y-84316817D01*
X146677673Y-84457991D01*
X146497991Y-84637673D01*
X146356817Y-84848956D01*
X146259574Y-85083721D01*
X146230000Y-85232399D01*
X146200426Y-85083721D01*
X146103183Y-84848956D01*
X145962009Y-84637673D01*
X145782327Y-84457991D01*
X145571044Y-84316817D01*
X145336279Y-84219574D01*
X145087054Y-84170000D01*
X144832946Y-84170000D01*
X144583721Y-84219574D01*
X144348956Y-84316817D01*
X144137673Y-84457991D01*
X143957991Y-84637673D01*
X143816817Y-84848956D01*
X143719574Y-85083721D01*
X143690000Y-85232399D01*
X143660426Y-85083721D01*
X143563183Y-84848956D01*
X143422009Y-84637673D01*
X143242327Y-84457991D01*
X143031044Y-84316817D01*
X142796279Y-84219574D01*
X142547054Y-84170000D01*
X142292946Y-84170000D01*
X142043721Y-84219574D01*
X141808956Y-84316817D01*
X141597673Y-84457991D01*
X141417991Y-84637673D01*
X141276817Y-84848956D01*
X141179574Y-85083721D01*
X141150000Y-85232399D01*
X141120426Y-85083721D01*
X141023183Y-84848956D01*
X140882009Y-84637673D01*
X140702327Y-84457991D01*
X140491044Y-84316817D01*
X140256279Y-84219574D01*
X140007054Y-84170000D01*
X139752946Y-84170000D01*
X139503721Y-84219574D01*
X139268956Y-84316817D01*
X139057673Y-84457991D01*
X138877991Y-84637673D01*
X138736817Y-84848956D01*
X138639574Y-85083721D01*
X138610000Y-85232399D01*
X138580426Y-85083721D01*
X138483183Y-84848956D01*
X138342009Y-84637673D01*
X138162327Y-84457991D01*
X137951044Y-84316817D01*
X137716279Y-84219574D01*
X137467054Y-84170000D01*
X137212946Y-84170000D01*
X136963721Y-84219574D01*
X136728956Y-84316817D01*
X136517673Y-84457991D01*
X136337991Y-84637673D01*
X136196817Y-84848956D01*
X136099574Y-85083721D01*
X136070000Y-85232399D01*
X136040426Y-85083721D01*
X135943183Y-84848956D01*
X135802009Y-84637673D01*
X135622327Y-84457991D01*
X135411044Y-84316817D01*
X135176279Y-84219574D01*
X134927054Y-84170000D01*
X134672946Y-84170000D01*
X134423721Y-84219574D01*
X134188956Y-84316817D01*
X133977673Y-84457991D01*
X133797991Y-84637673D01*
X133656817Y-84848956D01*
X133559574Y-85083721D01*
X133510000Y-85332946D01*
X130991855Y-85332946D01*
X131511002Y-84813799D01*
X131540001Y-84790001D01*
X131634974Y-84674276D01*
X131705546Y-84542247D01*
X131749003Y-84398986D01*
X131760000Y-84287333D01*
X131760000Y-84287324D01*
X131763676Y-84250001D01*
X131760000Y-84212678D01*
X131760000Y-84167311D01*
X131948102Y-84245226D01*
X132148061Y-84285000D01*
X132351939Y-84285000D01*
X132551898Y-84245226D01*
X132740256Y-84167205D01*
X132909774Y-84053937D01*
X133053937Y-83909774D01*
X133167205Y-83740256D01*
X133245226Y-83551898D01*
X133285000Y-83351939D01*
X133285000Y-83148061D01*
X133245226Y-82948102D01*
X133167205Y-82759744D01*
X133053937Y-82590226D01*
X133010000Y-82546289D01*
X133010000Y-81570061D01*
X133010874Y-81565361D01*
X133010000Y-81495359D01*
X133010000Y-81462667D01*
X133009533Y-81457921D01*
X133009005Y-81415665D01*
X133002215Y-81383625D01*
X132999003Y-81351014D01*
X132986729Y-81310551D01*
X132977968Y-81269211D01*
X132965059Y-81239113D01*
X132955546Y-81207753D01*
X132935617Y-81170469D01*
X132918957Y-81131626D01*
X132900417Y-81104615D01*
X132884974Y-81075724D01*
X132858158Y-81043048D01*
X132834236Y-81008197D01*
X132810784Y-80985323D01*
X132790001Y-80959999D01*
X132757328Y-80933185D01*
X132753920Y-80929861D01*
X132728429Y-80909469D01*
X132674276Y-80865026D01*
X132670058Y-80862771D01*
X132385142Y-80634838D01*
X147044767Y-80634838D01*
X147182724Y-80935044D01*
X147531967Y-81110882D01*
X147908804Y-81215207D01*
X148298753Y-81244009D01*
X148686828Y-81196184D01*
X149058116Y-81073568D01*
X149317276Y-80935044D01*
X149455233Y-80634838D01*
X148250000Y-79429605D01*
X147044767Y-80634838D01*
X132385142Y-80634838D01*
X131760000Y-80134725D01*
X131760000Y-79298753D01*
X146255991Y-79298753D01*
X146303816Y-79686828D01*
X146426432Y-80058116D01*
X146564956Y-80317276D01*
X146865162Y-80455233D01*
X148070395Y-79250000D01*
X148429605Y-79250000D01*
X149634838Y-80455233D01*
X149935044Y-80317276D01*
X150110882Y-79968033D01*
X150215207Y-79591196D01*
X150244009Y-79201247D01*
X150196184Y-78813172D01*
X150073568Y-78441884D01*
X149935044Y-78182724D01*
X149634838Y-78044767D01*
X148429605Y-79250000D01*
X148070395Y-79250000D01*
X146865162Y-78044767D01*
X146564956Y-78182724D01*
X146389118Y-78531967D01*
X146284793Y-78908804D01*
X146255991Y-79298753D01*
X131760000Y-79298753D01*
X131760000Y-77865162D01*
X147044767Y-77865162D01*
X148250000Y-79070395D01*
X149455233Y-77865162D01*
X149317276Y-77564956D01*
X148968033Y-77389118D01*
X148591196Y-77284793D01*
X148201247Y-77255991D01*
X147813172Y-77303816D01*
X147441884Y-77426432D01*
X147182724Y-77564956D01*
X147044767Y-77865162D01*
X131760000Y-77865162D01*
X131760000Y-73345132D01*
X131881612Y-73223520D01*
X131930736Y-73150000D01*
X132431928Y-73150000D01*
X132431928Y-74850000D01*
X132444188Y-74974482D01*
X132480498Y-75094180D01*
X132539463Y-75204494D01*
X132618815Y-75301185D01*
X132715506Y-75380537D01*
X132825820Y-75439502D01*
X132945518Y-75475812D01*
X133070000Y-75488072D01*
X134770000Y-75488072D01*
X134894482Y-75475812D01*
X135014180Y-75439502D01*
X135124494Y-75380537D01*
X135221185Y-75301185D01*
X135300537Y-75204494D01*
X135359502Y-75094180D01*
X135381513Y-75021620D01*
X135513368Y-75153475D01*
X135756589Y-75315990D01*
X136026842Y-75427932D01*
X136313740Y-75485000D01*
X136606260Y-75485000D01*
X136893158Y-75427932D01*
X137163411Y-75315990D01*
X137406632Y-75153475D01*
X137613475Y-74946632D01*
X137730000Y-74772240D01*
X137846525Y-74946632D01*
X138053368Y-75153475D01*
X138296589Y-75315990D01*
X138566842Y-75427932D01*
X138853740Y-75485000D01*
X139146260Y-75485000D01*
X139433158Y-75427932D01*
X139703411Y-75315990D01*
X139946632Y-75153475D01*
X140153475Y-74946632D01*
X140315990Y-74703411D01*
X140427932Y-74433158D01*
X140485000Y-74146260D01*
X140485000Y-73853740D01*
X140427932Y-73566842D01*
X140315990Y-73296589D01*
X140218044Y-73150001D01*
X146261928Y-73150001D01*
X146261928Y-75349999D01*
X146278992Y-75523253D01*
X146329529Y-75689850D01*
X146411595Y-75843386D01*
X146522039Y-75977961D01*
X146656614Y-76088405D01*
X146810150Y-76170471D01*
X146976747Y-76221008D01*
X147150001Y-76238072D01*
X149349999Y-76238072D01*
X149523253Y-76221008D01*
X149689850Y-76170471D01*
X149843386Y-76088405D01*
X149977961Y-75977961D01*
X150088405Y-75843386D01*
X150170471Y-75689850D01*
X150221008Y-75523253D01*
X150238072Y-75349999D01*
X150238072Y-73150001D01*
X150221008Y-72976747D01*
X150170471Y-72810150D01*
X150088405Y-72656614D01*
X149977961Y-72522039D01*
X149843386Y-72411595D01*
X149689850Y-72329529D01*
X149523253Y-72278992D01*
X149349999Y-72261928D01*
X147150001Y-72261928D01*
X146976747Y-72278992D01*
X146810150Y-72329529D01*
X146656614Y-72411595D01*
X146522039Y-72522039D01*
X146411595Y-72656614D01*
X146329529Y-72810150D01*
X146278992Y-72976747D01*
X146261928Y-73150001D01*
X140218044Y-73150001D01*
X140153475Y-73053368D01*
X139946632Y-72846525D01*
X139703411Y-72684010D01*
X139433158Y-72572068D01*
X139146260Y-72515000D01*
X138853740Y-72515000D01*
X138566842Y-72572068D01*
X138296589Y-72684010D01*
X138053368Y-72846525D01*
X137846525Y-73053368D01*
X137730000Y-73227760D01*
X137613475Y-73053368D01*
X137406632Y-72846525D01*
X137163411Y-72684010D01*
X136893158Y-72572068D01*
X136606260Y-72515000D01*
X136313740Y-72515000D01*
X136026842Y-72572068D01*
X135756589Y-72684010D01*
X135513368Y-72846525D01*
X135381513Y-72978380D01*
X135359502Y-72905820D01*
X135300537Y-72795506D01*
X135221185Y-72698815D01*
X135124494Y-72619463D01*
X135014180Y-72560498D01*
X134894482Y-72524188D01*
X134770000Y-72511928D01*
X133070000Y-72511928D01*
X132945518Y-72524188D01*
X132825820Y-72560498D01*
X132715506Y-72619463D01*
X132618815Y-72698815D01*
X132539463Y-72795506D01*
X132480498Y-72905820D01*
X132444188Y-73025518D01*
X132431928Y-73150000D01*
X131930736Y-73150000D01*
X132005824Y-73037624D01*
X132091383Y-72831067D01*
X132135000Y-72611788D01*
X132135000Y-72388212D01*
X132091383Y-72168933D01*
X132005824Y-71962376D01*
X131881612Y-71776480D01*
X131723520Y-71618388D01*
X131537624Y-71494176D01*
X131331067Y-71408617D01*
X131111788Y-71365000D01*
X130888212Y-71365000D01*
X130668933Y-71408617D01*
X130462376Y-71494176D01*
X130276480Y-71618388D01*
X130118388Y-71776480D01*
X129994176Y-71962376D01*
X129908617Y-72168933D01*
X129865000Y-72388212D01*
X129865000Y-72611788D01*
X129908617Y-72831067D01*
X129994176Y-73037624D01*
X130118388Y-73223520D01*
X130240001Y-73345133D01*
X130240001Y-73668965D01*
X130174276Y-73615026D01*
X130042247Y-73544454D01*
X129898986Y-73500997D01*
X129787333Y-73490000D01*
X129787322Y-73490000D01*
X129750000Y-73486324D01*
X129712678Y-73490000D01*
X128493152Y-73490000D01*
X128493152Y-73400000D01*
X128480892Y-73275518D01*
X128444582Y-73155820D01*
X128385617Y-73045506D01*
X128306265Y-72948815D01*
X128209574Y-72869463D01*
X128099260Y-72810498D01*
X127979562Y-72774188D01*
X127855080Y-72761928D01*
X126155080Y-72761928D01*
X126030598Y-72774188D01*
X125910900Y-72810498D01*
X125800586Y-72869463D01*
X125703895Y-72948815D01*
X125627540Y-73041854D01*
X125551185Y-72948815D01*
X125454494Y-72869463D01*
X125344180Y-72810498D01*
X125224482Y-72774188D01*
X125100000Y-72761928D01*
X123400000Y-72761928D01*
X123275518Y-72774188D01*
X123155820Y-72810498D01*
X123045506Y-72869463D01*
X122948815Y-72948815D01*
X122869463Y-73045506D01*
X122810498Y-73155820D01*
X122774188Y-73275518D01*
X122761928Y-73400000D01*
X122761928Y-75100000D01*
X122774188Y-75224482D01*
X122778895Y-75240000D01*
X99787322Y-75240000D01*
X99749999Y-75236324D01*
X99712676Y-75240000D01*
X99712667Y-75240000D01*
X99601014Y-75250997D01*
X99457753Y-75294454D01*
X99325724Y-75365026D01*
X99209999Y-75459999D01*
X99186201Y-75488998D01*
X98489002Y-76186197D01*
X98459999Y-76209999D01*
X98410842Y-76269898D01*
X98365026Y-76325724D01*
X98312348Y-76424277D01*
X98294454Y-76457754D01*
X98250997Y-76601015D01*
X98240000Y-76712668D01*
X98240000Y-76712678D01*
X98236324Y-76750000D01*
X98240000Y-76787322D01*
X98240001Y-86112491D01*
X98126929Y-86090000D01*
X97923051Y-86090000D01*
X97723092Y-86129774D01*
X97534734Y-86207795D01*
X97365216Y-86321063D01*
X97310266Y-86376013D01*
X97167058Y-86419454D01*
X97035029Y-86490026D01*
X96919304Y-86584999D01*
X96895506Y-86613997D01*
X95238998Y-88270506D01*
X95210000Y-88294304D01*
X95186202Y-88323302D01*
X95186201Y-88323303D01*
X95115026Y-88410029D01*
X95044454Y-88542059D01*
X95022321Y-88615026D01*
X95000998Y-88685319D01*
X94990743Y-88789435D01*
X94986324Y-88834305D01*
X94990001Y-88871637D01*
X94990000Y-90212667D01*
X94990000Y-90212668D01*
X94990001Y-91935197D01*
X94685199Y-92240000D01*
X93703711Y-92240000D01*
X93659774Y-92196063D01*
X93490256Y-92082795D01*
X93301898Y-92004774D01*
X93101939Y-91965000D01*
X92898061Y-91965000D01*
X92698102Y-92004774D01*
X92509744Y-92082795D01*
X92340226Y-92196063D01*
X92196063Y-92340226D01*
X92082795Y-92509744D01*
X92004774Y-92698102D01*
X91965000Y-92898061D01*
X91965000Y-93101939D01*
X92004774Y-93301898D01*
X92082795Y-93490256D01*
X92196063Y-93659774D01*
X92340226Y-93803937D01*
X92509744Y-93917205D01*
X92698102Y-93995226D01*
X92898061Y-94035000D01*
X93101939Y-94035000D01*
X93301898Y-93995226D01*
X93490256Y-93917205D01*
X93659774Y-93803937D01*
X93703711Y-93760000D01*
X93990001Y-93760000D01*
X93990001Y-97273778D01*
X93637988Y-96921765D01*
X93611054Y-96888946D01*
X93480102Y-96781476D01*
X93330700Y-96701619D01*
X93168589Y-96652444D01*
X93042246Y-96640000D01*
X93042239Y-96640000D01*
X93000000Y-96635840D01*
X92957761Y-96640000D01*
X89487087Y-96640000D01*
X89475812Y-96525518D01*
X89439502Y-96405820D01*
X89380537Y-96295506D01*
X89343191Y-96250000D01*
X89380537Y-96204494D01*
X89439502Y-96094180D01*
X89475812Y-95974482D01*
X89488072Y-95850000D01*
X89488072Y-94150000D01*
X89475812Y-94025518D01*
X89439502Y-93905820D01*
X89380537Y-93795506D01*
X89343191Y-93750000D01*
X89380537Y-93704494D01*
X89439502Y-93594180D01*
X89475812Y-93474482D01*
X89488072Y-93350000D01*
X89488072Y-91650000D01*
X89475812Y-91525518D01*
X89439502Y-91405820D01*
X89380537Y-91295506D01*
X89351398Y-91260000D01*
X93462678Y-91260000D01*
X93500000Y-91263676D01*
X93537322Y-91260000D01*
X93537333Y-91260000D01*
X93648986Y-91249003D01*
X93792247Y-91205546D01*
X93924276Y-91134974D01*
X94040001Y-91040001D01*
X94063804Y-91010997D01*
X94510997Y-90563804D01*
X94540001Y-90540001D01*
X94634974Y-90424276D01*
X94705546Y-90292247D01*
X94749003Y-90148986D01*
X94760000Y-90037333D01*
X94760000Y-90037325D01*
X94763676Y-90000000D01*
X94760000Y-89962675D01*
X94760000Y-86064801D01*
X94789801Y-86035000D01*
X94851939Y-86035000D01*
X95051898Y-85995226D01*
X95240256Y-85917205D01*
X95409774Y-85803937D01*
X95553937Y-85659774D01*
X95667205Y-85490256D01*
X95745226Y-85301898D01*
X95785000Y-85101939D01*
X95785000Y-84898061D01*
X95745226Y-84698102D01*
X95667205Y-84509744D01*
X95553937Y-84340226D01*
X95409774Y-84196063D01*
X95240256Y-84082795D01*
X95051898Y-84004774D01*
X94851939Y-83965000D01*
X94648061Y-83965000D01*
X94448102Y-84004774D01*
X94259744Y-84082795D01*
X94090226Y-84196063D01*
X93946063Y-84340226D01*
X93832795Y-84509744D01*
X93754774Y-84698102D01*
X93715000Y-84898061D01*
X93715000Y-84960199D01*
X93489002Y-85186197D01*
X93459999Y-85209999D01*
X93419175Y-85259744D01*
X93365026Y-85325724D01*
X93312348Y-85424277D01*
X93294454Y-85457754D01*
X93250997Y-85601015D01*
X93240000Y-85712668D01*
X93240000Y-85712678D01*
X93236324Y-85750000D01*
X93240000Y-85787323D01*
X93240001Y-89685198D01*
X93185199Y-89740000D01*
X88287322Y-89740000D01*
X88267747Y-89738072D01*
X88850000Y-89738072D01*
X88974482Y-89725812D01*
X89094180Y-89689502D01*
X89204494Y-89630537D01*
X89301185Y-89551185D01*
X89380537Y-89454494D01*
X89439502Y-89344180D01*
X89475812Y-89224482D01*
X89488072Y-89100000D01*
X89488072Y-87400000D01*
X89475812Y-87275518D01*
X89439502Y-87155820D01*
X89380537Y-87045506D01*
X89301185Y-86948815D01*
X89204494Y-86869463D01*
X89094180Y-86810498D01*
X89021620Y-86788487D01*
X89153475Y-86656632D01*
X89315990Y-86413411D01*
X89427932Y-86143158D01*
X89485000Y-85856260D01*
X89485000Y-85563740D01*
X89427932Y-85276842D01*
X89315990Y-85006589D01*
X89153475Y-84763368D01*
X88946632Y-84556525D01*
X88772240Y-84440000D01*
X88946632Y-84323475D01*
X89153475Y-84116632D01*
X89315990Y-83873411D01*
X89427932Y-83603158D01*
X89485000Y-83316260D01*
X89485000Y-83023740D01*
X89427932Y-82736842D01*
X89315990Y-82466589D01*
X89153475Y-82223368D01*
X88946632Y-82016525D01*
X88703411Y-81854010D01*
X88433158Y-81742068D01*
X88146260Y-81685000D01*
X87853740Y-81685000D01*
X87566842Y-81742068D01*
X87296589Y-81854010D01*
X87053368Y-82016525D01*
X86860000Y-82209893D01*
X86860000Y-77360000D01*
X90015868Y-77360000D01*
X90011928Y-77400000D01*
X90011928Y-79100000D01*
X90024188Y-79224482D01*
X90060498Y-79344180D01*
X90119463Y-79454494D01*
X90156809Y-79500000D01*
X90119463Y-79545506D01*
X90060498Y-79655820D01*
X90024188Y-79775518D01*
X90011928Y-79900000D01*
X90011928Y-81600000D01*
X90024188Y-81724482D01*
X90060498Y-81844180D01*
X90119463Y-81954494D01*
X90156809Y-82000000D01*
X90119463Y-82045506D01*
X90060498Y-82155820D01*
X90024188Y-82275518D01*
X90011928Y-82400000D01*
X90011928Y-84100000D01*
X90024188Y-84224482D01*
X90060498Y-84344180D01*
X90119463Y-84454494D01*
X90156809Y-84500000D01*
X90119463Y-84545506D01*
X90060498Y-84655820D01*
X90024188Y-84775518D01*
X90011928Y-84900000D01*
X90011928Y-86600000D01*
X90024188Y-86724482D01*
X90060498Y-86844180D01*
X90119463Y-86954494D01*
X90156809Y-87000000D01*
X90119463Y-87045506D01*
X90060498Y-87155820D01*
X90024188Y-87275518D01*
X90011928Y-87400000D01*
X90011928Y-89100000D01*
X90024188Y-89224482D01*
X90060498Y-89344180D01*
X90119463Y-89454494D01*
X90198815Y-89551185D01*
X90295506Y-89630537D01*
X90405820Y-89689502D01*
X90525518Y-89725812D01*
X90650000Y-89738072D01*
X92350000Y-89738072D01*
X92474482Y-89725812D01*
X92594180Y-89689502D01*
X92704494Y-89630537D01*
X92801185Y-89551185D01*
X92880537Y-89454494D01*
X92939502Y-89344180D01*
X92975812Y-89224482D01*
X92988072Y-89100000D01*
X92988072Y-87400000D01*
X92975812Y-87275518D01*
X92939502Y-87155820D01*
X92880537Y-87045506D01*
X92843191Y-87000000D01*
X92880537Y-86954494D01*
X92939502Y-86844180D01*
X92975812Y-86724482D01*
X92988072Y-86600000D01*
X92988072Y-84900000D01*
X92975812Y-84775518D01*
X92939502Y-84655820D01*
X92880537Y-84545506D01*
X92843191Y-84500000D01*
X92880537Y-84454494D01*
X92939502Y-84344180D01*
X92975812Y-84224482D01*
X92988072Y-84100000D01*
X92988072Y-82400000D01*
X92975812Y-82275518D01*
X92939502Y-82155820D01*
X92880537Y-82045506D01*
X92843191Y-82000000D01*
X92880537Y-81954494D01*
X92939502Y-81844180D01*
X92975812Y-81724482D01*
X92988072Y-81600000D01*
X92988072Y-79900000D01*
X92975812Y-79775518D01*
X92939502Y-79655820D01*
X92880537Y-79545506D01*
X92843191Y-79500000D01*
X92880537Y-79454494D01*
X92939502Y-79344180D01*
X92975812Y-79224482D01*
X92988072Y-79100000D01*
X92988072Y-77673583D01*
X93109300Y-77738381D01*
X93179726Y-77759744D01*
X93271410Y-77787556D01*
X93286975Y-77789089D01*
X93397754Y-77800000D01*
X93397761Y-77800000D01*
X93440000Y-77804160D01*
X93482239Y-77800000D01*
X94364130Y-77800000D01*
X94449744Y-77857205D01*
X94638102Y-77935226D01*
X94838061Y-77975000D01*
X95041939Y-77975000D01*
X95241898Y-77935226D01*
X95430256Y-77857205D01*
X95599774Y-77743937D01*
X95743937Y-77599774D01*
X95857205Y-77430256D01*
X95935226Y-77241898D01*
X95975000Y-77041939D01*
X95975000Y-76838061D01*
X95935226Y-76638102D01*
X95857205Y-76449744D01*
X95743937Y-76280226D01*
X95599774Y-76136063D01*
X95430256Y-76022795D01*
X95241898Y-75944774D01*
X95041939Y-75905000D01*
X94838061Y-75905000D01*
X94638102Y-75944774D01*
X94449744Y-76022795D01*
X94364130Y-76080000D01*
X93796223Y-76080000D01*
X93637988Y-75921765D01*
X93611054Y-75888946D01*
X93480102Y-75781476D01*
X93330700Y-75701619D01*
X93168589Y-75652444D01*
X93042246Y-75640000D01*
X93042239Y-75640000D01*
X93000000Y-75635840D01*
X92957761Y-75640000D01*
X90527429Y-75640000D01*
X90535000Y-75601939D01*
X90535000Y-75398061D01*
X90495226Y-75198102D01*
X90417205Y-75009744D01*
X90303937Y-74840226D01*
X90159774Y-74696063D01*
X89990256Y-74582795D01*
X89801898Y-74504774D01*
X89601939Y-74465000D01*
X89398061Y-74465000D01*
X89198102Y-74504774D01*
X89009744Y-74582795D01*
X88840226Y-74696063D01*
X88696063Y-74840226D01*
X88582795Y-75009744D01*
X88504774Y-75198102D01*
X88465000Y-75398061D01*
X88465000Y-75601939D01*
X88472571Y-75640000D01*
X86782720Y-75640000D01*
X86718524Y-75519898D01*
X86611054Y-75388946D01*
X86578232Y-75362010D01*
X86387989Y-75171766D01*
X86361054Y-75138946D01*
X86230102Y-75031476D01*
X86080700Y-74951619D01*
X85918589Y-74902444D01*
X85792246Y-74890000D01*
X85792239Y-74890000D01*
X85750000Y-74885840D01*
X85707761Y-74890000D01*
X83075870Y-74890000D01*
X82990256Y-74832795D01*
X82801898Y-74754774D01*
X82601939Y-74715000D01*
X82398061Y-74715000D01*
X82198102Y-74754774D01*
X82009744Y-74832795D01*
X81840226Y-74946063D01*
X81696063Y-75090226D01*
X81582795Y-75259744D01*
X81504774Y-75448102D01*
X81465000Y-75648061D01*
X81465000Y-75851939D01*
X81504774Y-76051898D01*
X81582795Y-76240256D01*
X81696063Y-76409774D01*
X81840226Y-76553937D01*
X82009744Y-76667205D01*
X82198102Y-76745226D01*
X82398061Y-76785000D01*
X82601939Y-76785000D01*
X82801898Y-76745226D01*
X82990256Y-76667205D01*
X83075870Y-76610000D01*
X85140000Y-76610000D01*
X85140000Y-76792245D01*
X85140001Y-76792255D01*
X85140000Y-85792245D01*
X85140001Y-85792255D01*
X85140000Y-87490000D01*
X84703711Y-87490000D01*
X84659774Y-87446063D01*
X84490256Y-87332795D01*
X84301898Y-87254774D01*
X84101939Y-87215000D01*
X83898061Y-87215000D01*
X83698102Y-87254774D01*
X83509744Y-87332795D01*
X83340226Y-87446063D01*
X83196063Y-87590226D01*
X83082795Y-87759744D01*
X83004774Y-87948102D01*
X82965000Y-88148061D01*
X82965000Y-88351939D01*
X83004774Y-88551898D01*
X83082795Y-88740256D01*
X83196063Y-88909774D01*
X83340226Y-89053937D01*
X83509744Y-89167205D01*
X83698102Y-89245226D01*
X83898061Y-89285000D01*
X84101939Y-89285000D01*
X84301898Y-89245226D01*
X84490256Y-89167205D01*
X84659774Y-89053937D01*
X84703711Y-89010000D01*
X85140001Y-89010000D01*
X85140000Y-96957761D01*
X85135840Y-97000000D01*
X85140000Y-97042239D01*
X85140000Y-97042245D01*
X85149428Y-97137964D01*
X85152444Y-97168589D01*
X85160951Y-97196632D01*
X85201619Y-97330699D01*
X85281476Y-97480101D01*
X85388946Y-97611054D01*
X85421765Y-97637988D01*
X85862012Y-98078235D01*
X85888946Y-98111054D01*
X86019898Y-98218524D01*
X86169300Y-98298381D01*
X86275843Y-98330700D01*
X86331410Y-98347556D01*
X86500000Y-98364161D01*
X86513195Y-98362861D01*
X86524188Y-98474482D01*
X86560498Y-98594180D01*
X86619463Y-98704494D01*
X86698815Y-98801185D01*
X86795506Y-98880537D01*
X86905820Y-98939502D01*
X87025518Y-98975812D01*
X87150000Y-98988072D01*
X88850000Y-98988072D01*
X88974482Y-98975812D01*
X89094180Y-98939502D01*
X89204494Y-98880537D01*
X89301185Y-98801185D01*
X89380537Y-98704494D01*
X89439502Y-98594180D01*
X89475812Y-98474482D01*
X89487087Y-98360000D01*
X92640000Y-98360000D01*
X92640000Y-98424130D01*
X92582795Y-98509744D01*
X92504774Y-98698102D01*
X92465000Y-98898061D01*
X92465000Y-99101939D01*
X92504774Y-99301898D01*
X92582795Y-99490256D01*
X92672828Y-99625000D01*
X92582795Y-99759744D01*
X92504774Y-99948102D01*
X92465000Y-100148061D01*
X92465000Y-100351939D01*
X92504774Y-100551898D01*
X92582795Y-100740256D01*
X92672828Y-100875000D01*
X92582795Y-101009744D01*
X92504774Y-101198102D01*
X92465000Y-101398061D01*
X92465000Y-101601939D01*
X92492462Y-101740000D01*
X89564802Y-101740000D01*
X88563804Y-100739003D01*
X88540001Y-100709999D01*
X88424276Y-100615026D01*
X88292247Y-100544454D01*
X88148986Y-100500997D01*
X88037333Y-100490000D01*
X88037322Y-100490000D01*
X88000000Y-100486324D01*
X87962678Y-100490000D01*
X80453711Y-100490000D01*
X80409774Y-100446063D01*
X80240256Y-100332795D01*
X80051898Y-100254774D01*
X79851939Y-100215000D01*
X79648061Y-100215000D01*
X79448102Y-100254774D01*
X79259744Y-100332795D01*
X79090226Y-100446063D01*
X78946063Y-100590226D01*
X78832795Y-100759744D01*
X78754774Y-100948102D01*
X78715000Y-101148061D01*
X75127000Y-101148061D01*
X75127000Y-89388212D01*
X77115000Y-89388212D01*
X77115000Y-89611788D01*
X77158617Y-89831067D01*
X77240000Y-90027542D01*
X77240001Y-97450382D01*
X77235114Y-97500000D01*
X77254615Y-97697994D01*
X77312368Y-97888379D01*
X77406154Y-98063840D01*
X77485558Y-98160594D01*
X77532368Y-98217633D01*
X77570901Y-98249256D01*
X78500743Y-99179099D01*
X78532367Y-99217633D01*
X78686160Y-99343847D01*
X78824429Y-99417753D01*
X78861620Y-99437632D01*
X79052005Y-99495385D01*
X79230498Y-99512965D01*
X79249999Y-99514886D01*
X79250000Y-99514886D01*
X79299608Y-99510000D01*
X80287520Y-99510000D01*
X80458149Y-99765364D01*
X80734636Y-100041851D01*
X81059750Y-100259085D01*
X81420997Y-100408718D01*
X81804495Y-100485000D01*
X82195505Y-100485000D01*
X82579003Y-100408718D01*
X82940250Y-100259085D01*
X83265364Y-100041851D01*
X83541851Y-99765364D01*
X83759085Y-99440250D01*
X83908718Y-99079003D01*
X83985000Y-98695505D01*
X83985000Y-98304495D01*
X83908718Y-97920997D01*
X83759085Y-97559750D01*
X83541851Y-97234636D01*
X83265364Y-96958149D01*
X82940250Y-96740915D01*
X82579003Y-96591282D01*
X82195505Y-96515000D01*
X81804495Y-96515000D01*
X81420997Y-96591282D01*
X81059750Y-96740915D01*
X80734636Y-96958149D01*
X80458149Y-97234636D01*
X80287520Y-97490000D01*
X79668356Y-97490000D01*
X79260000Y-97081645D01*
X79260000Y-92400001D01*
X80011928Y-92400001D01*
X80011928Y-94599999D01*
X80028992Y-94773253D01*
X80079529Y-94939850D01*
X80161595Y-95093386D01*
X80272039Y-95227961D01*
X80406614Y-95338405D01*
X80560150Y-95420471D01*
X80726747Y-95471008D01*
X80900001Y-95488072D01*
X83099999Y-95488072D01*
X83273253Y-95471008D01*
X83439850Y-95420471D01*
X83593386Y-95338405D01*
X83727961Y-95227961D01*
X83838405Y-95093386D01*
X83920471Y-94939850D01*
X83971008Y-94773253D01*
X83988072Y-94599999D01*
X83988072Y-92400001D01*
X83971008Y-92226747D01*
X83920471Y-92060150D01*
X83838405Y-91906614D01*
X83727961Y-91772039D01*
X83593386Y-91661595D01*
X83439850Y-91579529D01*
X83273253Y-91528992D01*
X83099999Y-91511928D01*
X80900001Y-91511928D01*
X80726747Y-91528992D01*
X80560150Y-91579529D01*
X80406614Y-91661595D01*
X80272039Y-91772039D01*
X80161595Y-91906614D01*
X80079529Y-92060150D01*
X80028992Y-92226747D01*
X80011928Y-92400001D01*
X79260000Y-92400001D01*
X79260000Y-90027542D01*
X79341383Y-89831067D01*
X79385000Y-89611788D01*
X79385000Y-89388212D01*
X79341383Y-89168933D01*
X79255824Y-88962376D01*
X79131612Y-88776480D01*
X78973520Y-88618388D01*
X78787624Y-88494176D01*
X78581067Y-88408617D01*
X78361788Y-88365000D01*
X78138212Y-88365000D01*
X77918933Y-88408617D01*
X77712376Y-88494176D01*
X77526480Y-88618388D01*
X77368388Y-88776480D01*
X77244176Y-88962376D01*
X77158617Y-89168933D01*
X77115000Y-89388212D01*
X75127000Y-89388212D01*
X75127000Y-73779872D01*
X76265000Y-73779872D01*
X76265000Y-74220128D01*
X76350890Y-74651925D01*
X76519369Y-75058669D01*
X76763962Y-75424729D01*
X77075271Y-75736038D01*
X77441331Y-75980631D01*
X77848075Y-76149110D01*
X78279872Y-76235000D01*
X78720128Y-76235000D01*
X79151925Y-76149110D01*
X79558669Y-75980631D01*
X79924729Y-75736038D01*
X80236038Y-75424729D01*
X80480631Y-75058669D01*
X80649110Y-74651925D01*
X80735000Y-74220128D01*
X80735000Y-73779872D01*
X80649110Y-73348075D01*
X80480631Y-72941331D01*
X80236038Y-72575271D01*
X79924729Y-72263962D01*
X79558669Y-72019369D01*
X79151925Y-71850890D01*
X78720128Y-71765000D01*
X78279872Y-71765000D01*
X77848075Y-71850890D01*
X77441331Y-72019369D01*
X77075271Y-72263962D01*
X76763962Y-72575271D01*
X76519369Y-72941331D01*
X76350890Y-73348075D01*
X76265000Y-73779872D01*
X75127000Y-73779872D01*
X75127000Y-70627000D01*
X90873000Y-70627000D01*
X90873000Y-74000000D01*
X90875440Y-74024776D01*
X90882667Y-74048601D01*
X90894403Y-74070557D01*
X90910197Y-74089803D01*
X90929443Y-74105597D01*
X90951399Y-74117333D01*
X90975224Y-74124560D01*
X91000000Y-74127000D01*
X119250000Y-74127000D01*
X119274776Y-74124560D01*
X119298601Y-74117333D01*
X119320557Y-74105597D01*
X119339803Y-74089803D01*
X119355597Y-74070557D01*
X119367333Y-74048601D01*
X119374560Y-74024776D01*
X119377000Y-74000000D01*
X119377000Y-70377000D01*
X153873000Y-70377000D01*
X153873000Y-112373000D01*
%TA.AperFunction,Conductor*%
D24*
G36*
X153873000Y-112373000D02*
G01*
X92056414Y-112373000D01*
X92159774Y-112303937D01*
X92303937Y-112159774D01*
X92417205Y-111990256D01*
X92495226Y-111801898D01*
X92535000Y-111601939D01*
X92535000Y-111398061D01*
X92495226Y-111198102D01*
X92417205Y-111009744D01*
X92303937Y-110840226D01*
X92159774Y-110696063D01*
X91990256Y-110582795D01*
X91801898Y-110504774D01*
X91601939Y-110465000D01*
X91398061Y-110465000D01*
X91198102Y-110504774D01*
X91009744Y-110582795D01*
X90961546Y-110615000D01*
X82538454Y-110615000D01*
X82490256Y-110582795D01*
X82301898Y-110504774D01*
X82101939Y-110465000D01*
X81898061Y-110465000D01*
X81698102Y-110504774D01*
X81509744Y-110582795D01*
X81340226Y-110696063D01*
X81196063Y-110840226D01*
X81082795Y-111009744D01*
X81004774Y-111198102D01*
X80965000Y-111398061D01*
X80965000Y-111601939D01*
X81004774Y-111801898D01*
X81082795Y-111990256D01*
X81196063Y-112159774D01*
X81340226Y-112303937D01*
X81443586Y-112373000D01*
X75127000Y-112373000D01*
X75127000Y-108779872D01*
X76515000Y-108779872D01*
X76515000Y-109220128D01*
X76600890Y-109651925D01*
X76769369Y-110058669D01*
X77013962Y-110424729D01*
X77325271Y-110736038D01*
X77691331Y-110980631D01*
X78098075Y-111149110D01*
X78529872Y-111235000D01*
X78970128Y-111235000D01*
X79401925Y-111149110D01*
X79808669Y-110980631D01*
X80174729Y-110736038D01*
X80486038Y-110424729D01*
X80730631Y-110058669D01*
X80899110Y-109651925D01*
X80985000Y-109220128D01*
X80985000Y-108952487D01*
X81004774Y-109051898D01*
X81082795Y-109240256D01*
X81196063Y-109409774D01*
X81340226Y-109553937D01*
X81509744Y-109667205D01*
X81698102Y-109745226D01*
X81898061Y-109785000D01*
X82101939Y-109785000D01*
X82301898Y-109745226D01*
X82490256Y-109667205D01*
X82538454Y-109635000D01*
X90961546Y-109635000D01*
X91009744Y-109667205D01*
X91198102Y-109745226D01*
X91398061Y-109785000D01*
X91601939Y-109785000D01*
X91801898Y-109745226D01*
X91990256Y-109667205D01*
X92159774Y-109553937D01*
X92303937Y-109409774D01*
X92417205Y-109240256D01*
X92495226Y-109051898D01*
X92535000Y-108851939D01*
X92535000Y-108648061D01*
X92495226Y-108448102D01*
X92417205Y-108259744D01*
X92303937Y-108090226D01*
X92159774Y-107946063D01*
X91990256Y-107832795D01*
X91801898Y-107754774D01*
X91601939Y-107715000D01*
X91398061Y-107715000D01*
X91198102Y-107754774D01*
X91009744Y-107832795D01*
X90961546Y-107865000D01*
X82538454Y-107865000D01*
X82490256Y-107832795D01*
X82301898Y-107754774D01*
X82101939Y-107715000D01*
X81898061Y-107715000D01*
X81698102Y-107754774D01*
X81509744Y-107832795D01*
X81340226Y-107946063D01*
X81196063Y-108090226D01*
X81082795Y-108259744D01*
X81004774Y-108448102D01*
X80965000Y-108648061D01*
X80965000Y-108679325D01*
X80899110Y-108348075D01*
X80730631Y-107941331D01*
X80486038Y-107575271D01*
X80174729Y-107263962D01*
X79808669Y-107019369D01*
X79401925Y-106850890D01*
X78970128Y-106765000D01*
X78529872Y-106765000D01*
X78098075Y-106850890D01*
X77691331Y-107019369D01*
X77325271Y-107263962D01*
X77013962Y-107575271D01*
X76769369Y-107941331D01*
X76600890Y-108348075D01*
X76515000Y-108779872D01*
X75127000Y-108779872D01*
X75127000Y-103898061D01*
X78965000Y-103898061D01*
X78965000Y-104101939D01*
X79004774Y-104301898D01*
X79082795Y-104490256D01*
X79196063Y-104659774D01*
X79340226Y-104803937D01*
X79509744Y-104917205D01*
X79698102Y-104995226D01*
X79898061Y-105035000D01*
X80101939Y-105035000D01*
X80301898Y-104995226D01*
X80490256Y-104917205D01*
X80659774Y-104803937D01*
X80803937Y-104659774D01*
X80917205Y-104490256D01*
X80995226Y-104301898D01*
X81003560Y-104260000D01*
X86046289Y-104260000D01*
X86090226Y-104303937D01*
X86259744Y-104417205D01*
X86448102Y-104495226D01*
X86648061Y-104535000D01*
X86851939Y-104535000D01*
X87051898Y-104495226D01*
X87240256Y-104417205D01*
X87409774Y-104303937D01*
X87553937Y-104159774D01*
X87667205Y-103990256D01*
X87745226Y-103801898D01*
X87785000Y-103601939D01*
X87785000Y-103398061D01*
X87745226Y-103198102D01*
X87667205Y-103009744D01*
X87553937Y-102840226D01*
X87409774Y-102696063D01*
X87240256Y-102582795D01*
X87051898Y-102504774D01*
X86851939Y-102465000D01*
X86648061Y-102465000D01*
X86448102Y-102504774D01*
X86259744Y-102582795D01*
X86090226Y-102696063D01*
X86046289Y-102740000D01*
X80537325Y-102740000D01*
X80500000Y-102736324D01*
X80462675Y-102740000D01*
X80462667Y-102740000D01*
X80351014Y-102750997D01*
X80207753Y-102794454D01*
X80075724Y-102865026D01*
X79959999Y-102959999D01*
X79955895Y-102965000D01*
X79898061Y-102965000D01*
X79698102Y-103004774D01*
X79509744Y-103082795D01*
X79340226Y-103196063D01*
X79196063Y-103340226D01*
X79082795Y-103509744D01*
X79004774Y-103698102D01*
X78965000Y-103898061D01*
X75127000Y-103898061D01*
X75127000Y-101148061D01*
X78715000Y-101148061D01*
X78715000Y-101351939D01*
X78754774Y-101551898D01*
X78832795Y-101740256D01*
X78946063Y-101909774D01*
X79090226Y-102053937D01*
X79259744Y-102167205D01*
X79448102Y-102245226D01*
X79648061Y-102285000D01*
X79851939Y-102285000D01*
X80051898Y-102245226D01*
X80240256Y-102167205D01*
X80409774Y-102053937D01*
X80453711Y-102010000D01*
X87685199Y-102010000D01*
X88686200Y-103011002D01*
X88709999Y-103040001D01*
X88738997Y-103063799D01*
X88825723Y-103134974D01*
X88940012Y-103196063D01*
X88957753Y-103205546D01*
X89101014Y-103249003D01*
X89212667Y-103260000D01*
X89212677Y-103260000D01*
X89250000Y-103263676D01*
X89287323Y-103260000D01*
X94212678Y-103260000D01*
X94250000Y-103263676D01*
X94287322Y-103260000D01*
X94287333Y-103260000D01*
X94398986Y-103249003D01*
X94542247Y-103205546D01*
X94674276Y-103134974D01*
X94790001Y-103040001D01*
X94813804Y-103010997D01*
X95114291Y-102710510D01*
X95198102Y-102745226D01*
X95398061Y-102785000D01*
X95601939Y-102785000D01*
X95801898Y-102745226D01*
X95990256Y-102667205D01*
X96159774Y-102553937D01*
X96303937Y-102409774D01*
X96417205Y-102240256D01*
X96495226Y-102051898D01*
X96535000Y-101851939D01*
X96535000Y-101648061D01*
X96495226Y-101448102D01*
X96417205Y-101259744D01*
X96303937Y-101090226D01*
X96260000Y-101046289D01*
X96260000Y-94314801D01*
X97011003Y-93563799D01*
X97040001Y-93540001D01*
X97134974Y-93424276D01*
X97205546Y-93292247D01*
X97249003Y-93148986D01*
X97260000Y-93037333D01*
X97263677Y-93000000D01*
X97260000Y-92962667D01*
X97260000Y-89814515D01*
X97332795Y-89990256D01*
X97446063Y-90159774D01*
X97590226Y-90303937D01*
X97759744Y-90417205D01*
X97948102Y-90495226D01*
X98148061Y-90535000D01*
X98351939Y-90535000D01*
X98551898Y-90495226D01*
X98740256Y-90417205D01*
X98909774Y-90303937D01*
X98953711Y-90260000D01*
X99212678Y-90260000D01*
X99250000Y-90263676D01*
X99287322Y-90260000D01*
X99287333Y-90260000D01*
X99398986Y-90249003D01*
X99542247Y-90205546D01*
X99674276Y-90134974D01*
X99790001Y-90040001D01*
X99813803Y-90010998D01*
X100011003Y-89813799D01*
X100040001Y-89790001D01*
X100134974Y-89674276D01*
X100205546Y-89542247D01*
X100249003Y-89398986D01*
X100260000Y-89287333D01*
X100260000Y-89287324D01*
X100263676Y-89250001D01*
X100260000Y-89212678D01*
X100260000Y-77814801D01*
X100564802Y-77510000D01*
X118026289Y-77510000D01*
X117946063Y-77590226D01*
X117832795Y-77759744D01*
X117754774Y-77948102D01*
X117715000Y-78148061D01*
X117715000Y-78351939D01*
X117754774Y-78551898D01*
X117832795Y-78740256D01*
X117946063Y-78909774D01*
X118090226Y-79053937D01*
X118259744Y-79167205D01*
X118448102Y-79245226D01*
X118648061Y-79285000D01*
X118851939Y-79285000D01*
X119051898Y-79245226D01*
X119240256Y-79167205D01*
X119409774Y-79053937D01*
X119553937Y-78909774D01*
X119667205Y-78740256D01*
X119745226Y-78551898D01*
X119785000Y-78351939D01*
X119785000Y-78289802D01*
X119814802Y-78260000D01*
X122880994Y-78260000D01*
X122875408Y-78316720D01*
X122875408Y-80016720D01*
X122887668Y-80141202D01*
X122923978Y-80260900D01*
X122982943Y-80371214D01*
X123062295Y-80467905D01*
X123158986Y-80547257D01*
X123269300Y-80606222D01*
X123388998Y-80642532D01*
X123513480Y-80654792D01*
X125213480Y-80654792D01*
X125337962Y-80642532D01*
X125457660Y-80606222D01*
X125567974Y-80547257D01*
X125664665Y-80467905D01*
X125744017Y-80371214D01*
X125802982Y-80260900D01*
X125824993Y-80188340D01*
X125956848Y-80320195D01*
X126200069Y-80482710D01*
X126470322Y-80594652D01*
X126757220Y-80651720D01*
X127049740Y-80651720D01*
X127336638Y-80594652D01*
X127606891Y-80482710D01*
X127850112Y-80320195D01*
X128056955Y-80113352D01*
X128219470Y-79870131D01*
X128331412Y-79599878D01*
X128388480Y-79312980D01*
X128388480Y-79213282D01*
X128490001Y-79314803D01*
X128490000Y-81761928D01*
X128400000Y-81761928D01*
X128275518Y-81774188D01*
X128155820Y-81810498D01*
X128045506Y-81869463D01*
X128000000Y-81906809D01*
X127954494Y-81869463D01*
X127844180Y-81810498D01*
X127724482Y-81774188D01*
X127600000Y-81761928D01*
X125900000Y-81761928D01*
X125775518Y-81774188D01*
X125655820Y-81810498D01*
X125545506Y-81869463D01*
X125500000Y-81906809D01*
X125454494Y-81869463D01*
X125344180Y-81810498D01*
X125224482Y-81774188D01*
X125100000Y-81761928D01*
X124586729Y-81761928D01*
X124313804Y-81489003D01*
X124290001Y-81459999D01*
X124174276Y-81365026D01*
X124042247Y-81294454D01*
X123898986Y-81250997D01*
X123787333Y-81240000D01*
X123787322Y-81240000D01*
X123750000Y-81236324D01*
X123712678Y-81240000D01*
X112453711Y-81240000D01*
X112409774Y-81196063D01*
X112240256Y-81082795D01*
X112051898Y-81004774D01*
X111851939Y-80965000D01*
X111648061Y-80965000D01*
X111448102Y-81004774D01*
X111259744Y-81082795D01*
X111090226Y-81196063D01*
X110946063Y-81340226D01*
X110832795Y-81509744D01*
X110754774Y-81698102D01*
X110715000Y-81898061D01*
X110715000Y-82101939D01*
X110754774Y-82301898D01*
X110832795Y-82490256D01*
X110946063Y-82659774D01*
X111090226Y-82803937D01*
X111259744Y-82917205D01*
X111448102Y-82995226D01*
X111648061Y-83035000D01*
X111851939Y-83035000D01*
X112051898Y-82995226D01*
X112240256Y-82917205D01*
X112409774Y-82803937D01*
X112453711Y-82760000D01*
X120261928Y-82760000D01*
X120261928Y-84100000D01*
X120274188Y-84224482D01*
X120301646Y-84315000D01*
X119712322Y-84315000D01*
X119674999Y-84311324D01*
X119637676Y-84315000D01*
X119637667Y-84315000D01*
X119526014Y-84325997D01*
X119397347Y-84365027D01*
X119382753Y-84369454D01*
X119250723Y-84440026D01*
X119176429Y-84500998D01*
X119134999Y-84534999D01*
X119111200Y-84563998D01*
X118960198Y-84715000D01*
X118898061Y-84715000D01*
X118698102Y-84754774D01*
X118509744Y-84832795D01*
X118340226Y-84946063D01*
X118196063Y-85090226D01*
X118082795Y-85259744D01*
X118004774Y-85448102D01*
X117965000Y-85648061D01*
X117965000Y-85851939D01*
X118004774Y-86051898D01*
X118082795Y-86240256D01*
X118196063Y-86409774D01*
X118340226Y-86553937D01*
X118509744Y-86667205D01*
X118685485Y-86740000D01*
X117287322Y-86740000D01*
X117249999Y-86736324D01*
X117212676Y-86740000D01*
X117212667Y-86740000D01*
X117101014Y-86750997D01*
X116957753Y-86794454D01*
X116825724Y-86865026D01*
X116709999Y-86959999D01*
X116707245Y-86963355D01*
X116705546Y-86957753D01*
X116634974Y-86825724D01*
X116540001Y-86709999D01*
X116511003Y-86686201D01*
X116313803Y-86489002D01*
X116290001Y-86459999D01*
X116174276Y-86365026D01*
X116042247Y-86294454D01*
X115993325Y-86279614D01*
X115909774Y-86196063D01*
X115740256Y-86082795D01*
X115551898Y-86004774D01*
X115351939Y-85965000D01*
X115148061Y-85965000D01*
X114948102Y-86004774D01*
X114759744Y-86082795D01*
X114590226Y-86196063D01*
X114510000Y-86276289D01*
X114510000Y-85787325D01*
X114513676Y-85750000D01*
X114510000Y-85712675D01*
X114510000Y-85712667D01*
X114499003Y-85601014D01*
X114455546Y-85457753D01*
X114384974Y-85325724D01*
X114290001Y-85209999D01*
X114260998Y-85186197D01*
X113813804Y-84739003D01*
X113790001Y-84709999D01*
X113674276Y-84615026D01*
X113542247Y-84544454D01*
X113398986Y-84500997D01*
X113287333Y-84490000D01*
X113287322Y-84490000D01*
X113250000Y-84486324D01*
X113212678Y-84490000D01*
X112453711Y-84490000D01*
X112409774Y-84446063D01*
X112240256Y-84332795D01*
X112051898Y-84254774D01*
X111851939Y-84215000D01*
X111648061Y-84215000D01*
X111448102Y-84254774D01*
X111259744Y-84332795D01*
X111090226Y-84446063D01*
X110946063Y-84590226D01*
X110832795Y-84759744D01*
X110754774Y-84948102D01*
X110715000Y-85148061D01*
X110715000Y-85351939D01*
X110754774Y-85551898D01*
X110832795Y-85740256D01*
X110946063Y-85909774D01*
X111090226Y-86053937D01*
X111259744Y-86167205D01*
X111448102Y-86245226D01*
X111648061Y-86285000D01*
X111851939Y-86285000D01*
X112051898Y-86245226D01*
X112240256Y-86167205D01*
X112409774Y-86053937D01*
X112453711Y-86010000D01*
X112935199Y-86010000D01*
X112990000Y-86064801D01*
X112990001Y-94546288D01*
X112946063Y-94590226D01*
X112832795Y-94759744D01*
X112754774Y-94948102D01*
X112715000Y-95148061D01*
X112715000Y-95351939D01*
X112754774Y-95551898D01*
X112832795Y-95740256D01*
X112946063Y-95909774D01*
X113090226Y-96053937D01*
X113259744Y-96167205D01*
X113448102Y-96245226D01*
X113648061Y-96285000D01*
X113851939Y-96285000D01*
X113990000Y-96257538D01*
X113990000Y-97462677D01*
X113986324Y-97500000D01*
X113990000Y-97537322D01*
X113990000Y-97537332D01*
X114000997Y-97648985D01*
X114035788Y-97763677D01*
X114044454Y-97792246D01*
X114115026Y-97924276D01*
X114134580Y-97948102D01*
X114209999Y-98040001D01*
X114239003Y-98063804D01*
X114358831Y-98183632D01*
X114340226Y-98196063D01*
X114296289Y-98240000D01*
X109260000Y-98240000D01*
X109260000Y-97537322D01*
X109263676Y-97499999D01*
X109260000Y-97462676D01*
X109260000Y-97462667D01*
X109249003Y-97351014D01*
X109205546Y-97207753D01*
X109134974Y-97075724D01*
X109040001Y-96959999D01*
X109010997Y-96936196D01*
X108688804Y-96614003D01*
X108688799Y-96613997D01*
X107710510Y-95635709D01*
X107745226Y-95551898D01*
X107785000Y-95351939D01*
X107785000Y-95148061D01*
X107745226Y-94948102D01*
X107667205Y-94759744D01*
X107553937Y-94590226D01*
X107409774Y-94446063D01*
X107240256Y-94332795D01*
X107051898Y-94254774D01*
X106851939Y-94215000D01*
X106648061Y-94215000D01*
X106448102Y-94254774D01*
X106259744Y-94332795D01*
X106090226Y-94446063D01*
X105946063Y-94590226D01*
X105832795Y-94759744D01*
X105754774Y-94948102D01*
X105715000Y-95148061D01*
X105715000Y-95239876D01*
X105689502Y-95155820D01*
X105630537Y-95045506D01*
X105551185Y-94948815D01*
X105454494Y-94869463D01*
X105344180Y-94810498D01*
X105224482Y-94774188D01*
X105100000Y-94761928D01*
X105010000Y-94761928D01*
X105010000Y-91703711D01*
X105053937Y-91659774D01*
X105167205Y-91490256D01*
X105245226Y-91301898D01*
X105285000Y-91101939D01*
X105285000Y-90898061D01*
X108215000Y-90898061D01*
X108215000Y-91101939D01*
X108254774Y-91301898D01*
X108332795Y-91490256D01*
X108446063Y-91659774D01*
X108490001Y-91703712D01*
X108490000Y-92712667D01*
X108490000Y-92712668D01*
X108490001Y-93962658D01*
X108490000Y-93962668D01*
X108490000Y-94546289D01*
X108446063Y-94590226D01*
X108332795Y-94759744D01*
X108254774Y-94948102D01*
X108215000Y-95148061D01*
X108215000Y-95351939D01*
X108254774Y-95551898D01*
X108332795Y-95740256D01*
X108446063Y-95909774D01*
X108590226Y-96053937D01*
X108759744Y-96167205D01*
X108948102Y-96245226D01*
X109148061Y-96285000D01*
X109351939Y-96285000D01*
X109551898Y-96245226D01*
X109740256Y-96167205D01*
X109909774Y-96053937D01*
X110053937Y-95909774D01*
X110167205Y-95740256D01*
X110245226Y-95551898D01*
X110285000Y-95351939D01*
X110285000Y-95148061D01*
X110245226Y-94948102D01*
X110167205Y-94759744D01*
X110053937Y-94590226D01*
X110010000Y-94546289D01*
X110010000Y-91703711D01*
X110053937Y-91659774D01*
X110167205Y-91490256D01*
X110245226Y-91301898D01*
X110285000Y-91101939D01*
X110285000Y-90898061D01*
X110465000Y-90898061D01*
X110465000Y-91101939D01*
X110504774Y-91301898D01*
X110582795Y-91490256D01*
X110696063Y-91659774D01*
X110740000Y-91703711D01*
X110740001Y-94578608D01*
X110712223Y-94606386D01*
X110598955Y-94775904D01*
X110520934Y-94964262D01*
X110481160Y-95164221D01*
X110481160Y-95368099D01*
X110520934Y-95568058D01*
X110598955Y-95756416D01*
X110712223Y-95925934D01*
X110856386Y-96070097D01*
X111025904Y-96183365D01*
X111214262Y-96261386D01*
X111414221Y-96301160D01*
X111618099Y-96301160D01*
X111818058Y-96261386D01*
X112006416Y-96183365D01*
X112175934Y-96070097D01*
X112320097Y-95925934D01*
X112433365Y-95756416D01*
X112511386Y-95568058D01*
X112551160Y-95368099D01*
X112551160Y-95164221D01*
X112511386Y-94964262D01*
X112433365Y-94775904D01*
X112320097Y-94606386D01*
X112260000Y-94546289D01*
X112260000Y-91703711D01*
X112303937Y-91659774D01*
X112417205Y-91490256D01*
X112495226Y-91301898D01*
X112535000Y-91101939D01*
X112535000Y-90898061D01*
X112495226Y-90698102D01*
X112417205Y-90509744D01*
X112303937Y-90340226D01*
X112159774Y-90196063D01*
X111990256Y-90082795D01*
X111801898Y-90004774D01*
X111601939Y-89965000D01*
X111398061Y-89965000D01*
X111198102Y-90004774D01*
X111009744Y-90082795D01*
X110840226Y-90196063D01*
X110696063Y-90340226D01*
X110582795Y-90509744D01*
X110504774Y-90698102D01*
X110465000Y-90898061D01*
X110285000Y-90898061D01*
X110245226Y-90698102D01*
X110167205Y-90509744D01*
X110053937Y-90340226D01*
X109909774Y-90196063D01*
X109740256Y-90082795D01*
X109551898Y-90004774D01*
X109351939Y-89965000D01*
X109148061Y-89965000D01*
X108948102Y-90004774D01*
X108759744Y-90082795D01*
X108590226Y-90196063D01*
X108446063Y-90340226D01*
X108332795Y-90509744D01*
X108254774Y-90698102D01*
X108215000Y-90898061D01*
X105285000Y-90898061D01*
X105245226Y-90698102D01*
X105167205Y-90509744D01*
X105053937Y-90340226D01*
X104909774Y-90196063D01*
X104740256Y-90082795D01*
X104551898Y-90004774D01*
X104351939Y-89965000D01*
X104148061Y-89965000D01*
X103948102Y-90004774D01*
X103759744Y-90082795D01*
X103590226Y-90196063D01*
X103446063Y-90340226D01*
X103332795Y-90509744D01*
X103254774Y-90698102D01*
X103215000Y-90898061D01*
X103215000Y-91101939D01*
X103254774Y-91301898D01*
X103332795Y-91490256D01*
X103446063Y-91659774D01*
X103490001Y-91703712D01*
X103490000Y-94212667D01*
X103490000Y-94761928D01*
X103400000Y-94761928D01*
X103275518Y-94774188D01*
X103155820Y-94810498D01*
X103045506Y-94869463D01*
X102948815Y-94948815D01*
X102869463Y-95045506D01*
X102810498Y-95155820D01*
X102788487Y-95228380D01*
X102656632Y-95096525D01*
X102413411Y-94934010D01*
X102143158Y-94822068D01*
X101856260Y-94765000D01*
X101563740Y-94765000D01*
X101276842Y-94822068D01*
X101006589Y-94934010D01*
X100763368Y-95096525D01*
X100556525Y-95303368D01*
X100394010Y-95546589D01*
X100282068Y-95816842D01*
X100252597Y-95965000D01*
X100148061Y-95965000D01*
X99948102Y-96004774D01*
X99759744Y-96082795D01*
X99590226Y-96196063D01*
X99446063Y-96340226D01*
X99332795Y-96509744D01*
X99254774Y-96698102D01*
X99215000Y-96898061D01*
X99215000Y-97101939D01*
X99254774Y-97301898D01*
X99332795Y-97490256D01*
X99446063Y-97659774D01*
X99490001Y-97703712D01*
X99490000Y-100462677D01*
X99486324Y-100500000D01*
X99490000Y-100537322D01*
X99490000Y-100537332D01*
X99500997Y-100648985D01*
X99531942Y-100750998D01*
X99544454Y-100792246D01*
X99615026Y-100924276D01*
X99646533Y-100962667D01*
X99709999Y-101040001D01*
X99739003Y-101063804D01*
X101686200Y-103011002D01*
X101709999Y-103040001D01*
X101738997Y-103063799D01*
X101825723Y-103134974D01*
X101940012Y-103196063D01*
X101957753Y-103205546D01*
X102101014Y-103249003D01*
X102212667Y-103260000D01*
X102212676Y-103260000D01*
X102249999Y-103263676D01*
X102287322Y-103260000D01*
X111435199Y-103260000D01*
X111490001Y-103314802D01*
X111490000Y-103796289D01*
X111446063Y-103840226D01*
X111332795Y-104009744D01*
X111254774Y-104198102D01*
X111215000Y-104398061D01*
X111215000Y-104601939D01*
X111254774Y-104801898D01*
X111332795Y-104990256D01*
X111446063Y-105159774D01*
X111590226Y-105303937D01*
X111759744Y-105417205D01*
X111948102Y-105495226D01*
X112148061Y-105535000D01*
X112351939Y-105535000D01*
X112551898Y-105495226D01*
X112740256Y-105417205D01*
X112909774Y-105303937D01*
X113006601Y-105207110D01*
X113006601Y-106300981D01*
X112819968Y-106425685D01*
X112613125Y-106632528D01*
X112496600Y-106806920D01*
X112380075Y-106632528D01*
X112173232Y-106425685D01*
X111930011Y-106263170D01*
X111659758Y-106151228D01*
X111372860Y-106094160D01*
X111080340Y-106094160D01*
X110793442Y-106151228D01*
X110523189Y-106263170D01*
X110279968Y-106425685D01*
X110148113Y-106557540D01*
X110126102Y-106484980D01*
X110067137Y-106374666D01*
X109987785Y-106277975D01*
X109891094Y-106198623D01*
X109780780Y-106139658D01*
X109661082Y-106103348D01*
X109536600Y-106091088D01*
X107836600Y-106091088D01*
X107712118Y-106103348D01*
X107592420Y-106139658D01*
X107482106Y-106198623D01*
X107385415Y-106277975D01*
X107306063Y-106374666D01*
X107247098Y-106484980D01*
X107210788Y-106604678D01*
X107198528Y-106729160D01*
X107198528Y-108429160D01*
X107210788Y-108553642D01*
X107247098Y-108673340D01*
X107306063Y-108783654D01*
X107385415Y-108880345D01*
X107482106Y-108959697D01*
X107592420Y-109018662D01*
X107712118Y-109054972D01*
X107836600Y-109067232D01*
X109536600Y-109067232D01*
X109661082Y-109054972D01*
X109780780Y-109018662D01*
X109891094Y-108959697D01*
X109987785Y-108880345D01*
X110067137Y-108783654D01*
X110126102Y-108673340D01*
X110148113Y-108600780D01*
X110279968Y-108732635D01*
X110523189Y-108895150D01*
X110793442Y-109007092D01*
X111080340Y-109064160D01*
X111372860Y-109064160D01*
X111659758Y-109007092D01*
X111930011Y-108895150D01*
X112173232Y-108732635D01*
X112380075Y-108525792D01*
X112496600Y-108351400D01*
X112613125Y-108525792D01*
X112819968Y-108732635D01*
X113063189Y-108895150D01*
X113333442Y-109007092D01*
X113620340Y-109064160D01*
X113912860Y-109064160D01*
X114199758Y-109007092D01*
X114470011Y-108895150D01*
X114713232Y-108732635D01*
X114920075Y-108525792D01*
X115036600Y-108351400D01*
X115153125Y-108525792D01*
X115359968Y-108732635D01*
X115603189Y-108895150D01*
X115873442Y-109007092D01*
X116160340Y-109064160D01*
X116452860Y-109064160D01*
X116739758Y-109007092D01*
X117010011Y-108895150D01*
X117253232Y-108732635D01*
X117460075Y-108525792D01*
X117490000Y-108481005D01*
X117490001Y-109140000D01*
X99356224Y-109140000D01*
X99110000Y-108893777D01*
X99110000Y-106148061D01*
X100215000Y-106148061D01*
X100215000Y-106351939D01*
X100254774Y-106551898D01*
X100332795Y-106740256D01*
X100446063Y-106909774D01*
X100590226Y-107053937D01*
X100759744Y-107167205D01*
X100948102Y-107245226D01*
X101148061Y-107285000D01*
X101351939Y-107285000D01*
X101551898Y-107245226D01*
X101740256Y-107167205D01*
X101788454Y-107135000D01*
X103711546Y-107135000D01*
X103759744Y-107167205D01*
X103948102Y-107245226D01*
X104148061Y-107285000D01*
X104351939Y-107285000D01*
X104551898Y-107245226D01*
X104740256Y-107167205D01*
X104909774Y-107053937D01*
X105053937Y-106909774D01*
X105167205Y-106740256D01*
X105245226Y-106551898D01*
X105285000Y-106351939D01*
X105285000Y-106148061D01*
X105245226Y-105948102D01*
X105167205Y-105759744D01*
X105053937Y-105590226D01*
X104909774Y-105446063D01*
X104740256Y-105332795D01*
X104551898Y-105254774D01*
X104351939Y-105215000D01*
X104148061Y-105215000D01*
X103948102Y-105254774D01*
X103759744Y-105332795D01*
X103711546Y-105365000D01*
X101788454Y-105365000D01*
X101740256Y-105332795D01*
X101551898Y-105254774D01*
X101351939Y-105215000D01*
X101148061Y-105215000D01*
X100948102Y-105254774D01*
X100759744Y-105332795D01*
X100590226Y-105446063D01*
X100446063Y-105590226D01*
X100332795Y-105759744D01*
X100254774Y-105948102D01*
X100215000Y-106148061D01*
X99110000Y-106148061D01*
X99110000Y-102325870D01*
X99167205Y-102240256D01*
X99245226Y-102051898D01*
X99285000Y-101851939D01*
X99285000Y-101648061D01*
X99245226Y-101448102D01*
X99167205Y-101259744D01*
X99053937Y-101090226D01*
X98909774Y-100946063D01*
X98740256Y-100832795D01*
X98551898Y-100754774D01*
X98351939Y-100715000D01*
X98148061Y-100715000D01*
X97948102Y-100754774D01*
X97759744Y-100832795D01*
X97590226Y-100946063D01*
X97446063Y-101090226D01*
X97332795Y-101259744D01*
X97254774Y-101448102D01*
X97215000Y-101648061D01*
X97215000Y-101851939D01*
X97254774Y-102051898D01*
X97332795Y-102240256D01*
X97390000Y-102325870D01*
X97390001Y-109207751D01*
X97385840Y-109250000D01*
X97402444Y-109418589D01*
X97433176Y-109519897D01*
X97451620Y-109580700D01*
X97531477Y-109730102D01*
X97638947Y-109861054D01*
X97671760Y-109887983D01*
X98362016Y-110578240D01*
X98388946Y-110611054D01*
X98519898Y-110718524D01*
X98669300Y-110798381D01*
X98782235Y-110832639D01*
X98831410Y-110847556D01*
X98848558Y-110849245D01*
X98957754Y-110860000D01*
X98957760Y-110860000D01*
X98999999Y-110864160D01*
X99042238Y-110860000D01*
X122957761Y-110860000D01*
X123000000Y-110864160D01*
X123042239Y-110860000D01*
X123042246Y-110860000D01*
X123168589Y-110847556D01*
X123330700Y-110798381D01*
X123480102Y-110718524D01*
X123611054Y-110611054D01*
X123637988Y-110578235D01*
X124856224Y-109360000D01*
X131424130Y-109360000D01*
X131509744Y-109417205D01*
X131698102Y-109495226D01*
X131898061Y-109535000D01*
X132101939Y-109535000D01*
X132301898Y-109495226D01*
X132490256Y-109417205D01*
X132659774Y-109303937D01*
X132803937Y-109159774D01*
X132917205Y-108990256D01*
X132995226Y-108801898D01*
X133035000Y-108601939D01*
X133035000Y-108398061D01*
X133007538Y-108260000D01*
X133606679Y-108260000D01*
X133559574Y-108373721D01*
X133510000Y-108622946D01*
X133510000Y-108877054D01*
X133559574Y-109126279D01*
X133656817Y-109361044D01*
X133797991Y-109572327D01*
X133977673Y-109752009D01*
X134188956Y-109893183D01*
X134423721Y-109990426D01*
X134672946Y-110040000D01*
X134927054Y-110040000D01*
X135176279Y-109990426D01*
X135411044Y-109893183D01*
X135622327Y-109752009D01*
X135802009Y-109572327D01*
X135943183Y-109361044D01*
X136040426Y-109126279D01*
X136070000Y-108977601D01*
X136099574Y-109126279D01*
X136196817Y-109361044D01*
X136337991Y-109572327D01*
X136517673Y-109752009D01*
X136728956Y-109893183D01*
X136963721Y-109990426D01*
X137212946Y-110040000D01*
X137467054Y-110040000D01*
X137716279Y-109990426D01*
X137951044Y-109893183D01*
X138162327Y-109752009D01*
X138342009Y-109572327D01*
X138483183Y-109361044D01*
X138580426Y-109126279D01*
X138610000Y-108977601D01*
X138639574Y-109126279D01*
X138736817Y-109361044D01*
X138877991Y-109572327D01*
X139057673Y-109752009D01*
X139268956Y-109893183D01*
X139503721Y-109990426D01*
X139752946Y-110040000D01*
X140007054Y-110040000D01*
X140256279Y-109990426D01*
X140491044Y-109893183D01*
X140702327Y-109752009D01*
X140882009Y-109572327D01*
X141023183Y-109361044D01*
X141120426Y-109126279D01*
X141150000Y-108977601D01*
X141179574Y-109126279D01*
X141276817Y-109361044D01*
X141417991Y-109572327D01*
X141597673Y-109752009D01*
X141808956Y-109893183D01*
X142043721Y-109990426D01*
X142292946Y-110040000D01*
X142547054Y-110040000D01*
X142796279Y-109990426D01*
X143031044Y-109893183D01*
X143242327Y-109752009D01*
X143422009Y-109572327D01*
X143563183Y-109361044D01*
X143660426Y-109126279D01*
X143690000Y-108977601D01*
X143719574Y-109126279D01*
X143816817Y-109361044D01*
X143957991Y-109572327D01*
X144137673Y-109752009D01*
X144348956Y-109893183D01*
X144583721Y-109990426D01*
X144832946Y-110040000D01*
X145087054Y-110040000D01*
X145336279Y-109990426D01*
X145571044Y-109893183D01*
X145782327Y-109752009D01*
X145962009Y-109572327D01*
X146003654Y-109510000D01*
X146282626Y-109510000D01*
X146356595Y-109648386D01*
X146467038Y-109782962D01*
X146601614Y-109893405D01*
X146755150Y-109975472D01*
X146921746Y-110026008D01*
X147095000Y-110043072D01*
X147905000Y-110043072D01*
X148078254Y-110026008D01*
X148244850Y-109975472D01*
X148398386Y-109893405D01*
X148532962Y-109782962D01*
X148643405Y-109648386D01*
X148725472Y-109494850D01*
X148776008Y-109328254D01*
X148793072Y-109155000D01*
X148793072Y-108345000D01*
X148776008Y-108171746D01*
X148725472Y-108005150D01*
X148643405Y-107851614D01*
X148532962Y-107717038D01*
X148398386Y-107606595D01*
X148244850Y-107524528D01*
X148078254Y-107473992D01*
X147905000Y-107456928D01*
X147843591Y-107456928D01*
X147876279Y-107450426D01*
X148111044Y-107353183D01*
X148322327Y-107212009D01*
X148502009Y-107032327D01*
X148643183Y-106821044D01*
X148740426Y-106586279D01*
X148790000Y-106337054D01*
X148790000Y-106082946D01*
X148740426Y-105833721D01*
X148643183Y-105598956D01*
X148502009Y-105387673D01*
X148322327Y-105207991D01*
X148111044Y-105066817D01*
X147876279Y-104969574D01*
X147627054Y-104920000D01*
X147372946Y-104920000D01*
X147123721Y-104969574D01*
X146888956Y-105066817D01*
X146677673Y-105207991D01*
X146497991Y-105387673D01*
X146356817Y-105598956D01*
X146259574Y-105833721D01*
X146230000Y-105982399D01*
X146200426Y-105833721D01*
X146103183Y-105598956D01*
X145962009Y-105387673D01*
X145782327Y-105207991D01*
X145571044Y-105066817D01*
X145336279Y-104969574D01*
X145087054Y-104920000D01*
X144832946Y-104920000D01*
X144583721Y-104969574D01*
X144348956Y-105066817D01*
X144137673Y-105207991D01*
X143957991Y-105387673D01*
X143816817Y-105598956D01*
X143719574Y-105833721D01*
X143690000Y-105982399D01*
X143660426Y-105833721D01*
X143563183Y-105598956D01*
X143422009Y-105387673D01*
X143242327Y-105207991D01*
X143031044Y-105066817D01*
X142796279Y-104969574D01*
X142547054Y-104920000D01*
X142292946Y-104920000D01*
X142043721Y-104969574D01*
X141808956Y-105066817D01*
X141597673Y-105207991D01*
X141417991Y-105387673D01*
X141276817Y-105598956D01*
X141179574Y-105833721D01*
X141150000Y-105982399D01*
X141120426Y-105833721D01*
X141023183Y-105598956D01*
X140882009Y-105387673D01*
X140702327Y-105207991D01*
X140491044Y-105066817D01*
X140256279Y-104969574D01*
X140007054Y-104920000D01*
X139752946Y-104920000D01*
X139503721Y-104969574D01*
X139268956Y-105066817D01*
X139057673Y-105207991D01*
X138877991Y-105387673D01*
X138736817Y-105598956D01*
X138639574Y-105833721D01*
X138610000Y-105982399D01*
X138580426Y-105833721D01*
X138483183Y-105598956D01*
X138342009Y-105387673D01*
X138162327Y-105207991D01*
X137951044Y-105066817D01*
X137716279Y-104969574D01*
X137467054Y-104920000D01*
X137212946Y-104920000D01*
X136963721Y-104969574D01*
X136728956Y-105066817D01*
X136517673Y-105207991D01*
X136337991Y-105387673D01*
X136196817Y-105598956D01*
X136099574Y-105833721D01*
X136070000Y-105982399D01*
X136040426Y-105833721D01*
X135943183Y-105598956D01*
X135802009Y-105387673D01*
X135622327Y-105207991D01*
X135411044Y-105066817D01*
X135176279Y-104969574D01*
X134927054Y-104920000D01*
X134672946Y-104920000D01*
X134423721Y-104969574D01*
X134188956Y-105066817D01*
X133977673Y-105207991D01*
X133797991Y-105387673D01*
X133656817Y-105598956D01*
X133559574Y-105833721D01*
X133510000Y-106082946D01*
X133510000Y-106337054D01*
X133559574Y-106586279D01*
X133623247Y-106740000D01*
X120064802Y-106740000D01*
X119584801Y-106260000D01*
X131296289Y-106260000D01*
X131340226Y-106303937D01*
X131509744Y-106417205D01*
X131698102Y-106495226D01*
X131898061Y-106535000D01*
X132101939Y-106535000D01*
X132301898Y-106495226D01*
X132490256Y-106417205D01*
X132659774Y-106303937D01*
X132803937Y-106159774D01*
X132917205Y-105990256D01*
X132995226Y-105801898D01*
X133035000Y-105601939D01*
X133035000Y-105398061D01*
X132995226Y-105198102D01*
X132917205Y-105009744D01*
X132803937Y-104840226D01*
X132659774Y-104696063D01*
X132490256Y-104582795D01*
X132301898Y-104504774D01*
X132277897Y-104500000D01*
X132301898Y-104495226D01*
X132490256Y-104417205D01*
X132659774Y-104303937D01*
X132803937Y-104159774D01*
X132917205Y-103990256D01*
X132995226Y-103801898D01*
X133035000Y-103601939D01*
X133035000Y-103398061D01*
X132995226Y-103198102D01*
X132917205Y-103009744D01*
X132803937Y-102840226D01*
X132659774Y-102696063D01*
X132490256Y-102582795D01*
X132301898Y-102504774D01*
X132101939Y-102465000D01*
X131898061Y-102465000D01*
X131698102Y-102504774D01*
X131509744Y-102582795D01*
X131340226Y-102696063D01*
X131296289Y-102740000D01*
X119564801Y-102740000D01*
X119510000Y-102685199D01*
X119510000Y-100860605D01*
X119625678Y-100833633D01*
X119739613Y-100782010D01*
X121298459Y-99882010D01*
X121400133Y-99809151D01*
X121485640Y-99717857D01*
X121551692Y-99611635D01*
X121595753Y-99494568D01*
X121616129Y-99371155D01*
X121612036Y-99246138D01*
X121583633Y-99124322D01*
X121532010Y-99010387D01*
X121511976Y-98975687D01*
X121590226Y-99053937D01*
X121759744Y-99167205D01*
X121948102Y-99245226D01*
X122148061Y-99285000D01*
X122210199Y-99285000D01*
X122732329Y-99807131D01*
X122731495Y-99807688D01*
X122517688Y-100021495D01*
X122349701Y-100272905D01*
X122233989Y-100552257D01*
X122175000Y-100848816D01*
X122175000Y-101151184D01*
X122233989Y-101447743D01*
X122349701Y-101727095D01*
X122517688Y-101978505D01*
X122731495Y-102192312D01*
X122982905Y-102360299D01*
X123262257Y-102476011D01*
X123558816Y-102535000D01*
X123861184Y-102535000D01*
X124157743Y-102476011D01*
X124437095Y-102360299D01*
X124688505Y-102192312D01*
X124754944Y-102125873D01*
X124760498Y-102144180D01*
X124819463Y-102254494D01*
X124898815Y-102351185D01*
X124995506Y-102430537D01*
X125105820Y-102489502D01*
X125225518Y-102525812D01*
X125350000Y-102538072D01*
X127150000Y-102538072D01*
X127274482Y-102525812D01*
X127394180Y-102489502D01*
X127504494Y-102430537D01*
X127601185Y-102351185D01*
X127680537Y-102254494D01*
X127739502Y-102144180D01*
X127775812Y-102024482D01*
X127788072Y-101900000D01*
X127788072Y-100100000D01*
X127775812Y-99975518D01*
X127739502Y-99855820D01*
X127680537Y-99745506D01*
X127601185Y-99648815D01*
X127504494Y-99569463D01*
X127394180Y-99510498D01*
X127274482Y-99474188D01*
X127150000Y-99461928D01*
X127135000Y-99461928D01*
X127135000Y-97885000D01*
X129184669Y-97885000D01*
X129001495Y-98007393D01*
X128787688Y-98221200D01*
X128619701Y-98472610D01*
X128503989Y-98751962D01*
X128445000Y-99048521D01*
X128445000Y-99350889D01*
X128503989Y-99647448D01*
X128619701Y-99926800D01*
X128787688Y-100178210D01*
X129001495Y-100392017D01*
X129252905Y-100560004D01*
X129532257Y-100675716D01*
X129828816Y-100734705D01*
X130131184Y-100734705D01*
X130427743Y-100675716D01*
X130707095Y-100560004D01*
X130958505Y-100392017D01*
X131172312Y-100178210D01*
X131340299Y-99926800D01*
X131456011Y-99647448D01*
X131515000Y-99350889D01*
X131515000Y-99048521D01*
X131477019Y-98857578D01*
X131496138Y-98862036D01*
X131621155Y-98866129D01*
X131744568Y-98845753D01*
X131861635Y-98801692D01*
X131967857Y-98735640D01*
X132059151Y-98650133D01*
X132132010Y-98548459D01*
X133032010Y-96989613D01*
X133083633Y-96875678D01*
X133112036Y-96753862D01*
X133116129Y-96628845D01*
X133095753Y-96505432D01*
X133051692Y-96388365D01*
X132985640Y-96282143D01*
X132900133Y-96190849D01*
X132798459Y-96117990D01*
X131239613Y-95217990D01*
X131125678Y-95166367D01*
X131003862Y-95137964D01*
X130878845Y-95133871D01*
X130755432Y-95154247D01*
X130638365Y-95198308D01*
X130532143Y-95264360D01*
X130440849Y-95349867D01*
X130367990Y-95451541D01*
X130010000Y-96071598D01*
X130010000Y-94076908D01*
X130077688Y-94178210D01*
X130291495Y-94392017D01*
X130542905Y-94560004D01*
X130822257Y-94675716D01*
X131118816Y-94734705D01*
X131421184Y-94734705D01*
X131717743Y-94675716D01*
X131997095Y-94560004D01*
X132248505Y-94392017D01*
X132462312Y-94178210D01*
X132630299Y-93926800D01*
X132746011Y-93647448D01*
X132805000Y-93350889D01*
X132805000Y-93048521D01*
X132746011Y-92751962D01*
X132630299Y-92472610D01*
X132501516Y-92279872D01*
X148265000Y-92279872D01*
X148265000Y-92720128D01*
X148350890Y-93151925D01*
X148519369Y-93558669D01*
X148763962Y-93924729D01*
X149075271Y-94236038D01*
X149441331Y-94480631D01*
X149848075Y-94649110D01*
X150279872Y-94735000D01*
X150720128Y-94735000D01*
X151151925Y-94649110D01*
X151558669Y-94480631D01*
X151924729Y-94236038D01*
X152236038Y-93924729D01*
X152480631Y-93558669D01*
X152649110Y-93151925D01*
X152735000Y-92720128D01*
X152735000Y-92279872D01*
X152649110Y-91848075D01*
X152480631Y-91441331D01*
X152236038Y-91075271D01*
X151924729Y-90763962D01*
X151558669Y-90519369D01*
X151151925Y-90350890D01*
X150720128Y-90265000D01*
X150279872Y-90265000D01*
X149848075Y-90350890D01*
X149441331Y-90519369D01*
X149075271Y-90763962D01*
X148763962Y-91075271D01*
X148519369Y-91441331D01*
X148350890Y-91848075D01*
X148265000Y-92279872D01*
X132501516Y-92279872D01*
X132462312Y-92221200D01*
X132248505Y-92007393D01*
X131997095Y-91839406D01*
X131726699Y-91727404D01*
X131735640Y-91717857D01*
X131801692Y-91611635D01*
X131845753Y-91494568D01*
X131866129Y-91371155D01*
X131862036Y-91246138D01*
X131833633Y-91124322D01*
X131782010Y-91010387D01*
X130882010Y-89451541D01*
X130809151Y-89349867D01*
X130717857Y-89264360D01*
X130611635Y-89198308D01*
X130494568Y-89154247D01*
X130371155Y-89133871D01*
X130246138Y-89137964D01*
X130124322Y-89166367D01*
X130010387Y-89217990D01*
X128451541Y-90117990D01*
X128349867Y-90190849D01*
X128303832Y-90240000D01*
X126627415Y-90240000D01*
X126697743Y-90226011D01*
X126977095Y-90110299D01*
X127228505Y-89942312D01*
X127442312Y-89728505D01*
X127610299Y-89477095D01*
X127726011Y-89197743D01*
X127785000Y-88901184D01*
X127785000Y-88598816D01*
X127726011Y-88302257D01*
X127610299Y-88022905D01*
X127442312Y-87771495D01*
X127228505Y-87557688D01*
X126977095Y-87389701D01*
X126697743Y-87273989D01*
X126401184Y-87215000D01*
X126098816Y-87215000D01*
X125802257Y-87273989D01*
X125522905Y-87389701D01*
X125271495Y-87557688D01*
X125205056Y-87624127D01*
X125199502Y-87605820D01*
X125140537Y-87495506D01*
X125061185Y-87398815D01*
X124964494Y-87319463D01*
X124854180Y-87260498D01*
X124734482Y-87224188D01*
X124610000Y-87211928D01*
X122810000Y-87211928D01*
X122685518Y-87224188D01*
X122565820Y-87260498D01*
X122455506Y-87319463D01*
X122358815Y-87398815D01*
X122279463Y-87495506D01*
X122220498Y-87605820D01*
X122184188Y-87725518D01*
X122171928Y-87850000D01*
X122171928Y-89650000D01*
X122184188Y-89774482D01*
X122220498Y-89894180D01*
X122279463Y-90004494D01*
X122358815Y-90101185D01*
X122455506Y-90180537D01*
X122565820Y-90239502D01*
X122685518Y-90275812D01*
X122810000Y-90288072D01*
X122950001Y-90288072D01*
X122950001Y-90422668D01*
X122946324Y-90460000D01*
X122950001Y-90497333D01*
X122954204Y-90540001D01*
X122960998Y-90608985D01*
X123004454Y-90752246D01*
X123075026Y-90884276D01*
X123146201Y-90971002D01*
X123170000Y-91000001D01*
X123198998Y-91023799D01*
X123686200Y-91511002D01*
X123709999Y-91540001D01*
X123825724Y-91634974D01*
X123957753Y-91705546D01*
X124101014Y-91749003D01*
X124212667Y-91760000D01*
X124212676Y-91760000D01*
X124249999Y-91763676D01*
X124287322Y-91760000D01*
X128487309Y-91760000D01*
X128490000Y-91787323D01*
X128490001Y-96115000D01*
X126293477Y-96115000D01*
X126250000Y-96110718D01*
X126206524Y-96115000D01*
X121793469Y-96115000D01*
X121760000Y-96111704D01*
X121760000Y-94037323D01*
X121763676Y-94000000D01*
X121760000Y-93962677D01*
X121760000Y-93962667D01*
X121749003Y-93851014D01*
X121705546Y-93707753D01*
X121634974Y-93575724D01*
X121540001Y-93459999D01*
X121511003Y-93436201D01*
X120636002Y-92561201D01*
X120563804Y-92489003D01*
X120540001Y-92459999D01*
X120424276Y-92365026D01*
X120292247Y-92294454D01*
X120229281Y-92275354D01*
X120226699Y-92272596D01*
X120497095Y-92160594D01*
X120748505Y-91992607D01*
X120962312Y-91778800D01*
X121130299Y-91527390D01*
X121246011Y-91248038D01*
X121305000Y-90951479D01*
X121305000Y-90649111D01*
X121246011Y-90352552D01*
X121130299Y-90073200D01*
X120962312Y-89821790D01*
X120748505Y-89607983D01*
X120497095Y-89439996D01*
X120217743Y-89324284D01*
X119921184Y-89265295D01*
X119618816Y-89265295D01*
X119322257Y-89324284D01*
X119042905Y-89439996D01*
X118791495Y-89607983D01*
X118577688Y-89821790D01*
X118409701Y-90073200D01*
X118293989Y-90352552D01*
X118235000Y-90649111D01*
X118235000Y-90951479D01*
X118272981Y-91142422D01*
X118253862Y-91137964D01*
X118128845Y-91133871D01*
X118005432Y-91154247D01*
X117888365Y-91198308D01*
X117782143Y-91264360D01*
X117690849Y-91349867D01*
X117617990Y-91451541D01*
X117510000Y-91638585D01*
X117510000Y-88314801D01*
X117564801Y-88260000D01*
X119296289Y-88260000D01*
X119340226Y-88303937D01*
X119509744Y-88417205D01*
X119698102Y-88495226D01*
X119898061Y-88535000D01*
X120101939Y-88535000D01*
X120301898Y-88495226D01*
X120490256Y-88417205D01*
X120659774Y-88303937D01*
X120803937Y-88159774D01*
X120917205Y-87990256D01*
X120995226Y-87801898D01*
X121035000Y-87601939D01*
X121035000Y-87398061D01*
X120995226Y-87198102D01*
X120917205Y-87009744D01*
X120803937Y-86840226D01*
X120659774Y-86696063D01*
X120490256Y-86582795D01*
X120301898Y-86504774D01*
X120101939Y-86465000D01*
X119898061Y-86465000D01*
X119711627Y-86502084D01*
X119803937Y-86409774D01*
X119917205Y-86240256D01*
X119995226Y-86051898D01*
X120035000Y-85851939D01*
X120035000Y-85835000D01*
X120542315Y-85835000D01*
X120584310Y-85838620D01*
X120654053Y-85830891D01*
X120723986Y-85824003D01*
X120728465Y-85822644D01*
X120733106Y-85822130D01*
X120799971Y-85800954D01*
X120867247Y-85780546D01*
X120904434Y-85760669D01*
X120905995Y-85760000D01*
X130212678Y-85760000D01*
X130250000Y-85763676D01*
X130287322Y-85760000D01*
X130287333Y-85760000D01*
X130398986Y-85749003D01*
X130542247Y-85705546D01*
X130674276Y-85634974D01*
X130790001Y-85540001D01*
X130813803Y-85510998D01*
X130991855Y-85332946D01*
X133510000Y-85332946D01*
X133510000Y-85587054D01*
X133559574Y-85836279D01*
X133656817Y-86071044D01*
X133797991Y-86282327D01*
X133977673Y-86462009D01*
X134188956Y-86603183D01*
X134423721Y-86700426D01*
X134572399Y-86730000D01*
X134423721Y-86759574D01*
X134188956Y-86856817D01*
X133977673Y-86997991D01*
X133797991Y-87177673D01*
X133656817Y-87388956D01*
X133559574Y-87623721D01*
X133510000Y-87872946D01*
X133510000Y-88127054D01*
X133559574Y-88376279D01*
X133656817Y-88611044D01*
X133797991Y-88822327D01*
X133977673Y-89002009D01*
X134188956Y-89143183D01*
X134423721Y-89240426D01*
X134672946Y-89290000D01*
X134927054Y-89290000D01*
X135176279Y-89240426D01*
X135411044Y-89143183D01*
X135622327Y-89002009D01*
X135802009Y-88822327D01*
X135943183Y-88611044D01*
X136040426Y-88376279D01*
X136070000Y-88227601D01*
X136099574Y-88376279D01*
X136196817Y-88611044D01*
X136337991Y-88822327D01*
X136517673Y-89002009D01*
X136728956Y-89143183D01*
X136963721Y-89240426D01*
X137212946Y-89290000D01*
X137467054Y-89290000D01*
X137716279Y-89240426D01*
X137951044Y-89143183D01*
X138162327Y-89002009D01*
X138342009Y-88822327D01*
X138483183Y-88611044D01*
X138580426Y-88376279D01*
X138610000Y-88227601D01*
X138639574Y-88376279D01*
X138736817Y-88611044D01*
X138877991Y-88822327D01*
X139057673Y-89002009D01*
X139268956Y-89143183D01*
X139503721Y-89240426D01*
X139752946Y-89290000D01*
X140007054Y-89290000D01*
X140256279Y-89240426D01*
X140491044Y-89143183D01*
X140702327Y-89002009D01*
X140882009Y-88822327D01*
X141023183Y-88611044D01*
X141120426Y-88376279D01*
X141150000Y-88227601D01*
X141179574Y-88376279D01*
X141276817Y-88611044D01*
X141417991Y-88822327D01*
X141597673Y-89002009D01*
X141808956Y-89143183D01*
X142043721Y-89240426D01*
X142292946Y-89290000D01*
X142547054Y-89290000D01*
X142796279Y-89240426D01*
X143031044Y-89143183D01*
X143242327Y-89002009D01*
X143422009Y-88822327D01*
X143563183Y-88611044D01*
X143660426Y-88376279D01*
X143690000Y-88227601D01*
X143719574Y-88376279D01*
X143816817Y-88611044D01*
X143957991Y-88822327D01*
X144137673Y-89002009D01*
X144348956Y-89143183D01*
X144583721Y-89240426D01*
X144832946Y-89290000D01*
X145087054Y-89290000D01*
X145336279Y-89240426D01*
X145571044Y-89143183D01*
X145782327Y-89002009D01*
X145962009Y-88822327D01*
X146103183Y-88611044D01*
X146200426Y-88376279D01*
X146206928Y-88343591D01*
X146206928Y-88405000D01*
X146223992Y-88578254D01*
X146274528Y-88744850D01*
X146356595Y-88898386D01*
X146467038Y-89032962D01*
X146601614Y-89143405D01*
X146755150Y-89225472D01*
X146921746Y-89276008D01*
X147095000Y-89293072D01*
X147905000Y-89293072D01*
X148078254Y-89276008D01*
X148244850Y-89225472D01*
X148398386Y-89143405D01*
X148532962Y-89032962D01*
X148643405Y-88898386D01*
X148725472Y-88744850D01*
X148776008Y-88578254D01*
X148793072Y-88405000D01*
X148793072Y-87595000D01*
X148776008Y-87421746D01*
X148725472Y-87255150D01*
X148643405Y-87101614D01*
X148532962Y-86967038D01*
X148398386Y-86856595D01*
X148244850Y-86774528D01*
X148078254Y-86723992D01*
X147905000Y-86706928D01*
X147843591Y-86706928D01*
X147876279Y-86700426D01*
X148111044Y-86603183D01*
X148322327Y-86462009D01*
X148502009Y-86282327D01*
X148643183Y-86071044D01*
X148740426Y-85836279D01*
X148790000Y-85587054D01*
X148790000Y-85332946D01*
X148740426Y-85083721D01*
X148643183Y-84848956D01*
X148502009Y-84637673D01*
X148322327Y-84457991D01*
X148111044Y-84316817D01*
X147876279Y-84219574D01*
X147627054Y-84170000D01*
X147372946Y-84170000D01*
X147123721Y-84219574D01*
X146888956Y-84316817D01*
X146677673Y-84457991D01*
X146497991Y-84637673D01*
X146356817Y-84848956D01*
X146259574Y-85083721D01*
X146230000Y-85232399D01*
X146200426Y-85083721D01*
X146103183Y-84848956D01*
X145962009Y-84637673D01*
X145782327Y-84457991D01*
X145571044Y-84316817D01*
X145336279Y-84219574D01*
X145087054Y-84170000D01*
X144832946Y-84170000D01*
X144583721Y-84219574D01*
X144348956Y-84316817D01*
X144137673Y-84457991D01*
X143957991Y-84637673D01*
X143816817Y-84848956D01*
X143719574Y-85083721D01*
X143690000Y-85232399D01*
X143660426Y-85083721D01*
X143563183Y-84848956D01*
X143422009Y-84637673D01*
X143242327Y-84457991D01*
X143031044Y-84316817D01*
X142796279Y-84219574D01*
X142547054Y-84170000D01*
X142292946Y-84170000D01*
X142043721Y-84219574D01*
X141808956Y-84316817D01*
X141597673Y-84457991D01*
X141417991Y-84637673D01*
X141276817Y-84848956D01*
X141179574Y-85083721D01*
X141150000Y-85232399D01*
X141120426Y-85083721D01*
X141023183Y-84848956D01*
X140882009Y-84637673D01*
X140702327Y-84457991D01*
X140491044Y-84316817D01*
X140256279Y-84219574D01*
X140007054Y-84170000D01*
X139752946Y-84170000D01*
X139503721Y-84219574D01*
X139268956Y-84316817D01*
X139057673Y-84457991D01*
X138877991Y-84637673D01*
X138736817Y-84848956D01*
X138639574Y-85083721D01*
X138610000Y-85232399D01*
X138580426Y-85083721D01*
X138483183Y-84848956D01*
X138342009Y-84637673D01*
X138162327Y-84457991D01*
X137951044Y-84316817D01*
X137716279Y-84219574D01*
X137467054Y-84170000D01*
X137212946Y-84170000D01*
X136963721Y-84219574D01*
X136728956Y-84316817D01*
X136517673Y-84457991D01*
X136337991Y-84637673D01*
X136196817Y-84848956D01*
X136099574Y-85083721D01*
X136070000Y-85232399D01*
X136040426Y-85083721D01*
X135943183Y-84848956D01*
X135802009Y-84637673D01*
X135622327Y-84457991D01*
X135411044Y-84316817D01*
X135176279Y-84219574D01*
X134927054Y-84170000D01*
X134672946Y-84170000D01*
X134423721Y-84219574D01*
X134188956Y-84316817D01*
X133977673Y-84457991D01*
X133797991Y-84637673D01*
X133656817Y-84848956D01*
X133559574Y-85083721D01*
X133510000Y-85332946D01*
X130991855Y-85332946D01*
X131511002Y-84813799D01*
X131540001Y-84790001D01*
X131634974Y-84674276D01*
X131705546Y-84542247D01*
X131749003Y-84398986D01*
X131760000Y-84287333D01*
X131760000Y-84287324D01*
X131763676Y-84250001D01*
X131760000Y-84212678D01*
X131760000Y-84167311D01*
X131948102Y-84245226D01*
X132148061Y-84285000D01*
X132351939Y-84285000D01*
X132551898Y-84245226D01*
X132740256Y-84167205D01*
X132909774Y-84053937D01*
X133053937Y-83909774D01*
X133167205Y-83740256D01*
X133245226Y-83551898D01*
X133285000Y-83351939D01*
X133285000Y-83148061D01*
X133245226Y-82948102D01*
X133167205Y-82759744D01*
X133053937Y-82590226D01*
X133010000Y-82546289D01*
X133010000Y-81570061D01*
X133010874Y-81565361D01*
X133010000Y-81495359D01*
X133010000Y-81462667D01*
X133009533Y-81457921D01*
X133009005Y-81415665D01*
X133002215Y-81383625D01*
X132999003Y-81351014D01*
X132986729Y-81310551D01*
X132977968Y-81269211D01*
X132965059Y-81239113D01*
X132955546Y-81207753D01*
X132935617Y-81170469D01*
X132918957Y-81131626D01*
X132900417Y-81104615D01*
X132884974Y-81075724D01*
X132858158Y-81043048D01*
X132834236Y-81008197D01*
X132810784Y-80985323D01*
X132790001Y-80959999D01*
X132757328Y-80933185D01*
X132753920Y-80929861D01*
X132728429Y-80909469D01*
X132674276Y-80865026D01*
X132670058Y-80862771D01*
X132385142Y-80634838D01*
X147044767Y-80634838D01*
X147182724Y-80935044D01*
X147531967Y-81110882D01*
X147908804Y-81215207D01*
X148298753Y-81244009D01*
X148686828Y-81196184D01*
X149058116Y-81073568D01*
X149317276Y-80935044D01*
X149455233Y-80634838D01*
X148250000Y-79429605D01*
X147044767Y-80634838D01*
X132385142Y-80634838D01*
X131760000Y-80134725D01*
X131760000Y-79298753D01*
X146255991Y-79298753D01*
X146303816Y-79686828D01*
X146426432Y-80058116D01*
X146564956Y-80317276D01*
X146865162Y-80455233D01*
X148070395Y-79250000D01*
X148429605Y-79250000D01*
X149634838Y-80455233D01*
X149935044Y-80317276D01*
X150110882Y-79968033D01*
X150215207Y-79591196D01*
X150244009Y-79201247D01*
X150196184Y-78813172D01*
X150073568Y-78441884D01*
X149935044Y-78182724D01*
X149634838Y-78044767D01*
X148429605Y-79250000D01*
X148070395Y-79250000D01*
X146865162Y-78044767D01*
X146564956Y-78182724D01*
X146389118Y-78531967D01*
X146284793Y-78908804D01*
X146255991Y-79298753D01*
X131760000Y-79298753D01*
X131760000Y-77865162D01*
X147044767Y-77865162D01*
X148250000Y-79070395D01*
X149455233Y-77865162D01*
X149317276Y-77564956D01*
X148968033Y-77389118D01*
X148591196Y-77284793D01*
X148201247Y-77255991D01*
X147813172Y-77303816D01*
X147441884Y-77426432D01*
X147182724Y-77564956D01*
X147044767Y-77865162D01*
X131760000Y-77865162D01*
X131760000Y-73345132D01*
X131881612Y-73223520D01*
X131930736Y-73150000D01*
X132431928Y-73150000D01*
X132431928Y-74850000D01*
X132444188Y-74974482D01*
X132480498Y-75094180D01*
X132539463Y-75204494D01*
X132618815Y-75301185D01*
X132715506Y-75380537D01*
X132825820Y-75439502D01*
X132945518Y-75475812D01*
X133070000Y-75488072D01*
X134770000Y-75488072D01*
X134894482Y-75475812D01*
X135014180Y-75439502D01*
X135124494Y-75380537D01*
X135221185Y-75301185D01*
X135300537Y-75204494D01*
X135359502Y-75094180D01*
X135381513Y-75021620D01*
X135513368Y-75153475D01*
X135756589Y-75315990D01*
X136026842Y-75427932D01*
X136313740Y-75485000D01*
X136606260Y-75485000D01*
X136893158Y-75427932D01*
X137163411Y-75315990D01*
X137406632Y-75153475D01*
X137613475Y-74946632D01*
X137730000Y-74772240D01*
X137846525Y-74946632D01*
X138053368Y-75153475D01*
X138296589Y-75315990D01*
X138566842Y-75427932D01*
X138853740Y-75485000D01*
X139146260Y-75485000D01*
X139433158Y-75427932D01*
X139703411Y-75315990D01*
X139946632Y-75153475D01*
X140153475Y-74946632D01*
X140315990Y-74703411D01*
X140427932Y-74433158D01*
X140485000Y-74146260D01*
X140485000Y-73853740D01*
X140427932Y-73566842D01*
X140315990Y-73296589D01*
X140218044Y-73150001D01*
X146261928Y-73150001D01*
X146261928Y-75349999D01*
X146278992Y-75523253D01*
X146329529Y-75689850D01*
X146411595Y-75843386D01*
X146522039Y-75977961D01*
X146656614Y-76088405D01*
X146810150Y-76170471D01*
X146976747Y-76221008D01*
X147150001Y-76238072D01*
X149349999Y-76238072D01*
X149523253Y-76221008D01*
X149689850Y-76170471D01*
X149843386Y-76088405D01*
X149977961Y-75977961D01*
X150088405Y-75843386D01*
X150170471Y-75689850D01*
X150221008Y-75523253D01*
X150238072Y-75349999D01*
X150238072Y-73150001D01*
X150221008Y-72976747D01*
X150170471Y-72810150D01*
X150088405Y-72656614D01*
X149977961Y-72522039D01*
X149843386Y-72411595D01*
X149689850Y-72329529D01*
X149523253Y-72278992D01*
X149349999Y-72261928D01*
X147150001Y-72261928D01*
X146976747Y-72278992D01*
X146810150Y-72329529D01*
X146656614Y-72411595D01*
X146522039Y-72522039D01*
X146411595Y-72656614D01*
X146329529Y-72810150D01*
X146278992Y-72976747D01*
X146261928Y-73150001D01*
X140218044Y-73150001D01*
X140153475Y-73053368D01*
X139946632Y-72846525D01*
X139703411Y-72684010D01*
X139433158Y-72572068D01*
X139146260Y-72515000D01*
X138853740Y-72515000D01*
X138566842Y-72572068D01*
X138296589Y-72684010D01*
X138053368Y-72846525D01*
X137846525Y-73053368D01*
X137730000Y-73227760D01*
X137613475Y-73053368D01*
X137406632Y-72846525D01*
X137163411Y-72684010D01*
X136893158Y-72572068D01*
X136606260Y-72515000D01*
X136313740Y-72515000D01*
X136026842Y-72572068D01*
X135756589Y-72684010D01*
X135513368Y-72846525D01*
X135381513Y-72978380D01*
X135359502Y-72905820D01*
X135300537Y-72795506D01*
X135221185Y-72698815D01*
X135124494Y-72619463D01*
X135014180Y-72560498D01*
X134894482Y-72524188D01*
X134770000Y-72511928D01*
X133070000Y-72511928D01*
X132945518Y-72524188D01*
X132825820Y-72560498D01*
X132715506Y-72619463D01*
X132618815Y-72698815D01*
X132539463Y-72795506D01*
X132480498Y-72905820D01*
X132444188Y-73025518D01*
X132431928Y-73150000D01*
X131930736Y-73150000D01*
X132005824Y-73037624D01*
X132091383Y-72831067D01*
X132135000Y-72611788D01*
X132135000Y-72388212D01*
X132091383Y-72168933D01*
X132005824Y-71962376D01*
X131881612Y-71776480D01*
X131723520Y-71618388D01*
X131537624Y-71494176D01*
X131331067Y-71408617D01*
X131111788Y-71365000D01*
X130888212Y-71365000D01*
X130668933Y-71408617D01*
X130462376Y-71494176D01*
X130276480Y-71618388D01*
X130118388Y-71776480D01*
X129994176Y-71962376D01*
X129908617Y-72168933D01*
X129865000Y-72388212D01*
X129865000Y-72611788D01*
X129908617Y-72831067D01*
X129994176Y-73037624D01*
X130118388Y-73223520D01*
X130240001Y-73345133D01*
X130240001Y-73668965D01*
X130174276Y-73615026D01*
X130042247Y-73544454D01*
X129898986Y-73500997D01*
X129787333Y-73490000D01*
X129787322Y-73490000D01*
X129750000Y-73486324D01*
X129712678Y-73490000D01*
X128493152Y-73490000D01*
X128493152Y-73400000D01*
X128480892Y-73275518D01*
X128444582Y-73155820D01*
X128385617Y-73045506D01*
X128306265Y-72948815D01*
X128209574Y-72869463D01*
X128099260Y-72810498D01*
X127979562Y-72774188D01*
X127855080Y-72761928D01*
X126155080Y-72761928D01*
X126030598Y-72774188D01*
X125910900Y-72810498D01*
X125800586Y-72869463D01*
X125703895Y-72948815D01*
X125627540Y-73041854D01*
X125551185Y-72948815D01*
X125454494Y-72869463D01*
X125344180Y-72810498D01*
X125224482Y-72774188D01*
X125100000Y-72761928D01*
X123400000Y-72761928D01*
X123275518Y-72774188D01*
X123155820Y-72810498D01*
X123045506Y-72869463D01*
X122948815Y-72948815D01*
X122869463Y-73045506D01*
X122810498Y-73155820D01*
X122774188Y-73275518D01*
X122761928Y-73400000D01*
X122761928Y-75100000D01*
X122774188Y-75224482D01*
X122778895Y-75240000D01*
X99787322Y-75240000D01*
X99749999Y-75236324D01*
X99712676Y-75240000D01*
X99712667Y-75240000D01*
X99601014Y-75250997D01*
X99457753Y-75294454D01*
X99325724Y-75365026D01*
X99209999Y-75459999D01*
X99186201Y-75488998D01*
X98489002Y-76186197D01*
X98459999Y-76209999D01*
X98410842Y-76269898D01*
X98365026Y-76325724D01*
X98312348Y-76424277D01*
X98294454Y-76457754D01*
X98250997Y-76601015D01*
X98240000Y-76712668D01*
X98240000Y-76712678D01*
X98236324Y-76750000D01*
X98240000Y-76787322D01*
X98240001Y-86112491D01*
X98126929Y-86090000D01*
X97923051Y-86090000D01*
X97723092Y-86129774D01*
X97534734Y-86207795D01*
X97365216Y-86321063D01*
X97310266Y-86376013D01*
X97167058Y-86419454D01*
X97035029Y-86490026D01*
X96919304Y-86584999D01*
X96895506Y-86613997D01*
X95238998Y-88270506D01*
X95210000Y-88294304D01*
X95186202Y-88323302D01*
X95186201Y-88323303D01*
X95115026Y-88410029D01*
X95044454Y-88542059D01*
X95022321Y-88615026D01*
X95000998Y-88685319D01*
X94990743Y-88789435D01*
X94986324Y-88834305D01*
X94990001Y-88871637D01*
X94990000Y-90212667D01*
X94990000Y-90212668D01*
X94990001Y-91935197D01*
X94685199Y-92240000D01*
X93703711Y-92240000D01*
X93659774Y-92196063D01*
X93490256Y-92082795D01*
X93301898Y-92004774D01*
X93101939Y-91965000D01*
X92898061Y-91965000D01*
X92698102Y-92004774D01*
X92509744Y-92082795D01*
X92340226Y-92196063D01*
X92196063Y-92340226D01*
X92082795Y-92509744D01*
X92004774Y-92698102D01*
X91965000Y-92898061D01*
X91965000Y-93101939D01*
X92004774Y-93301898D01*
X92082795Y-93490256D01*
X92196063Y-93659774D01*
X92340226Y-93803937D01*
X92509744Y-93917205D01*
X92698102Y-93995226D01*
X92898061Y-94035000D01*
X93101939Y-94035000D01*
X93301898Y-93995226D01*
X93490256Y-93917205D01*
X93659774Y-93803937D01*
X93703711Y-93760000D01*
X93990001Y-93760000D01*
X93990001Y-97273778D01*
X93637988Y-96921765D01*
X93611054Y-96888946D01*
X93480102Y-96781476D01*
X93330700Y-96701619D01*
X93168589Y-96652444D01*
X93042246Y-96640000D01*
X93042239Y-96640000D01*
X93000000Y-96635840D01*
X92957761Y-96640000D01*
X89487087Y-96640000D01*
X89475812Y-96525518D01*
X89439502Y-96405820D01*
X89380537Y-96295506D01*
X89343191Y-96250000D01*
X89380537Y-96204494D01*
X89439502Y-96094180D01*
X89475812Y-95974482D01*
X89488072Y-95850000D01*
X89488072Y-94150000D01*
X89475812Y-94025518D01*
X89439502Y-93905820D01*
X89380537Y-93795506D01*
X89343191Y-93750000D01*
X89380537Y-93704494D01*
X89439502Y-93594180D01*
X89475812Y-93474482D01*
X89488072Y-93350000D01*
X89488072Y-91650000D01*
X89475812Y-91525518D01*
X89439502Y-91405820D01*
X89380537Y-91295506D01*
X89351398Y-91260000D01*
X93462678Y-91260000D01*
X93500000Y-91263676D01*
X93537322Y-91260000D01*
X93537333Y-91260000D01*
X93648986Y-91249003D01*
X93792247Y-91205546D01*
X93924276Y-91134974D01*
X94040001Y-91040001D01*
X94063804Y-91010997D01*
X94510997Y-90563804D01*
X94540001Y-90540001D01*
X94634974Y-90424276D01*
X94705546Y-90292247D01*
X94749003Y-90148986D01*
X94760000Y-90037333D01*
X94760000Y-90037325D01*
X94763676Y-90000000D01*
X94760000Y-89962675D01*
X94760000Y-86064801D01*
X94789801Y-86035000D01*
X94851939Y-86035000D01*
X95051898Y-85995226D01*
X95240256Y-85917205D01*
X95409774Y-85803937D01*
X95553937Y-85659774D01*
X95667205Y-85490256D01*
X95745226Y-85301898D01*
X95785000Y-85101939D01*
X95785000Y-84898061D01*
X95745226Y-84698102D01*
X95667205Y-84509744D01*
X95553937Y-84340226D01*
X95409774Y-84196063D01*
X95240256Y-84082795D01*
X95051898Y-84004774D01*
X94851939Y-83965000D01*
X94648061Y-83965000D01*
X94448102Y-84004774D01*
X94259744Y-84082795D01*
X94090226Y-84196063D01*
X93946063Y-84340226D01*
X93832795Y-84509744D01*
X93754774Y-84698102D01*
X93715000Y-84898061D01*
X93715000Y-84960199D01*
X93489002Y-85186197D01*
X93459999Y-85209999D01*
X93419175Y-85259744D01*
X93365026Y-85325724D01*
X93312348Y-85424277D01*
X93294454Y-85457754D01*
X93250997Y-85601015D01*
X93240000Y-85712668D01*
X93240000Y-85712678D01*
X93236324Y-85750000D01*
X93240000Y-85787323D01*
X93240001Y-89685198D01*
X93185199Y-89740000D01*
X88287322Y-89740000D01*
X88267747Y-89738072D01*
X88850000Y-89738072D01*
X88974482Y-89725812D01*
X89094180Y-89689502D01*
X89204494Y-89630537D01*
X89301185Y-89551185D01*
X89380537Y-89454494D01*
X89439502Y-89344180D01*
X89475812Y-89224482D01*
X89488072Y-89100000D01*
X89488072Y-87400000D01*
X89475812Y-87275518D01*
X89439502Y-87155820D01*
X89380537Y-87045506D01*
X89301185Y-86948815D01*
X89204494Y-86869463D01*
X89094180Y-86810498D01*
X89021620Y-86788487D01*
X89153475Y-86656632D01*
X89315990Y-86413411D01*
X89427932Y-86143158D01*
X89485000Y-85856260D01*
X89485000Y-85563740D01*
X89427932Y-85276842D01*
X89315990Y-85006589D01*
X89153475Y-84763368D01*
X88946632Y-84556525D01*
X88772240Y-84440000D01*
X88946632Y-84323475D01*
X89153475Y-84116632D01*
X89315990Y-83873411D01*
X89427932Y-83603158D01*
X89485000Y-83316260D01*
X89485000Y-83023740D01*
X89427932Y-82736842D01*
X89315990Y-82466589D01*
X89153475Y-82223368D01*
X88946632Y-82016525D01*
X88703411Y-81854010D01*
X88433158Y-81742068D01*
X88146260Y-81685000D01*
X87853740Y-81685000D01*
X87566842Y-81742068D01*
X87296589Y-81854010D01*
X87053368Y-82016525D01*
X86860000Y-82209893D01*
X86860000Y-77360000D01*
X90015868Y-77360000D01*
X90011928Y-77400000D01*
X90011928Y-79100000D01*
X90024188Y-79224482D01*
X90060498Y-79344180D01*
X90119463Y-79454494D01*
X90156809Y-79500000D01*
X90119463Y-79545506D01*
X90060498Y-79655820D01*
X90024188Y-79775518D01*
X90011928Y-79900000D01*
X90011928Y-81600000D01*
X90024188Y-81724482D01*
X90060498Y-81844180D01*
X90119463Y-81954494D01*
X90156809Y-82000000D01*
X90119463Y-82045506D01*
X90060498Y-82155820D01*
X90024188Y-82275518D01*
X90011928Y-82400000D01*
X90011928Y-84100000D01*
X90024188Y-84224482D01*
X90060498Y-84344180D01*
X90119463Y-84454494D01*
X90156809Y-84500000D01*
X90119463Y-84545506D01*
X90060498Y-84655820D01*
X90024188Y-84775518D01*
X90011928Y-84900000D01*
X90011928Y-86600000D01*
X90024188Y-86724482D01*
X90060498Y-86844180D01*
X90119463Y-86954494D01*
X90156809Y-87000000D01*
X90119463Y-87045506D01*
X90060498Y-87155820D01*
X90024188Y-87275518D01*
X90011928Y-87400000D01*
X90011928Y-89100000D01*
X90024188Y-89224482D01*
X90060498Y-89344180D01*
X90119463Y-89454494D01*
X90198815Y-89551185D01*
X90295506Y-89630537D01*
X90405820Y-89689502D01*
X90525518Y-89725812D01*
X90650000Y-89738072D01*
X92350000Y-89738072D01*
X92474482Y-89725812D01*
X92594180Y-89689502D01*
X92704494Y-89630537D01*
X92801185Y-89551185D01*
X92880537Y-89454494D01*
X92939502Y-89344180D01*
X92975812Y-89224482D01*
X92988072Y-89100000D01*
X92988072Y-87400000D01*
X92975812Y-87275518D01*
X92939502Y-87155820D01*
X92880537Y-87045506D01*
X92843191Y-87000000D01*
X92880537Y-86954494D01*
X92939502Y-86844180D01*
X92975812Y-86724482D01*
X92988072Y-86600000D01*
X92988072Y-84900000D01*
X92975812Y-84775518D01*
X92939502Y-84655820D01*
X92880537Y-84545506D01*
X92843191Y-84500000D01*
X92880537Y-84454494D01*
X92939502Y-84344180D01*
X92975812Y-84224482D01*
X92988072Y-84100000D01*
X92988072Y-82400000D01*
X92975812Y-82275518D01*
X92939502Y-82155820D01*
X92880537Y-82045506D01*
X92843191Y-82000000D01*
X92880537Y-81954494D01*
X92939502Y-81844180D01*
X92975812Y-81724482D01*
X92988072Y-81600000D01*
X92988072Y-79900000D01*
X92975812Y-79775518D01*
X92939502Y-79655820D01*
X92880537Y-79545506D01*
X92843191Y-79500000D01*
X92880537Y-79454494D01*
X92939502Y-79344180D01*
X92975812Y-79224482D01*
X92988072Y-79100000D01*
X92988072Y-77673583D01*
X93109300Y-77738381D01*
X93179726Y-77759744D01*
X93271410Y-77787556D01*
X93286975Y-77789089D01*
X93397754Y-77800000D01*
X93397761Y-77800000D01*
X93440000Y-77804160D01*
X93482239Y-77800000D01*
X94364130Y-77800000D01*
X94449744Y-77857205D01*
X94638102Y-77935226D01*
X94838061Y-77975000D01*
X95041939Y-77975000D01*
X95241898Y-77935226D01*
X95430256Y-77857205D01*
X95599774Y-77743937D01*
X95743937Y-77599774D01*
X95857205Y-77430256D01*
X95935226Y-77241898D01*
X95975000Y-77041939D01*
X95975000Y-76838061D01*
X95935226Y-76638102D01*
X95857205Y-76449744D01*
X95743937Y-76280226D01*
X95599774Y-76136063D01*
X95430256Y-76022795D01*
X95241898Y-75944774D01*
X95041939Y-75905000D01*
X94838061Y-75905000D01*
X94638102Y-75944774D01*
X94449744Y-76022795D01*
X94364130Y-76080000D01*
X93796223Y-76080000D01*
X93637988Y-75921765D01*
X93611054Y-75888946D01*
X93480102Y-75781476D01*
X93330700Y-75701619D01*
X93168589Y-75652444D01*
X93042246Y-75640000D01*
X93042239Y-75640000D01*
X93000000Y-75635840D01*
X92957761Y-75640000D01*
X90527429Y-75640000D01*
X90535000Y-75601939D01*
X90535000Y-75398061D01*
X90495226Y-75198102D01*
X90417205Y-75009744D01*
X90303937Y-74840226D01*
X90159774Y-74696063D01*
X89990256Y-74582795D01*
X89801898Y-74504774D01*
X89601939Y-74465000D01*
X89398061Y-74465000D01*
X89198102Y-74504774D01*
X89009744Y-74582795D01*
X88840226Y-74696063D01*
X88696063Y-74840226D01*
X88582795Y-75009744D01*
X88504774Y-75198102D01*
X88465000Y-75398061D01*
X88465000Y-75601939D01*
X88472571Y-75640000D01*
X86782720Y-75640000D01*
X86718524Y-75519898D01*
X86611054Y-75388946D01*
X86578232Y-75362010D01*
X86387989Y-75171766D01*
X86361054Y-75138946D01*
X86230102Y-75031476D01*
X86080700Y-74951619D01*
X85918589Y-74902444D01*
X85792246Y-74890000D01*
X85792239Y-74890000D01*
X85750000Y-74885840D01*
X85707761Y-74890000D01*
X83075870Y-74890000D01*
X82990256Y-74832795D01*
X82801898Y-74754774D01*
X82601939Y-74715000D01*
X82398061Y-74715000D01*
X82198102Y-74754774D01*
X82009744Y-74832795D01*
X81840226Y-74946063D01*
X81696063Y-75090226D01*
X81582795Y-75259744D01*
X81504774Y-75448102D01*
X81465000Y-75648061D01*
X81465000Y-75851939D01*
X81504774Y-76051898D01*
X81582795Y-76240256D01*
X81696063Y-76409774D01*
X81840226Y-76553937D01*
X82009744Y-76667205D01*
X82198102Y-76745226D01*
X82398061Y-76785000D01*
X82601939Y-76785000D01*
X82801898Y-76745226D01*
X82990256Y-76667205D01*
X83075870Y-76610000D01*
X85140000Y-76610000D01*
X85140000Y-76792245D01*
X85140001Y-76792255D01*
X85140000Y-85792245D01*
X85140001Y-85792255D01*
X85140000Y-87490000D01*
X84703711Y-87490000D01*
X84659774Y-87446063D01*
X84490256Y-87332795D01*
X84301898Y-87254774D01*
X84101939Y-87215000D01*
X83898061Y-87215000D01*
X83698102Y-87254774D01*
X83509744Y-87332795D01*
X83340226Y-87446063D01*
X83196063Y-87590226D01*
X83082795Y-87759744D01*
X83004774Y-87948102D01*
X82965000Y-88148061D01*
X82965000Y-88351939D01*
X83004774Y-88551898D01*
X83082795Y-88740256D01*
X83196063Y-88909774D01*
X83340226Y-89053937D01*
X83509744Y-89167205D01*
X83698102Y-89245226D01*
X83898061Y-89285000D01*
X84101939Y-89285000D01*
X84301898Y-89245226D01*
X84490256Y-89167205D01*
X84659774Y-89053937D01*
X84703711Y-89010000D01*
X85140001Y-89010000D01*
X85140000Y-96957761D01*
X85135840Y-97000000D01*
X85140000Y-97042239D01*
X85140000Y-97042245D01*
X85149428Y-97137964D01*
X85152444Y-97168589D01*
X85160951Y-97196632D01*
X85201619Y-97330699D01*
X85281476Y-97480101D01*
X85388946Y-97611054D01*
X85421765Y-97637988D01*
X85862012Y-98078235D01*
X85888946Y-98111054D01*
X86019898Y-98218524D01*
X86169300Y-98298381D01*
X86275843Y-98330700D01*
X86331410Y-98347556D01*
X86500000Y-98364161D01*
X86513195Y-98362861D01*
X86524188Y-98474482D01*
X86560498Y-98594180D01*
X86619463Y-98704494D01*
X86698815Y-98801185D01*
X86795506Y-98880537D01*
X86905820Y-98939502D01*
X87025518Y-98975812D01*
X87150000Y-98988072D01*
X88850000Y-98988072D01*
X88974482Y-98975812D01*
X89094180Y-98939502D01*
X89204494Y-98880537D01*
X89301185Y-98801185D01*
X89380537Y-98704494D01*
X89439502Y-98594180D01*
X89475812Y-98474482D01*
X89487087Y-98360000D01*
X92640000Y-98360000D01*
X92640000Y-98424130D01*
X92582795Y-98509744D01*
X92504774Y-98698102D01*
X92465000Y-98898061D01*
X92465000Y-99101939D01*
X92504774Y-99301898D01*
X92582795Y-99490256D01*
X92672828Y-99625000D01*
X92582795Y-99759744D01*
X92504774Y-99948102D01*
X92465000Y-100148061D01*
X92465000Y-100351939D01*
X92504774Y-100551898D01*
X92582795Y-100740256D01*
X92672828Y-100875000D01*
X92582795Y-101009744D01*
X92504774Y-101198102D01*
X92465000Y-101398061D01*
X92465000Y-101601939D01*
X92492462Y-101740000D01*
X89564802Y-101740000D01*
X88563804Y-100739003D01*
X88540001Y-100709999D01*
X88424276Y-100615026D01*
X88292247Y-100544454D01*
X88148986Y-100500997D01*
X88037333Y-100490000D01*
X88037322Y-100490000D01*
X88000000Y-100486324D01*
X87962678Y-100490000D01*
X80453711Y-100490000D01*
X80409774Y-100446063D01*
X80240256Y-100332795D01*
X80051898Y-100254774D01*
X79851939Y-100215000D01*
X79648061Y-100215000D01*
X79448102Y-100254774D01*
X79259744Y-100332795D01*
X79090226Y-100446063D01*
X78946063Y-100590226D01*
X78832795Y-100759744D01*
X78754774Y-100948102D01*
X78715000Y-101148061D01*
X75127000Y-101148061D01*
X75127000Y-89388212D01*
X77115000Y-89388212D01*
X77115000Y-89611788D01*
X77158617Y-89831067D01*
X77240000Y-90027542D01*
X77240001Y-97450382D01*
X77235114Y-97500000D01*
X77254615Y-97697994D01*
X77312368Y-97888379D01*
X77406154Y-98063840D01*
X77485558Y-98160594D01*
X77532368Y-98217633D01*
X77570901Y-98249256D01*
X78500743Y-99179099D01*
X78532367Y-99217633D01*
X78686160Y-99343847D01*
X78824429Y-99417753D01*
X78861620Y-99437632D01*
X79052005Y-99495385D01*
X79230498Y-99512965D01*
X79249999Y-99514886D01*
X79250000Y-99514886D01*
X79299608Y-99510000D01*
X80287520Y-99510000D01*
X80458149Y-99765364D01*
X80734636Y-100041851D01*
X81059750Y-100259085D01*
X81420997Y-100408718D01*
X81804495Y-100485000D01*
X82195505Y-100485000D01*
X82579003Y-100408718D01*
X82940250Y-100259085D01*
X83265364Y-100041851D01*
X83541851Y-99765364D01*
X83759085Y-99440250D01*
X83908718Y-99079003D01*
X83985000Y-98695505D01*
X83985000Y-98304495D01*
X83908718Y-97920997D01*
X83759085Y-97559750D01*
X83541851Y-97234636D01*
X83265364Y-96958149D01*
X82940250Y-96740915D01*
X82579003Y-96591282D01*
X82195505Y-96515000D01*
X81804495Y-96515000D01*
X81420997Y-96591282D01*
X81059750Y-96740915D01*
X80734636Y-96958149D01*
X80458149Y-97234636D01*
X80287520Y-97490000D01*
X79668356Y-97490000D01*
X79260000Y-97081645D01*
X79260000Y-92400001D01*
X80011928Y-92400001D01*
X80011928Y-94599999D01*
X80028992Y-94773253D01*
X80079529Y-94939850D01*
X80161595Y-95093386D01*
X80272039Y-95227961D01*
X80406614Y-95338405D01*
X80560150Y-95420471D01*
X80726747Y-95471008D01*
X80900001Y-95488072D01*
X83099999Y-95488072D01*
X83273253Y-95471008D01*
X83439850Y-95420471D01*
X83593386Y-95338405D01*
X83727961Y-95227961D01*
X83838405Y-95093386D01*
X83920471Y-94939850D01*
X83971008Y-94773253D01*
X83988072Y-94599999D01*
X83988072Y-92400001D01*
X83971008Y-92226747D01*
X83920471Y-92060150D01*
X83838405Y-91906614D01*
X83727961Y-91772039D01*
X83593386Y-91661595D01*
X83439850Y-91579529D01*
X83273253Y-91528992D01*
X83099999Y-91511928D01*
X80900001Y-91511928D01*
X80726747Y-91528992D01*
X80560150Y-91579529D01*
X80406614Y-91661595D01*
X80272039Y-91772039D01*
X80161595Y-91906614D01*
X80079529Y-92060150D01*
X80028992Y-92226747D01*
X80011928Y-92400001D01*
X79260000Y-92400001D01*
X79260000Y-90027542D01*
X79341383Y-89831067D01*
X79385000Y-89611788D01*
X79385000Y-89388212D01*
X79341383Y-89168933D01*
X79255824Y-88962376D01*
X79131612Y-88776480D01*
X78973520Y-88618388D01*
X78787624Y-88494176D01*
X78581067Y-88408617D01*
X78361788Y-88365000D01*
X78138212Y-88365000D01*
X77918933Y-88408617D01*
X77712376Y-88494176D01*
X77526480Y-88618388D01*
X77368388Y-88776480D01*
X77244176Y-88962376D01*
X77158617Y-89168933D01*
X77115000Y-89388212D01*
X75127000Y-89388212D01*
X75127000Y-73779872D01*
X76265000Y-73779872D01*
X76265000Y-74220128D01*
X76350890Y-74651925D01*
X76519369Y-75058669D01*
X76763962Y-75424729D01*
X77075271Y-75736038D01*
X77441331Y-75980631D01*
X77848075Y-76149110D01*
X78279872Y-76235000D01*
X78720128Y-76235000D01*
X79151925Y-76149110D01*
X79558669Y-75980631D01*
X79924729Y-75736038D01*
X80236038Y-75424729D01*
X80480631Y-75058669D01*
X80649110Y-74651925D01*
X80735000Y-74220128D01*
X80735000Y-73779872D01*
X80649110Y-73348075D01*
X80480631Y-72941331D01*
X80236038Y-72575271D01*
X79924729Y-72263962D01*
X79558669Y-72019369D01*
X79151925Y-71850890D01*
X78720128Y-71765000D01*
X78279872Y-71765000D01*
X77848075Y-71850890D01*
X77441331Y-72019369D01*
X77075271Y-72263962D01*
X76763962Y-72575271D01*
X76519369Y-72941331D01*
X76350890Y-73348075D01*
X76265000Y-73779872D01*
X75127000Y-73779872D01*
X75127000Y-70627000D01*
X90873000Y-70627000D01*
X90873000Y-74000000D01*
X90875440Y-74024776D01*
X90882667Y-74048601D01*
X90894403Y-74070557D01*
X90910197Y-74089803D01*
X90929443Y-74105597D01*
X90951399Y-74117333D01*
X90975224Y-74124560D01*
X91000000Y-74127000D01*
X119250000Y-74127000D01*
X119274776Y-74124560D01*
X119298601Y-74117333D01*
X119320557Y-74105597D01*
X119339803Y-74089803D01*
X119355597Y-74070557D01*
X119367333Y-74048601D01*
X119374560Y-74024776D01*
X119377000Y-74000000D01*
X119377000Y-70377000D01*
X153873000Y-70377000D01*
X153873000Y-112373000D01*
G37*
%TD.AperFunction*%
D23*
X114340226Y-99803937D02*
X114509744Y-99917205D01*
X114698102Y-99995226D01*
X114898061Y-100035000D01*
X114960199Y-100035000D01*
X116240000Y-101314802D01*
X116240001Y-105712668D01*
X116236324Y-105750000D01*
X116250998Y-105898985D01*
X116294454Y-106042246D01*
X116322203Y-106094160D01*
X116160340Y-106094160D01*
X115873442Y-106151228D01*
X115603189Y-106263170D01*
X115359968Y-106425685D01*
X115153125Y-106632528D01*
X115036600Y-106806920D01*
X114920075Y-106632528D01*
X114713232Y-106425685D01*
X114526600Y-106300982D01*
X114526600Y-102303922D01*
X114530276Y-102266599D01*
X114526600Y-102229276D01*
X114526600Y-102229267D01*
X114515603Y-102117614D01*
X114472146Y-101974353D01*
X114445379Y-101924276D01*
X114401574Y-101842323D01*
X114330399Y-101755597D01*
X114306601Y-101726599D01*
X114277604Y-101702802D01*
X113563803Y-100989002D01*
X113540001Y-100959999D01*
X113424276Y-100865026D01*
X113292247Y-100794454D01*
X113148986Y-100750997D01*
X113037333Y-100740000D01*
X113037322Y-100740000D01*
X113000000Y-100736324D01*
X112962678Y-100740000D01*
X109203711Y-100740000D01*
X109159774Y-100696063D01*
X108990256Y-100582795D01*
X108801898Y-100504774D01*
X108777897Y-100500000D01*
X108801898Y-100495226D01*
X108990256Y-100417205D01*
X109159774Y-100303937D01*
X109303937Y-100159774D01*
X109417205Y-99990256D01*
X109495226Y-99801898D01*
X109503560Y-99760000D01*
X114296289Y-99760000D01*
X114340226Y-99803937D01*
%TA.AperFunction,Conductor*%
D24*
G36*
X114340226Y-99803937D02*
G01*
X114509744Y-99917205D01*
X114698102Y-99995226D01*
X114898061Y-100035000D01*
X114960199Y-100035000D01*
X116240000Y-101314802D01*
X116240001Y-105712668D01*
X116236324Y-105750000D01*
X116250998Y-105898985D01*
X116294454Y-106042246D01*
X116322203Y-106094160D01*
X116160340Y-106094160D01*
X115873442Y-106151228D01*
X115603189Y-106263170D01*
X115359968Y-106425685D01*
X115153125Y-106632528D01*
X115036600Y-106806920D01*
X114920075Y-106632528D01*
X114713232Y-106425685D01*
X114526600Y-106300982D01*
X114526600Y-102303922D01*
X114530276Y-102266599D01*
X114526600Y-102229276D01*
X114526600Y-102229267D01*
X114515603Y-102117614D01*
X114472146Y-101974353D01*
X114445379Y-101924276D01*
X114401574Y-101842323D01*
X114330399Y-101755597D01*
X114306601Y-101726599D01*
X114277604Y-101702802D01*
X113563803Y-100989002D01*
X113540001Y-100959999D01*
X113424276Y-100865026D01*
X113292247Y-100794454D01*
X113148986Y-100750997D01*
X113037333Y-100740000D01*
X113037322Y-100740000D01*
X113000000Y-100736324D01*
X112962678Y-100740000D01*
X109203711Y-100740000D01*
X109159774Y-100696063D01*
X108990256Y-100582795D01*
X108801898Y-100504774D01*
X108777897Y-100500000D01*
X108801898Y-100495226D01*
X108990256Y-100417205D01*
X109159774Y-100303937D01*
X109303937Y-100159774D01*
X109417205Y-99990256D01*
X109495226Y-99801898D01*
X109503560Y-99760000D01*
X114296289Y-99760000D01*
X114340226Y-99803937D01*
G37*
%TD.AperFunction*%
D23*
X105754774Y-95551898D02*
X105832795Y-95740256D01*
X105946063Y-95909774D01*
X106029614Y-95993325D01*
X106044454Y-96042247D01*
X106115026Y-96174276D01*
X106210000Y-96290001D01*
X106238998Y-96313799D01*
X107613997Y-97688799D01*
X107614003Y-97688804D01*
X107740001Y-97814802D01*
X107740000Y-98796289D01*
X107696063Y-98840226D01*
X107582795Y-99009744D01*
X107504774Y-99198102D01*
X107465000Y-99398061D01*
X107465000Y-99601939D01*
X107504774Y-99801898D01*
X107582795Y-99990256D01*
X107696063Y-100159774D01*
X107840226Y-100303937D01*
X108009744Y-100417205D01*
X108198102Y-100495226D01*
X108222103Y-100500000D01*
X108198102Y-100504774D01*
X108009744Y-100582795D01*
X107840226Y-100696063D01*
X107696063Y-100840226D01*
X107582795Y-101009744D01*
X107504774Y-101198102D01*
X107465000Y-101398061D01*
X107465000Y-101601939D01*
X107492462Y-101740000D01*
X102564802Y-101740000D01*
X101010000Y-100185199D01*
X101010000Y-97703711D01*
X101053937Y-97659774D01*
X101092754Y-97601680D01*
X101276842Y-97677932D01*
X101563740Y-97735000D01*
X101856260Y-97735000D01*
X102143158Y-97677932D01*
X102413411Y-97565990D01*
X102656632Y-97403475D01*
X102788487Y-97271620D01*
X102810498Y-97344180D01*
X102869463Y-97454494D01*
X102948815Y-97551185D01*
X103045506Y-97630537D01*
X103155820Y-97689502D01*
X103275518Y-97725812D01*
X103400000Y-97738072D01*
X105100000Y-97738072D01*
X105224482Y-97725812D01*
X105344180Y-97689502D01*
X105454494Y-97630537D01*
X105551185Y-97551185D01*
X105630537Y-97454494D01*
X105689502Y-97344180D01*
X105725812Y-97224482D01*
X105738072Y-97100000D01*
X105738072Y-95467931D01*
X105754774Y-95551898D01*
%TA.AperFunction,Conductor*%
D24*
G36*
X105754774Y-95551898D02*
G01*
X105832795Y-95740256D01*
X105946063Y-95909774D01*
X106029614Y-95993325D01*
X106044454Y-96042247D01*
X106115026Y-96174276D01*
X106210000Y-96290001D01*
X106238998Y-96313799D01*
X107613997Y-97688799D01*
X107614003Y-97688804D01*
X107740001Y-97814802D01*
X107740000Y-98796289D01*
X107696063Y-98840226D01*
X107582795Y-99009744D01*
X107504774Y-99198102D01*
X107465000Y-99398061D01*
X107465000Y-99601939D01*
X107504774Y-99801898D01*
X107582795Y-99990256D01*
X107696063Y-100159774D01*
X107840226Y-100303937D01*
X108009744Y-100417205D01*
X108198102Y-100495226D01*
X108222103Y-100500000D01*
X108198102Y-100504774D01*
X108009744Y-100582795D01*
X107840226Y-100696063D01*
X107696063Y-100840226D01*
X107582795Y-101009744D01*
X107504774Y-101198102D01*
X107465000Y-101398061D01*
X107465000Y-101601939D01*
X107492462Y-101740000D01*
X102564802Y-101740000D01*
X101010000Y-100185199D01*
X101010000Y-97703711D01*
X101053937Y-97659774D01*
X101092754Y-97601680D01*
X101276842Y-97677932D01*
X101563740Y-97735000D01*
X101856260Y-97735000D01*
X102143158Y-97677932D01*
X102413411Y-97565990D01*
X102656632Y-97403475D01*
X102788487Y-97271620D01*
X102810498Y-97344180D01*
X102869463Y-97454494D01*
X102948815Y-97551185D01*
X103045506Y-97630537D01*
X103155820Y-97689502D01*
X103275518Y-97725812D01*
X103400000Y-97738072D01*
X105100000Y-97738072D01*
X105224482Y-97725812D01*
X105344180Y-97689502D01*
X105454494Y-97630537D01*
X105551185Y-97551185D01*
X105630537Y-97454494D01*
X105689502Y-97344180D01*
X105725812Y-97224482D01*
X105738072Y-97100000D01*
X105738072Y-95467931D01*
X105754774Y-95551898D01*
G37*
%TD.AperFunction*%
%TD*%
M02*
