%TF.GenerationSoftware,KiCad,Pcbnew,5.1.8-db9833491~87~ubuntu18.04.1*%
%TF.CreationDate,2020-11-20T12:07:17+01:00*%
%TF.ProjectId,esp32_gateway,65737033-325f-4676-9174-657761792e6b,rev?*%
%TF.SameCoordinates,Original*%
%TF.FileFunction,Soldermask,Top*%
%TF.FilePolarity,Negative*%
%FSLAX46Y46*%
G04 Gerber Fmt 4.6, Leading zero omitted, Abs format (unit mm)*
G04 Created by KiCad (PCBNEW 5.1.8-db9833491~87~ubuntu18.04.1) date 2020-11-20 12:07:17*
%MOMM*%
%LPD*%
G01*
G04 APERTURE LIST*
%ADD10C,1.310000*%
%ADD11R,5.800000X6.400000*%
%ADD12R,1.200000X2.200000*%
%ADD13O,1.700000X1.700000*%
%ADD14R,1.700000X1.700000*%
%ADD15C,3.200000*%
%ADD16R,0.800000X0.900000*%
%ADD17C,2.700000*%
%ADD18R,2.000000X0.900000*%
%ADD19R,0.900000X2.000000*%
%ADD20R,5.000000X5.000000*%
%ADD21R,1.500000X2.000000*%
%ADD22R,3.800000X2.000000*%
%ADD23R,2.500000X2.000000*%
%ADD24R,0.900000X0.800000*%
%ADD25R,1.000000X1.500000*%
%ADD26C,1.800000*%
%ADD27C,0.100000*%
%ADD28R,1.800000X1.800000*%
%ADD29R,1.300000X1.700000*%
G04 APERTURE END LIST*
%TO.C,C8*%
G36*
G01*
X84900000Y-73400001D02*
X84900000Y-72099999D01*
G75*
G02*
X85149999Y-71850000I249999J0D01*
G01*
X85800001Y-71850000D01*
G75*
G02*
X86050000Y-72099999I0J-249999D01*
G01*
X86050000Y-73400001D01*
G75*
G02*
X85800001Y-73650000I-249999J0D01*
G01*
X85149999Y-73650000D01*
G75*
G02*
X84900000Y-73400001I0J249999D01*
G01*
G37*
G36*
G01*
X81950000Y-73400001D02*
X81950000Y-72099999D01*
G75*
G02*
X82199999Y-71850000I249999J0D01*
G01*
X82850001Y-71850000D01*
G75*
G02*
X83100000Y-72099999I0J-249999D01*
G01*
X83100000Y-73400001D01*
G75*
G02*
X82850001Y-73650000I-249999J0D01*
G01*
X82199999Y-73650000D01*
G75*
G02*
X81950000Y-73400001I0J249999D01*
G01*
G37*
%TD*%
%TO.C,R24*%
G36*
G01*
X78350000Y-101799998D02*
X78350000Y-102700002D01*
G75*
G02*
X78100002Y-102950000I-249998J0D01*
G01*
X77574998Y-102950000D01*
G75*
G02*
X77325000Y-102700002I0J249998D01*
G01*
X77325000Y-101799998D01*
G75*
G02*
X77574998Y-101550000I249998J0D01*
G01*
X78100002Y-101550000D01*
G75*
G02*
X78350000Y-101799998I0J-249998D01*
G01*
G37*
G36*
G01*
X80175000Y-101799998D02*
X80175000Y-102700002D01*
G75*
G02*
X79925002Y-102950000I-249998J0D01*
G01*
X79399998Y-102950000D01*
G75*
G02*
X79150000Y-102700002I0J249998D01*
G01*
X79150000Y-101799998D01*
G75*
G02*
X79399998Y-101550000I249998J0D01*
G01*
X79925002Y-101550000D01*
G75*
G02*
X80175000Y-101799998I0J-249998D01*
G01*
G37*
%TD*%
D10*
%TO.C,J21*%
X134800000Y-85460000D03*
X137340000Y-85460000D03*
X139880000Y-85460000D03*
X142420000Y-85460000D03*
X144960000Y-85460000D03*
X147500000Y-85460000D03*
X134800000Y-88000000D03*
X137340000Y-88000000D03*
X139880000Y-88000000D03*
X142420000Y-88000000D03*
X144960000Y-88000000D03*
G36*
G01*
X148155000Y-87595000D02*
X148155000Y-88405000D01*
G75*
G02*
X147905000Y-88655000I-250000J0D01*
G01*
X147095000Y-88655000D01*
G75*
G02*
X146845000Y-88405000I0J250000D01*
G01*
X146845000Y-87595000D01*
G75*
G02*
X147095000Y-87345000I250000J0D01*
G01*
X147905000Y-87345000D01*
G75*
G02*
X148155000Y-87595000I0J-250000D01*
G01*
G37*
%TD*%
%TO.C,J20*%
X134800000Y-106210000D03*
X137340000Y-106210000D03*
X139880000Y-106210000D03*
X142420000Y-106210000D03*
X144960000Y-106210000D03*
X147500000Y-106210000D03*
X134800000Y-108750000D03*
X137340000Y-108750000D03*
X139880000Y-108750000D03*
X142420000Y-108750000D03*
X144960000Y-108750000D03*
G36*
G01*
X148155000Y-108345000D02*
X148155000Y-109155000D01*
G75*
G02*
X147905000Y-109405000I-250000J0D01*
G01*
X147095000Y-109405000D01*
G75*
G02*
X146845000Y-109155000I0J250000D01*
G01*
X146845000Y-108345000D01*
G75*
G02*
X147095000Y-108095000I250000J0D01*
G01*
X147905000Y-108095000D01*
G75*
G02*
X148155000Y-108345000I0J-250000D01*
G01*
G37*
%TD*%
%TO.C,C2*%
G36*
G01*
X82000000Y-85800000D02*
X82000000Y-84700000D01*
G75*
G02*
X82250000Y-84450000I250000J0D01*
G01*
X85250000Y-84450000D01*
G75*
G02*
X85500000Y-84700000I0J-250000D01*
G01*
X85500000Y-85800000D01*
G75*
G02*
X85250000Y-86050000I-250000J0D01*
G01*
X82250000Y-86050000D01*
G75*
G02*
X82000000Y-85800000I0J250000D01*
G01*
G37*
G36*
G01*
X76600000Y-85800000D02*
X76600000Y-84700000D01*
G75*
G02*
X76850000Y-84450000I250000J0D01*
G01*
X79850000Y-84450000D01*
G75*
G02*
X80100000Y-84700000I0J-250000D01*
G01*
X80100000Y-85800000D01*
G75*
G02*
X79850000Y-86050000I-250000J0D01*
G01*
X76850000Y-86050000D01*
G75*
G02*
X76600000Y-85800000I0J250000D01*
G01*
G37*
%TD*%
%TO.C,R23*%
G36*
G01*
X81487500Y-105950002D02*
X81487500Y-105049998D01*
G75*
G02*
X81737498Y-104800000I249998J0D01*
G01*
X82262502Y-104800000D01*
G75*
G02*
X82512500Y-105049998I0J-249998D01*
G01*
X82512500Y-105950002D01*
G75*
G02*
X82262502Y-106200000I-249998J0D01*
G01*
X81737498Y-106200000D01*
G75*
G02*
X81487500Y-105950002I0J249998D01*
G01*
G37*
G36*
G01*
X79662500Y-105950002D02*
X79662500Y-105049998D01*
G75*
G02*
X79912498Y-104800000I249998J0D01*
G01*
X80437502Y-104800000D01*
G75*
G02*
X80687500Y-105049998I0J-249998D01*
G01*
X80687500Y-105950002D01*
G75*
G02*
X80437502Y-106200000I-249998J0D01*
G01*
X79912498Y-106200000D01*
G75*
G02*
X79662500Y-105950002I0J249998D01*
G01*
G37*
%TD*%
%TO.C,C7*%
G36*
G01*
X88725000Y-73800000D02*
X87775000Y-73800000D01*
G75*
G02*
X87525000Y-73550000I0J250000D01*
G01*
X87525000Y-73050000D01*
G75*
G02*
X87775000Y-72800000I250000J0D01*
G01*
X88725000Y-72800000D01*
G75*
G02*
X88975000Y-73050000I0J-250000D01*
G01*
X88975000Y-73550000D01*
G75*
G02*
X88725000Y-73800000I-250000J0D01*
G01*
G37*
G36*
G01*
X88725000Y-75700000D02*
X87775000Y-75700000D01*
G75*
G02*
X87525000Y-75450000I0J250000D01*
G01*
X87525000Y-74950000D01*
G75*
G02*
X87775000Y-74700000I250000J0D01*
G01*
X88725000Y-74700000D01*
G75*
G02*
X88975000Y-74950000I0J-250000D01*
G01*
X88975000Y-75450000D01*
G75*
G02*
X88725000Y-75700000I-250000J0D01*
G01*
G37*
%TD*%
%TO.C,R22*%
G36*
G01*
X85237500Y-89950002D02*
X85237500Y-89049998D01*
G75*
G02*
X85487498Y-88800000I249998J0D01*
G01*
X86012502Y-88800000D01*
G75*
G02*
X86262500Y-89049998I0J-249998D01*
G01*
X86262500Y-89950002D01*
G75*
G02*
X86012502Y-90200000I-249998J0D01*
G01*
X85487498Y-90200000D01*
G75*
G02*
X85237500Y-89950002I0J249998D01*
G01*
G37*
G36*
G01*
X83412500Y-89950002D02*
X83412500Y-89049998D01*
G75*
G02*
X83662498Y-88800000I249998J0D01*
G01*
X84187502Y-88800000D01*
G75*
G02*
X84437500Y-89049998I0J-249998D01*
G01*
X84437500Y-89950002D01*
G75*
G02*
X84187502Y-90200000I-249998J0D01*
G01*
X83662498Y-90200000D01*
G75*
G02*
X83412500Y-89950002I0J249998D01*
G01*
G37*
%TD*%
D11*
%TO.C,Q1*%
X86000000Y-108925000D03*
D12*
X83720000Y-102625000D03*
X88280000Y-102625000D03*
%TD*%
D13*
%TO.C,J6*%
X101710000Y-96250000D03*
D14*
X104250000Y-96250000D03*
%TD*%
D15*
%TO.C,REF\u002A\u002A*%
X78500000Y-74000000D03*
%TD*%
%TO.C,REF\u002A\u002A*%
X78750000Y-109000000D03*
%TD*%
%TO.C,REF\u002A\u002A*%
X150500000Y-92500000D03*
%TD*%
D13*
%TO.C,J8*%
X116306600Y-107579160D03*
X113766600Y-107579160D03*
X111226600Y-107579160D03*
D14*
X108686600Y-107579160D03*
%TD*%
D16*
%TO.C,Q5*%
X117815360Y-85750000D03*
X116865360Y-83750000D03*
X118765360Y-83750000D03*
%TD*%
%TO.C,Q4*%
X117815360Y-79201520D03*
X116865360Y-77201520D03*
X118765360Y-77201520D03*
%TD*%
D13*
%TO.C,J10*%
X88000000Y-83170000D03*
X88000000Y-85710000D03*
D14*
X88000000Y-88250000D03*
%TD*%
D17*
%TO.C,J2*%
X148250000Y-79250000D03*
G36*
G01*
X147150001Y-72900000D02*
X149349999Y-72900000D01*
G75*
G02*
X149600000Y-73150001I0J-250001D01*
G01*
X149600000Y-75349999D01*
G75*
G02*
X149349999Y-75600000I-250001J0D01*
G01*
X147150001Y-75600000D01*
G75*
G02*
X146900000Y-75349999I0J250001D01*
G01*
X146900000Y-73150001D01*
G75*
G02*
X147150001Y-72900000I250001J0D01*
G01*
G37*
%TD*%
%TO.C,J1*%
X82000000Y-98500000D03*
G36*
G01*
X80900001Y-92150000D02*
X83099999Y-92150000D01*
G75*
G02*
X83350000Y-92400001I0J-250001D01*
G01*
X83350000Y-94599999D01*
G75*
G02*
X83099999Y-94850000I-250001J0D01*
G01*
X80900001Y-94850000D01*
G75*
G02*
X80650000Y-94599999I0J250001D01*
G01*
X80650000Y-92400001D01*
G75*
G02*
X80900001Y-92150000I250001J0D01*
G01*
G37*
%TD*%
D18*
%TO.C,U2*%
X113500000Y-75670000D03*
X113500000Y-76940000D03*
X113500000Y-78210000D03*
X113500000Y-79480000D03*
X113500000Y-80750000D03*
X113500000Y-82020000D03*
X113500000Y-83290000D03*
X113500000Y-84560000D03*
X113500000Y-85830000D03*
X113500000Y-87100000D03*
X113500000Y-88370000D03*
X113500000Y-89640000D03*
X113500000Y-90910000D03*
X113500000Y-92180000D03*
D19*
X110715000Y-93180000D03*
X109445000Y-93180000D03*
X108175000Y-93180000D03*
X106905000Y-93180000D03*
X105635000Y-93180000D03*
X104365000Y-93180000D03*
X103095000Y-93180000D03*
X101825000Y-93180000D03*
X100555000Y-93180000D03*
X99285000Y-93180000D03*
D18*
X96500000Y-92180000D03*
X96500000Y-90910000D03*
X96500000Y-89640000D03*
X96500000Y-88370000D03*
X96500000Y-87100000D03*
X96500000Y-85830000D03*
X96500000Y-84560000D03*
X96500000Y-83290000D03*
X96500000Y-82020000D03*
X96500000Y-80750000D03*
X96500000Y-79480000D03*
X96500000Y-78210000D03*
X96500000Y-76940000D03*
X96500000Y-75670000D03*
D20*
X104000000Y-83170000D03*
%TD*%
D21*
%TO.C,U1*%
X95800000Y-97350000D03*
X91200000Y-97350000D03*
X93500000Y-97350000D03*
D22*
X93500000Y-103650000D03*
%TD*%
D23*
%TO.C,SW1*%
X81388080Y-78399640D03*
X87548080Y-78399640D03*
%TD*%
%TO.C,R21*%
G36*
G01*
X129049998Y-73900000D02*
X129950002Y-73900000D01*
G75*
G02*
X130200000Y-74149998I0J-249998D01*
G01*
X130200000Y-74675002D01*
G75*
G02*
X129950002Y-74925000I-249998J0D01*
G01*
X129049998Y-74925000D01*
G75*
G02*
X128800000Y-74675002I0J249998D01*
G01*
X128800000Y-74149998D01*
G75*
G02*
X129049998Y-73900000I249998J0D01*
G01*
G37*
G36*
G01*
X129049998Y-72075000D02*
X129950002Y-72075000D01*
G75*
G02*
X130200000Y-72324998I0J-249998D01*
G01*
X130200000Y-72850002D01*
G75*
G02*
X129950002Y-73100000I-249998J0D01*
G01*
X129049998Y-73100000D01*
G75*
G02*
X128800000Y-72850002I0J249998D01*
G01*
X128800000Y-72324998D01*
G75*
G02*
X129049998Y-72075000I249998J0D01*
G01*
G37*
%TD*%
%TO.C,R20*%
G36*
G01*
X121549998Y-73900000D02*
X122450002Y-73900000D01*
G75*
G02*
X122700000Y-74149998I0J-249998D01*
G01*
X122700000Y-74675002D01*
G75*
G02*
X122450002Y-74925000I-249998J0D01*
G01*
X121549998Y-74925000D01*
G75*
G02*
X121300000Y-74675002I0J249998D01*
G01*
X121300000Y-74149998D01*
G75*
G02*
X121549998Y-73900000I249998J0D01*
G01*
G37*
G36*
G01*
X121549998Y-72075000D02*
X122450002Y-72075000D01*
G75*
G02*
X122700000Y-72324998I0J-249998D01*
G01*
X122700000Y-72850002D01*
G75*
G02*
X122450002Y-73100000I-249998J0D01*
G01*
X121549998Y-73100000D01*
G75*
G02*
X121300000Y-72850002I0J249998D01*
G01*
X121300000Y-72324998D01*
G75*
G02*
X121549998Y-72075000I249998J0D01*
G01*
G37*
%TD*%
%TO.C,R19*%
G36*
G01*
X117418540Y-87049998D02*
X117418540Y-87950002D01*
G75*
G02*
X117168542Y-88200000I-249998J0D01*
G01*
X116643538Y-88200000D01*
G75*
G02*
X116393540Y-87950002I0J249998D01*
G01*
X116393540Y-87049998D01*
G75*
G02*
X116643538Y-86800000I249998J0D01*
G01*
X117168542Y-86800000D01*
G75*
G02*
X117418540Y-87049998I0J-249998D01*
G01*
G37*
G36*
G01*
X119243540Y-87049998D02*
X119243540Y-87950002D01*
G75*
G02*
X118993542Y-88200000I-249998J0D01*
G01*
X118468538Y-88200000D01*
G75*
G02*
X118218540Y-87950002I0J249998D01*
G01*
X118218540Y-87049998D01*
G75*
G02*
X118468538Y-86800000I249998J0D01*
G01*
X118993542Y-86800000D01*
G75*
G02*
X119243540Y-87049998I0J-249998D01*
G01*
G37*
%TD*%
%TO.C,R18*%
G36*
G01*
X143600000Y-102299998D02*
X143600000Y-103200002D01*
G75*
G02*
X143350002Y-103450000I-249998J0D01*
G01*
X142824998Y-103450000D01*
G75*
G02*
X142575000Y-103200002I0J249998D01*
G01*
X142575000Y-102299998D01*
G75*
G02*
X142824998Y-102050000I249998J0D01*
G01*
X143350002Y-102050000D01*
G75*
G02*
X143600000Y-102299998I0J-249998D01*
G01*
G37*
G36*
G01*
X145425000Y-102299998D02*
X145425000Y-103200002D01*
G75*
G02*
X145175002Y-103450000I-249998J0D01*
G01*
X144649998Y-103450000D01*
G75*
G02*
X144400000Y-103200002I0J249998D01*
G01*
X144400000Y-102299998D01*
G75*
G02*
X144649998Y-102050000I249998J0D01*
G01*
X145175002Y-102050000D01*
G75*
G02*
X145425000Y-102299998I0J-249998D01*
G01*
G37*
%TD*%
%TO.C,R17*%
G36*
G01*
X117432500Y-75064198D02*
X117432500Y-75964202D01*
G75*
G02*
X117182502Y-76214200I-249998J0D01*
G01*
X116657498Y-76214200D01*
G75*
G02*
X116407500Y-75964202I0J249998D01*
G01*
X116407500Y-75064198D01*
G75*
G02*
X116657498Y-74814200I249998J0D01*
G01*
X117182502Y-74814200D01*
G75*
G02*
X117432500Y-75064198I0J-249998D01*
G01*
G37*
G36*
G01*
X119257500Y-75064198D02*
X119257500Y-75964202D01*
G75*
G02*
X119007502Y-76214200I-249998J0D01*
G01*
X118482498Y-76214200D01*
G75*
G02*
X118232500Y-75964202I0J249998D01*
G01*
X118232500Y-75064198D01*
G75*
G02*
X118482498Y-74814200I249998J0D01*
G01*
X119007502Y-74814200D01*
G75*
G02*
X119257500Y-75064198I0J-249998D01*
G01*
G37*
%TD*%
%TO.C,R16*%
G36*
G01*
X114562500Y-100700002D02*
X114562500Y-99799998D01*
G75*
G02*
X114812498Y-99550000I249998J0D01*
G01*
X115337502Y-99550000D01*
G75*
G02*
X115587500Y-99799998I0J-249998D01*
G01*
X115587500Y-100700002D01*
G75*
G02*
X115337502Y-100950000I-249998J0D01*
G01*
X114812498Y-100950000D01*
G75*
G02*
X114562500Y-100700002I0J249998D01*
G01*
G37*
G36*
G01*
X112737500Y-100700002D02*
X112737500Y-99799998D01*
G75*
G02*
X112987498Y-99550000I249998J0D01*
G01*
X113512502Y-99550000D01*
G75*
G02*
X113762500Y-99799998I0J-249998D01*
G01*
X113762500Y-100700002D01*
G75*
G02*
X113512502Y-100950000I-249998J0D01*
G01*
X112987498Y-100950000D01*
G75*
G02*
X112737500Y-100700002I0J249998D01*
G01*
G37*
%TD*%
%TO.C,R15*%
G36*
G01*
X110187500Y-99799998D02*
X110187500Y-100700002D01*
G75*
G02*
X109937502Y-100950000I-249998J0D01*
G01*
X109412498Y-100950000D01*
G75*
G02*
X109162500Y-100700002I0J249998D01*
G01*
X109162500Y-99799998D01*
G75*
G02*
X109412498Y-99550000I249998J0D01*
G01*
X109937502Y-99550000D01*
G75*
G02*
X110187500Y-99799998I0J-249998D01*
G01*
G37*
G36*
G01*
X112012500Y-99799998D02*
X112012500Y-100700002D01*
G75*
G02*
X111762502Y-100950000I-249998J0D01*
G01*
X111237498Y-100950000D01*
G75*
G02*
X110987500Y-100700002I0J249998D01*
G01*
X110987500Y-99799998D01*
G75*
G02*
X111237498Y-99550000I249998J0D01*
G01*
X111762502Y-99550000D01*
G75*
G02*
X112012500Y-99799998I0J-249998D01*
G01*
G37*
%TD*%
%TO.C,R14*%
G36*
G01*
X107643082Y-97148060D02*
X106743078Y-97148060D01*
G75*
G02*
X106493080Y-96898062I0J249998D01*
G01*
X106493080Y-96373058D01*
G75*
G02*
X106743078Y-96123060I249998J0D01*
G01*
X107643082Y-96123060D01*
G75*
G02*
X107893080Y-96373058I0J-249998D01*
G01*
X107893080Y-96898062D01*
G75*
G02*
X107643082Y-97148060I-249998J0D01*
G01*
G37*
G36*
G01*
X107643082Y-98973060D02*
X106743078Y-98973060D01*
G75*
G02*
X106493080Y-98723062I0J249998D01*
G01*
X106493080Y-98198058D01*
G75*
G02*
X106743078Y-97948060I249998J0D01*
G01*
X107643082Y-97948060D01*
G75*
G02*
X107893080Y-98198058I0J-249998D01*
G01*
X107893080Y-98723062D01*
G75*
G02*
X107643082Y-98973060I-249998J0D01*
G01*
G37*
%TD*%
%TO.C,R13*%
G36*
G01*
X84650000Y-76200002D02*
X84650000Y-75299998D01*
G75*
G02*
X84899998Y-75050000I249998J0D01*
G01*
X85425002Y-75050000D01*
G75*
G02*
X85675000Y-75299998I0J-249998D01*
G01*
X85675000Y-76200002D01*
G75*
G02*
X85425002Y-76450000I-249998J0D01*
G01*
X84899998Y-76450000D01*
G75*
G02*
X84650000Y-76200002I0J249998D01*
G01*
G37*
G36*
G01*
X82825000Y-76200002D02*
X82825000Y-75299998D01*
G75*
G02*
X83074998Y-75050000I249998J0D01*
G01*
X83600002Y-75050000D01*
G75*
G02*
X83850000Y-75299998I0J-249998D01*
G01*
X83850000Y-76200002D01*
G75*
G02*
X83600002Y-76450000I-249998J0D01*
G01*
X83074998Y-76450000D01*
G75*
G02*
X82825000Y-76200002I0J249998D01*
G01*
G37*
%TD*%
%TO.C,R12*%
G36*
G01*
X122687500Y-94049998D02*
X122687500Y-94950002D01*
G75*
G02*
X122437502Y-95200000I-249998J0D01*
G01*
X121912498Y-95200000D01*
G75*
G02*
X121662500Y-94950002I0J249998D01*
G01*
X121662500Y-94049998D01*
G75*
G02*
X121912498Y-93800000I249998J0D01*
G01*
X122437502Y-93800000D01*
G75*
G02*
X122687500Y-94049998I0J-249998D01*
G01*
G37*
G36*
G01*
X124512500Y-94049998D02*
X124512500Y-94950002D01*
G75*
G02*
X124262502Y-95200000I-249998J0D01*
G01*
X123737498Y-95200000D01*
G75*
G02*
X123487500Y-94950002I0J249998D01*
G01*
X123487500Y-94049998D01*
G75*
G02*
X123737498Y-93800000I249998J0D01*
G01*
X124262502Y-93800000D01*
G75*
G02*
X124512500Y-94049998I0J-249998D01*
G01*
G37*
%TD*%
%TO.C,R11*%
G36*
G01*
X122687500Y-96049998D02*
X122687500Y-96950002D01*
G75*
G02*
X122437502Y-97200000I-249998J0D01*
G01*
X121912498Y-97200000D01*
G75*
G02*
X121662500Y-96950002I0J249998D01*
G01*
X121662500Y-96049998D01*
G75*
G02*
X121912498Y-95800000I249998J0D01*
G01*
X122437502Y-95800000D01*
G75*
G02*
X122687500Y-96049998I0J-249998D01*
G01*
G37*
G36*
G01*
X124512500Y-96049998D02*
X124512500Y-96950002D01*
G75*
G02*
X124262502Y-97200000I-249998J0D01*
G01*
X123737498Y-97200000D01*
G75*
G02*
X123487500Y-96950002I0J249998D01*
G01*
X123487500Y-96049998D01*
G75*
G02*
X123737498Y-95800000I249998J0D01*
G01*
X124262502Y-95800000D01*
G75*
G02*
X124512500Y-96049998I0J-249998D01*
G01*
G37*
%TD*%
%TO.C,R10*%
G36*
G01*
X126900000Y-92950002D02*
X126900000Y-92049998D01*
G75*
G02*
X127149998Y-91800000I249998J0D01*
G01*
X127675002Y-91800000D01*
G75*
G02*
X127925000Y-92049998I0J-249998D01*
G01*
X127925000Y-92950002D01*
G75*
G02*
X127675002Y-93200000I-249998J0D01*
G01*
X127149998Y-93200000D01*
G75*
G02*
X126900000Y-92950002I0J249998D01*
G01*
G37*
G36*
G01*
X125075000Y-92950002D02*
X125075000Y-92049998D01*
G75*
G02*
X125324998Y-91800000I249998J0D01*
G01*
X125850002Y-91800000D01*
G75*
G02*
X126100000Y-92049998I0J-249998D01*
G01*
X126100000Y-92950002D01*
G75*
G02*
X125850002Y-93200000I-249998J0D01*
G01*
X125324998Y-93200000D01*
G75*
G02*
X125075000Y-92950002I0J249998D01*
G01*
G37*
%TD*%
%TO.C,R9*%
G36*
G01*
X114487500Y-102950002D02*
X114487500Y-102049998D01*
G75*
G02*
X114737498Y-101800000I249998J0D01*
G01*
X115262502Y-101800000D01*
G75*
G02*
X115512500Y-102049998I0J-249998D01*
G01*
X115512500Y-102950002D01*
G75*
G02*
X115262502Y-103200000I-249998J0D01*
G01*
X114737498Y-103200000D01*
G75*
G02*
X114487500Y-102950002I0J249998D01*
G01*
G37*
G36*
G01*
X112662500Y-102950002D02*
X112662500Y-102049998D01*
G75*
G02*
X112912498Y-101800000I249998J0D01*
G01*
X113437502Y-101800000D01*
G75*
G02*
X113687500Y-102049998I0J-249998D01*
G01*
X113687500Y-102950002D01*
G75*
G02*
X113437502Y-103200000I-249998J0D01*
G01*
X112912498Y-103200000D01*
G75*
G02*
X112662500Y-102950002I0J249998D01*
G01*
G37*
%TD*%
%TO.C,R8*%
G36*
G01*
X106812500Y-100700002D02*
X106812500Y-99799998D01*
G75*
G02*
X107062498Y-99550000I249998J0D01*
G01*
X107587502Y-99550000D01*
G75*
G02*
X107837500Y-99799998I0J-249998D01*
G01*
X107837500Y-100700002D01*
G75*
G02*
X107587502Y-100950000I-249998J0D01*
G01*
X107062498Y-100950000D01*
G75*
G02*
X106812500Y-100700002I0J249998D01*
G01*
G37*
G36*
G01*
X104987500Y-100700002D02*
X104987500Y-99799998D01*
G75*
G02*
X105237498Y-99550000I249998J0D01*
G01*
X105762502Y-99550000D01*
G75*
G02*
X106012500Y-99799998I0J-249998D01*
G01*
X106012500Y-100700002D01*
G75*
G02*
X105762502Y-100950000I-249998J0D01*
G01*
X105237498Y-100950000D01*
G75*
G02*
X104987500Y-100700002I0J249998D01*
G01*
G37*
%TD*%
%TO.C,R7*%
G36*
G01*
X113850000Y-104049998D02*
X113850000Y-104950002D01*
G75*
G02*
X113600002Y-105200000I-249998J0D01*
G01*
X113074998Y-105200000D01*
G75*
G02*
X112825000Y-104950002I0J249998D01*
G01*
X112825000Y-104049998D01*
G75*
G02*
X113074998Y-103800000I249998J0D01*
G01*
X113600002Y-103800000D01*
G75*
G02*
X113850000Y-104049998I0J-249998D01*
G01*
G37*
G36*
G01*
X115675000Y-104049998D02*
X115675000Y-104950002D01*
G75*
G02*
X115425002Y-105200000I-249998J0D01*
G01*
X114899998Y-105200000D01*
G75*
G02*
X114650000Y-104950002I0J249998D01*
G01*
X114650000Y-104049998D01*
G75*
G02*
X114899998Y-103800000I249998J0D01*
G01*
X115425002Y-103800000D01*
G75*
G02*
X115675000Y-104049998I0J-249998D01*
G01*
G37*
%TD*%
%TO.C,R6*%
G36*
G01*
X136812500Y-77950002D02*
X136812500Y-77049998D01*
G75*
G02*
X137062498Y-76800000I249998J0D01*
G01*
X137587502Y-76800000D01*
G75*
G02*
X137837500Y-77049998I0J-249998D01*
G01*
X137837500Y-77950002D01*
G75*
G02*
X137587502Y-78200000I-249998J0D01*
G01*
X137062498Y-78200000D01*
G75*
G02*
X136812500Y-77950002I0J249998D01*
G01*
G37*
G36*
G01*
X134987500Y-77950002D02*
X134987500Y-77049998D01*
G75*
G02*
X135237498Y-76800000I249998J0D01*
G01*
X135762502Y-76800000D01*
G75*
G02*
X136012500Y-77049998I0J-249998D01*
G01*
X136012500Y-77950002D01*
G75*
G02*
X135762502Y-78200000I-249998J0D01*
G01*
X135237498Y-78200000D01*
G75*
G02*
X134987500Y-77950002I0J249998D01*
G01*
G37*
%TD*%
%TO.C,R5*%
G36*
G01*
X91600000Y-94049998D02*
X91600000Y-94950002D01*
G75*
G02*
X91350002Y-95200000I-249998J0D01*
G01*
X90824998Y-95200000D01*
G75*
G02*
X90575000Y-94950002I0J249998D01*
G01*
X90575000Y-94049998D01*
G75*
G02*
X90824998Y-93800000I249998J0D01*
G01*
X91350002Y-93800000D01*
G75*
G02*
X91600000Y-94049998I0J-249998D01*
G01*
G37*
G36*
G01*
X93425000Y-94049998D02*
X93425000Y-94950002D01*
G75*
G02*
X93175002Y-95200000I-249998J0D01*
G01*
X92649998Y-95200000D01*
G75*
G02*
X92400000Y-94950002I0J249998D01*
G01*
X92400000Y-94049998D01*
G75*
G02*
X92649998Y-93800000I249998J0D01*
G01*
X93175002Y-93800000D01*
G75*
G02*
X93425000Y-94049998I0J-249998D01*
G01*
G37*
%TD*%
%TO.C,R4*%
G36*
G01*
X123487500Y-92950002D02*
X123487500Y-92049998D01*
G75*
G02*
X123737498Y-91800000I249998J0D01*
G01*
X124262502Y-91800000D01*
G75*
G02*
X124512500Y-92049998I0J-249998D01*
G01*
X124512500Y-92950002D01*
G75*
G02*
X124262502Y-93200000I-249998J0D01*
G01*
X123737498Y-93200000D01*
G75*
G02*
X123487500Y-92950002I0J249998D01*
G01*
G37*
G36*
G01*
X121662500Y-92950002D02*
X121662500Y-92049998D01*
G75*
G02*
X121912498Y-91800000I249998J0D01*
G01*
X122437502Y-91800000D01*
G75*
G02*
X122687500Y-92049998I0J-249998D01*
G01*
X122687500Y-92950002D01*
G75*
G02*
X122437502Y-93200000I-249998J0D01*
G01*
X121912498Y-93200000D01*
G75*
G02*
X121662500Y-92950002I0J249998D01*
G01*
G37*
%TD*%
%TO.C,R3*%
G36*
G01*
X126012500Y-94049998D02*
X126012500Y-94950002D01*
G75*
G02*
X125762502Y-95200000I-249998J0D01*
G01*
X125237498Y-95200000D01*
G75*
G02*
X124987500Y-94950002I0J249998D01*
G01*
X124987500Y-94049998D01*
G75*
G02*
X125237498Y-93800000I249998J0D01*
G01*
X125762502Y-93800000D01*
G75*
G02*
X126012500Y-94049998I0J-249998D01*
G01*
G37*
G36*
G01*
X127837500Y-94049998D02*
X127837500Y-94950002D01*
G75*
G02*
X127587502Y-95200000I-249998J0D01*
G01*
X127062498Y-95200000D01*
G75*
G02*
X126812500Y-94950002I0J249998D01*
G01*
X126812500Y-94049998D01*
G75*
G02*
X127062498Y-93800000I249998J0D01*
G01*
X127587502Y-93800000D01*
G75*
G02*
X127837500Y-94049998I0J-249998D01*
G01*
G37*
%TD*%
%TO.C,R2*%
G36*
G01*
X125937500Y-96049998D02*
X125937500Y-96950002D01*
G75*
G02*
X125687502Y-97200000I-249998J0D01*
G01*
X125162498Y-97200000D01*
G75*
G02*
X124912500Y-96950002I0J249998D01*
G01*
X124912500Y-96049998D01*
G75*
G02*
X125162498Y-95800000I249998J0D01*
G01*
X125687502Y-95800000D01*
G75*
G02*
X125937500Y-96049998I0J-249998D01*
G01*
G37*
G36*
G01*
X127762500Y-96049998D02*
X127762500Y-96950002D01*
G75*
G02*
X127512502Y-97200000I-249998J0D01*
G01*
X126987498Y-97200000D01*
G75*
G02*
X126737500Y-96950002I0J249998D01*
G01*
X126737500Y-96049998D01*
G75*
G02*
X126987498Y-95800000I249998J0D01*
G01*
X127512502Y-95800000D01*
G75*
G02*
X127762500Y-96049998I0J-249998D01*
G01*
G37*
%TD*%
%TO.C,R1*%
G36*
G01*
X81049998Y-103400000D02*
X81950002Y-103400000D01*
G75*
G02*
X82200000Y-103649998I0J-249998D01*
G01*
X82200000Y-104175002D01*
G75*
G02*
X81950002Y-104425000I-249998J0D01*
G01*
X81049998Y-104425000D01*
G75*
G02*
X80800000Y-104175002I0J249998D01*
G01*
X80800000Y-103649998D01*
G75*
G02*
X81049998Y-103400000I249998J0D01*
G01*
G37*
G36*
G01*
X81049998Y-101575000D02*
X81950002Y-101575000D01*
G75*
G02*
X82200000Y-101824998I0J-249998D01*
G01*
X82200000Y-102350002D01*
G75*
G02*
X81950002Y-102600000I-249998J0D01*
G01*
X81049998Y-102600000D01*
G75*
G02*
X80800000Y-102350002I0J249998D01*
G01*
X80800000Y-101824998D01*
G75*
G02*
X81049998Y-101575000I249998J0D01*
G01*
G37*
%TD*%
D24*
%TO.C,Q3*%
X119500000Y-103250000D03*
X117500000Y-104200000D03*
X117500000Y-102300000D03*
%TD*%
D16*
%TO.C,Q2*%
X77500000Y-106000000D03*
X76550000Y-104000000D03*
X78450000Y-104000000D03*
%TD*%
D25*
%TO.C,JP1*%
X108750000Y-104500000D03*
X107450000Y-104500000D03*
X110050000Y-104500000D03*
%TD*%
D14*
%TO.C,J23*%
X124250000Y-74250000D03*
%TD*%
%TO.C,J22*%
X127005080Y-74250000D03*
%TD*%
%TO.C,J19*%
X88000000Y-95000000D03*
%TD*%
%TO.C,J18*%
X126750000Y-83250000D03*
%TD*%
%TO.C,J17*%
X91500000Y-88250000D03*
%TD*%
%TO.C,J16*%
X88000000Y-92500000D03*
%TD*%
%TO.C,J15*%
X91500000Y-85750000D03*
%TD*%
%TO.C,J14*%
X91500000Y-83250000D03*
%TD*%
%TO.C,J13*%
X91500000Y-80750000D03*
%TD*%
%TO.C,J12*%
X91500000Y-78250000D03*
%TD*%
%TO.C,J11*%
X88000000Y-97500000D03*
%TD*%
%TO.C,J9*%
X129250000Y-83250000D03*
%TD*%
D13*
%TO.C,J5*%
X126903480Y-79166720D03*
D14*
X124363480Y-79166720D03*
%TD*%
%TO.C,J4*%
X121750000Y-83250000D03*
%TD*%
%TO.C,J3*%
X124250000Y-83250000D03*
%TD*%
%TO.C,D11*%
G36*
G01*
X113293750Y-97950000D02*
X114206250Y-97950000D01*
G75*
G02*
X114450000Y-98193750I0J-243750D01*
G01*
X114450000Y-98681250D01*
G75*
G02*
X114206250Y-98925000I-243750J0D01*
G01*
X113293750Y-98925000D01*
G75*
G02*
X113050000Y-98681250I0J243750D01*
G01*
X113050000Y-98193750D01*
G75*
G02*
X113293750Y-97950000I243750J0D01*
G01*
G37*
G36*
G01*
X113293750Y-96075000D02*
X114206250Y-96075000D01*
G75*
G02*
X114450000Y-96318750I0J-243750D01*
G01*
X114450000Y-96806250D01*
G75*
G02*
X114206250Y-97050000I-243750J0D01*
G01*
X113293750Y-97050000D01*
G75*
G02*
X113050000Y-96806250I0J243750D01*
G01*
X113050000Y-96318750D01*
G75*
G02*
X113293750Y-96075000I243750J0D01*
G01*
G37*
%TD*%
%TO.C,D10*%
G36*
G01*
X111059910Y-97973060D02*
X111972410Y-97973060D01*
G75*
G02*
X112216160Y-98216810I0J-243750D01*
G01*
X112216160Y-98704310D01*
G75*
G02*
X111972410Y-98948060I-243750J0D01*
G01*
X111059910Y-98948060D01*
G75*
G02*
X110816160Y-98704310I0J243750D01*
G01*
X110816160Y-98216810D01*
G75*
G02*
X111059910Y-97973060I243750J0D01*
G01*
G37*
G36*
G01*
X111059910Y-96098060D02*
X111972410Y-96098060D01*
G75*
G02*
X112216160Y-96341810I0J-243750D01*
G01*
X112216160Y-96829310D01*
G75*
G02*
X111972410Y-97073060I-243750J0D01*
G01*
X111059910Y-97073060D01*
G75*
G02*
X110816160Y-96829310I0J243750D01*
G01*
X110816160Y-96341810D01*
G75*
G02*
X111059910Y-96098060I243750J0D01*
G01*
G37*
%TD*%
%TO.C,D9*%
G36*
G01*
X108870430Y-97988300D02*
X109782930Y-97988300D01*
G75*
G02*
X110026680Y-98232050I0J-243750D01*
G01*
X110026680Y-98719550D01*
G75*
G02*
X109782930Y-98963300I-243750J0D01*
G01*
X108870430Y-98963300D01*
G75*
G02*
X108626680Y-98719550I0J243750D01*
G01*
X108626680Y-98232050D01*
G75*
G02*
X108870430Y-97988300I243750J0D01*
G01*
G37*
G36*
G01*
X108870430Y-96113300D02*
X109782930Y-96113300D01*
G75*
G02*
X110026680Y-96357050I0J-243750D01*
G01*
X110026680Y-96844550D01*
G75*
G02*
X109782930Y-97088300I-243750J0D01*
G01*
X108870430Y-97088300D01*
G75*
G02*
X108626680Y-96844550I0J243750D01*
G01*
X108626680Y-96357050D01*
G75*
G02*
X108870430Y-96113300I243750J0D01*
G01*
G37*
%TD*%
D26*
%TO.C,D8*%
X118480000Y-96800295D03*
D27*
G36*
X120979423Y-99329423D02*
G01*
X119420577Y-100229423D01*
X118520577Y-98670577D01*
X120079423Y-97770577D01*
X120979423Y-99329423D01*
G37*
%TD*%
D26*
%TO.C,D7*%
X123710000Y-101000000D03*
D28*
X126250000Y-101000000D03*
%TD*%
D26*
%TO.C,D6*%
X126250000Y-88750000D03*
D28*
X123710000Y-88750000D03*
%TD*%
D26*
%TO.C,D5*%
X119770000Y-90800295D03*
D27*
G36*
X118829423Y-94229423D02*
G01*
X117270577Y-93329423D01*
X118170577Y-91770577D01*
X119729423Y-92670577D01*
X118829423Y-94229423D01*
G37*
%TD*%
D26*
%TO.C,D4*%
X131270000Y-93199705D03*
D27*
G36*
X128770577Y-90670577D02*
G01*
X130329423Y-89770577D01*
X131229423Y-91329423D01*
X129670577Y-92229423D01*
X128770577Y-90670577D01*
G37*
%TD*%
D26*
%TO.C,D3*%
X129980000Y-99199705D03*
D27*
G36*
X130920577Y-95770577D02*
G01*
X132479423Y-96670577D01*
X131579423Y-98229423D01*
X130020577Y-97329423D01*
X130920577Y-95770577D01*
G37*
%TD*%
%TO.C,D2*%
G36*
G01*
X90637500Y-92206250D02*
X90637500Y-91293750D01*
G75*
G02*
X90881250Y-91050000I243750J0D01*
G01*
X91368750Y-91050000D01*
G75*
G02*
X91612500Y-91293750I0J-243750D01*
G01*
X91612500Y-92206250D01*
G75*
G02*
X91368750Y-92450000I-243750J0D01*
G01*
X90881250Y-92450000D01*
G75*
G02*
X90637500Y-92206250I0J243750D01*
G01*
G37*
G36*
G01*
X92512500Y-92206250D02*
X92512500Y-91293750D01*
G75*
G02*
X92756250Y-91050000I243750J0D01*
G01*
X93243750Y-91050000D01*
G75*
G02*
X93487500Y-91293750I0J-243750D01*
G01*
X93487500Y-92206250D01*
G75*
G02*
X93243750Y-92450000I-243750J0D01*
G01*
X92756250Y-92450000D01*
G75*
G02*
X92512500Y-92206250I0J243750D01*
G01*
G37*
%TD*%
D29*
%TO.C,D1*%
X99000000Y-103545640D03*
X102500000Y-103545640D03*
%TD*%
%TO.C,C6*%
G36*
G01*
X126050000Y-107300000D02*
X126050000Y-106200000D01*
G75*
G02*
X126300000Y-105950000I250000J0D01*
G01*
X128400000Y-105950000D01*
G75*
G02*
X128650000Y-106200000I0J-250000D01*
G01*
X128650000Y-107300000D01*
G75*
G02*
X128400000Y-107550000I-250000J0D01*
G01*
X126300000Y-107550000D01*
G75*
G02*
X126050000Y-107300000I0J250000D01*
G01*
G37*
G36*
G01*
X122450000Y-107300000D02*
X122450000Y-106200000D01*
G75*
G02*
X122700000Y-105950000I250000J0D01*
G01*
X124800000Y-105950000D01*
G75*
G02*
X125050000Y-106200000I0J-250000D01*
G01*
X125050000Y-107300000D01*
G75*
G02*
X124800000Y-107550000I-250000J0D01*
G01*
X122700000Y-107550000D01*
G75*
G02*
X122450000Y-107300000I0J250000D01*
G01*
G37*
%TD*%
%TO.C,C5*%
G36*
G01*
X100150000Y-100550000D02*
X100150000Y-99450000D01*
G75*
G02*
X100400000Y-99200000I250000J0D01*
G01*
X102100000Y-99200000D01*
G75*
G02*
X102350000Y-99450000I0J-250000D01*
G01*
X102350000Y-100550000D01*
G75*
G02*
X102100000Y-100800000I-250000J0D01*
G01*
X100400000Y-100800000D01*
G75*
G02*
X100150000Y-100550000I0J250000D01*
G01*
G37*
G36*
G01*
X97150000Y-100550000D02*
X97150000Y-99450000D01*
G75*
G02*
X97400000Y-99200000I250000J0D01*
G01*
X99100000Y-99200000D01*
G75*
G02*
X99350000Y-99450000I0J-250000D01*
G01*
X99350000Y-100550000D01*
G75*
G02*
X99100000Y-100800000I-250000J0D01*
G01*
X97400000Y-100800000D01*
G75*
G02*
X97150000Y-100550000I0J250000D01*
G01*
G37*
%TD*%
%TO.C,C4*%
G36*
G01*
X93100000Y-105525000D02*
X93100000Y-106475000D01*
G75*
G02*
X92850000Y-106725000I-250000J0D01*
G01*
X92350000Y-106725000D01*
G75*
G02*
X92100000Y-106475000I0J250000D01*
G01*
X92100000Y-105525000D01*
G75*
G02*
X92350000Y-105275000I250000J0D01*
G01*
X92850000Y-105275000D01*
G75*
G02*
X93100000Y-105525000I0J-250000D01*
G01*
G37*
G36*
G01*
X95000000Y-105525000D02*
X95000000Y-106475000D01*
G75*
G02*
X94750000Y-106725000I-250000J0D01*
G01*
X94250000Y-106725000D01*
G75*
G02*
X94000000Y-106475000I0J250000D01*
G01*
X94000000Y-105525000D01*
G75*
G02*
X94250000Y-105275000I250000J0D01*
G01*
X94750000Y-105275000D01*
G75*
G02*
X95000000Y-105525000I0J-250000D01*
G01*
G37*
%TD*%
%TO.C,C3*%
G36*
G01*
X141050000Y-79250000D02*
X139950000Y-79250000D01*
G75*
G02*
X139700000Y-79000000I0J250000D01*
G01*
X139700000Y-76900000D01*
G75*
G02*
X139950000Y-76650000I250000J0D01*
G01*
X141050000Y-76650000D01*
G75*
G02*
X141300000Y-76900000I0J-250000D01*
G01*
X141300000Y-79000000D01*
G75*
G02*
X141050000Y-79250000I-250000J0D01*
G01*
G37*
G36*
G01*
X141050000Y-82850000D02*
X139950000Y-82850000D01*
G75*
G02*
X139700000Y-82600000I0J250000D01*
G01*
X139700000Y-80500000D01*
G75*
G02*
X139950000Y-80250000I250000J0D01*
G01*
X141050000Y-80250000D01*
G75*
G02*
X141300000Y-80500000I0J-250000D01*
G01*
X141300000Y-82600000D01*
G75*
G02*
X141050000Y-82850000I-250000J0D01*
G01*
G37*
%TD*%
%TO.C,C1*%
G36*
G01*
X81200000Y-89975000D02*
X81200000Y-89025000D01*
G75*
G02*
X81450000Y-88775000I250000J0D01*
G01*
X81950000Y-88775000D01*
G75*
G02*
X82200000Y-89025000I0J-250000D01*
G01*
X82200000Y-89975000D01*
G75*
G02*
X81950000Y-90225000I-250000J0D01*
G01*
X81450000Y-90225000D01*
G75*
G02*
X81200000Y-89975000I0J250000D01*
G01*
G37*
G36*
G01*
X79300000Y-89975000D02*
X79300000Y-89025000D01*
G75*
G02*
X79550000Y-88775000I250000J0D01*
G01*
X80050000Y-88775000D01*
G75*
G02*
X80300000Y-89025000I0J-250000D01*
G01*
X80300000Y-89975000D01*
G75*
G02*
X80050000Y-90225000I-250000J0D01*
G01*
X79550000Y-90225000D01*
G75*
G02*
X79300000Y-89975000I0J250000D01*
G01*
G37*
%TD*%
D14*
%TO.C,J7*%
X133920000Y-74000000D03*
D13*
X136460000Y-74000000D03*
X139000000Y-74000000D03*
%TD*%
M02*
