M48
; DRILL file {KiCad 5.1.8-db9833491~87~ubuntu18.04.1} date Fri Nov 20 12:05:21 2020
; FORMAT={-:-/ absolute / inch / decimal}
; #@! TF.CreationDate,2020-11-20T12:05:21+01:00
; #@! TF.GenerationSoftware,Kicad,Pcbnew,5.1.8-db9833491~87~ubuntu18.04.1
; #@! TF.FileFunction,Plated,1,2,PTH
FMAT,2
INCH
T1C0.0157
T2C0.0236
T3C0.0280
T4C0.0354
T5C0.0394
T6C0.0669
%
G90
G05
T1
X3.1398Y-3.9862
X3.1496Y-4.0945
X3.2283Y-4.2815
X3.2283Y-4.3898
X3.248Y-2.9823
X3.3071Y-3.4744
X3.4154Y-4.0748
X3.5236Y-2.9724
X3.6024Y-4.2815
X3.6024Y-4.3898
X3.6614Y-3.6614
X3.6811Y-3.8976
X3.6811Y-3.9469
X3.6811Y-3.9961
X3.7303Y-3.3465
X3.7378Y-3.0291
X3.7598Y-4.0059
X3.8593Y-3.4301
X3.8681Y-3.5236
X3.8681Y-4.0059
X3.9469Y-3.8189
X3.9862Y-4.1831
X4.1043Y-3.5827
X4.1043Y-4.1831
X4.2028Y-3.75
X4.2717Y-3.9173
X4.2717Y-3.9961
X4.3012Y-3.5827
X4.3012Y-3.75
X4.3898Y-3.5827
X4.3904Y-3.7506
X4.3996Y-3.2283
X4.3996Y-3.3563
X4.4193Y-4.1142
X4.4783Y-3.75
X4.5276Y-3.8976
X4.5374Y-3.4252
X4.5374Y-3.4744
X4.5374Y-3.5236
X4.5965Y-3.75
X4.6752Y-3.0807
X4.685Y-3.376
X4.7244Y-3.4449
X4.813Y-3.8681
X5.0689Y-2.9921
X5.0886Y-3.0512
X5.1969Y-4.0748
X5.1969Y-4.1535
X5.1969Y-4.2717
X5.2067Y-3.2776
T2
X3.0807Y-3.5236
X3.3071Y-4.1929
X3.3366Y-4.3346
X3.3858Y-4.1929
X3.435Y-4.3346
X3.4744Y-4.1929
X3.9469Y-4.0748
X4.7441Y-4.1142
X4.8524Y-4.1142
X5.1575Y-2.8543
T3
X5.3071Y-3.3646
X5.3071Y-3.4646
X5.4071Y-3.3646
X5.4071Y-3.4646
X5.5071Y-3.3646
X5.5071Y-3.4646
X5.6071Y-3.3646
X5.6071Y-3.4646
X5.7071Y-3.3646
X5.7071Y-3.4646
X5.8071Y-3.3646
X5.8071Y-3.4646
X5.3071Y-4.1815
X5.3071Y-4.2815
X5.4071Y-4.1815
X5.4071Y-4.2815
X5.5071Y-4.1815
X5.5071Y-4.2815
X5.6071Y-4.1815
X5.6071Y-4.2815
X5.7071Y-4.1815
X5.7071Y-4.2815
X5.8071Y-4.1815
X5.8071Y-4.2815
T4
X4.6654Y-3.6614
X4.7154Y-3.5748
X5.1181Y-3.5827
X5.1681Y-3.6693
X4.8705Y-3.4941
X4.9705Y-3.4941
X4.6646Y-3.811
X4.7146Y-3.8976
X5.1173Y-3.9055
X5.1673Y-3.8189
X4.8705Y-3.9764
X4.9705Y-3.9764
T5
X4.9902Y-3.2776
X3.6024Y-3.1791
X4.7933Y-3.2776
X3.6024Y-3.4744
X3.4646Y-3.7402
X5.0886Y-3.2776
X3.4646Y-3.2744
X3.4646Y-3.3744
X3.4646Y-3.4744
X4.8962Y-3.1168
X4.9962Y-3.1168
X4.0043Y-3.7894
X4.1043Y-3.7894
X4.279Y-4.2354
X4.379Y-4.2354
X4.479Y-4.2354
X4.579Y-4.2354
X4.8917Y-2.9232
X3.6024Y-3.376
X5.0002Y-2.9232
X3.6024Y-3.0807
X3.4646Y-3.8386
X4.8917Y-3.2776
X5.2724Y-2.9134
X5.3724Y-2.9134
X5.4724Y-2.9134
X3.6024Y-3.2776
X3.4646Y-3.6417
T6
X5.8366Y-2.9232
X5.8366Y-3.1201
X3.2283Y-3.6811
X3.2283Y-3.878
T0
M30
